STARTFONT 2.1
COMMENT
COMMENT Converted from OpenType font "Q:\font stuff\winfont\Weltron 2001.ttf" by "otf2bdf 3.0".
COMMENT
FONT -FreeType-Weltron 2001-Medium-R-Normal--72-720-72-72-P-426-ISO10646-1
SIZE 72 72 72
FONTBOUNDINGBOX 94 130 -19 -39
STARTPROPERTIES 19
FOUNDRY "FreeType"
FAMILY_NAME "Weltron 2001"
WEIGHT_NAME "Medium"
SLANT "R"
SETWIDTH_NAME "Normal"
ADD_STYLE_NAME ""
PIXEL_SIZE 72
POINT_SIZE 720
RESOLUTION_X 72
RESOLUTION_Y 72
SPACING "P"
AVERAGE_WIDTH 426
CHARSET_REGISTRY "ISO10646"
CHARSET_ENCODING "1"
FONT_ASCENT 90
FONT_DESCENT 39
COPYRIGHT "Weltron ©2001 Font"a"licious Fonts."
_OTF_FONTFILE "Q:\font stuff\winfont\Weltron 2001.ttf"
_OTF_PSNAME "Weltron2001"
ENDPROPERTIES
CHARS 233
STARTCHAR 0020
ENCODING 32
SWIDTH 208 0
DWIDTH 15 0
BBX 0 0 0 0
BITMAP
ENDCHAR
STARTCHAR 0021
ENCODING 33
SWIDTH 236 0
DWIDTH 17 0
BBX 21 84 0 -18
BITMAP
FFFFF8
FFFFF8
FFFFF8
FFFFF8
F00078
F00078
F00078
F00078
F00078
F00078
F00078
F00078
F00078
F00078
F00078
F00078
F00078
F00078
F00078
F00078
F00078
F00078
F00078
F00078
F00078
F00078
F00078
F00078
F00078
F00078
F00078
F00078
F00078
F00078
F00078
F00078
F00078
F00078
F00078
F00078
F00078
F00078
F00078
F00078
F00078
F00078
F00078
FFFFF8
FFFFF8
FFFFF8
FFFFF8
F00078
F00078
F00078
F00078
F00078
F00078
F00078
F00078
F00078
F00078
F00078
F00078
F00078
F00078
F00078
FFFFF8
FFFFF8
FFFFF8
FFFFF8
FFFFF8
FFFFF8
FFFFF8
FFFFF8
FFFFF8
FFFFF8
FFFFF8
FFFFF8
FFFFF8
FFFFF8
FFFFF8
FFFFF8
FFFFF8
FFFFF8
ENDCHAR
STARTCHAR 0022
ENCODING 34
SWIDTH 513 0
DWIDTH 37 0
BBX 40 45 0 26
BITMAP
FFFFFFFFFF
FFFFFFFFFF
FFFFFFFFFF
FFFFFFFFFF
F0007E000F
F0007E000F
F0007E000F
F0007E000F
F0007E000F
F0007E000F
F0007E000F
F0007E000F
F0007E000F
F0007E000F
F0007E000F
F0007E000F
F0007E000F
F0007E000F
F0007E000F
F0007E000F
F0007E000F
F0007E000F
F0007E000F
F0007E000F
F0007E000F
F0007E000F
F0007E000F
FFFFFFFFFF
FFFFFFFFFF
FFFFFFFFFF
FFFFFFFFFF
FFFFFFFFFF
FFFFFFFFFF
FFFFFFFFFF
FFFFFFFFFF
FFFFFFFFFF
FFFFFFFFFF
FFFFFFFFFF
FFFFFFFFFF
FFFFFFFFFF
FFFFFFFFFF
FFFFFFFFFF
FFFFFFFFFF
FFFFFFFFFF
FFFFFFFFFF
ENDCHAR
STARTCHAR 0023
ENCODING 35
SWIDTH 486 0
DWIDTH 35 0
BBX 39 67 0 -9
BITMAP
07FFFFFFC0
07FFFFFFC0
07FFFFFFC0
07FFFFFFC0
07800003C0
07800003C0
07800003C0
07800003C0
07800003C0
FF800003FE
FF800003FE
FF800003FE
FF800003FE
F00000001E
F00000001E
F00000001E
F00000001E
F00000001E
F00000001E
F00000001E
F00000001E
F00000001E
F00000001E
F00000001E
F00000001E
F00000001E
F00000001E
F00000001E
F00000001E
F00000001E
F00000001E
F00000001E
F00000001E
F00000001E
F00000001E
F00000001E
F00000001E
F00000001E
F00000001E
F00000001E
FF800003FE
FF800003FE
FF800003FE
FF800003FE
FF800003FE
FF800003FE
FF800003FE
FF800003FE
FF800003FE
FFFFFFFFFE
FFFFFFFFFE
FFFFFFFFFE
FFFFFFFFFE
FFFFFFFFFE
FFFFFFFFFE
FFFFFFFFFE
FFFFFFFFFE
FFFFFFFFFE
07FFFFFFC0
07FFFFFFC0
07FFFFFFC0
07FFFFFFC0
07FFFFFFC0
07FFFFFFC0
07FFFFFFC0
07FFFFFFC0
07FFFFFFC0
ENDCHAR
STARTCHAR 0024
ENCODING 36
SWIDTH 486 0
DWIDTH 35 0
BBX 39 84 0 -18
BITMAP
007FFFFC00
007FFFFC00
007FFFFC00
007FFFFC00
0078003C00
0078003C00
0078003C00
0078003C00
0078003C00
00F8003E00
03F8003F00
07F8003FC0
0FE0000FE0
1F800003E0
3F000001F0
3E000000F8
7C00000078
780000007C
780000003C
F80000003C
F00000001E
F00000001E
F00000001E
F00000001E
F00078001E
F00078001E
F00078001E
F0003FFFFE
F0000FFFFE
F00001FFFE
F000007FFE
F800001F80
78000007C0
7C000003E0
3C000000F0
3E000000F8
1F00000078
0FC000003C
07E000003C
FFF800001E
FFFE00001E
FFFF80001E
FFFFF0001E
F00078001E
F00078001E
F00000001E
F00000001E
F00000001E
F00000001E
F00000001E
F80000003E
F80000003E
F80000007E
FC0000007E
FE000000FE
FF000001FE
FF800003FE
FFE0000FFE
FFF8003FFE
FFF8003FFE
FFF8003FFE
FFF8003FFE
FFF8003FFE
FFF8003FFE
FFF8003FFE
7FF8003FFC
7FFFFFFFFC
7FFFFFFFFC
3FFFFFFFF8
1FFFFFFFF0
1FFFFFFFF0
0FFFFFFFE0
07FFFFFFC0
03FFFFFF80
00FFFFFE00
007FFFFC00
007FFFFC00
007FFFFC00
007FFFFC00
007FFFFC00
007FFFFC00
007FFFFC00
007FFFFC00
007FFFFC00
ENDCHAR
STARTCHAR 0025
ENCODING 37
SWIDTH 986 0
DWIDTH 71 0
BBX 75 89 0 -18
BITMAP
000FFE0001FFFFF80000
007FFFC001FFFFF80000
01FFFFE003FFFFF00000
03FFFFF803FFFFF00000
07F801FC038001F00000
0FC0007E078001E00000
1F80001F078001E00000
3F00000F878003E00000
3E0000078F0003C00000
7C000007CF0003C00000
78000003CF0007C00000
78000001DE0007800000
F8000001FE0007800000
F0000001FE000F800000
F0000001FC000F000000
F0000000FC000F000000
F0000000FC001F000000
F0000000F8001E000000
F0004000F8001E000000
F0004000F8003E000000
F0004000F0003C000000
F0004000F0003C000000
F0000000F0003C000000
F0000000E00078000000
F0000000E00078000000
F0000001E00078000000
F0000001C000F0000000
F8000001C000F0000000
F8000001C000F0000000
F80000038001E0000000
FC0000078001E0000000
FE0000078001E0000000
FF00000F0003E0000000
FF80001F0003C0000000
FFC0007F0003C0000000
FFF801FE0007FFFE0000
FFFFFFFE0007FFFFC000
FFFFFFFE0007FFFFE000
FFFFFFFC000FFFFFF800
FFFFFFFC000FF003FC00
FFFFFFFC000FC000FE00
FFFFFFF8001F00003F00
7FFFFFF8001E00001F00
7FFFFFF8001C00000F80
7FFFFFF0003800000780
3FFFFFF00038000007C0
3FFFFFF00030000003C0
1FFFFFE00070000003E0
0FFFFFE00070000001E0
07FFFFE00060000001E0
03FFFFC000E0000001E0
01FFFFC000E0000001E0
007FFFC000E0000001E0
000FFF8001E0000001E0
0000078001E0004001E0
00000F8001E0004001E0
00000F0003E0004001E0
00000F0003E0004001E0
00001F0003E0000001E0
00001E0007E0000001E0
00001E0007E0000001E0
00003E0007F0000001E0
00003C0007F0000003E0
00003C000FF0000003E0
00007C000FF8000007E0
000078000FF8000007E0
000078001FFC00000FE0
0000F8001FFE00001FE0
0000F0001FFF00003FE0
0000F0003FFFC000FFE0
0001F0003FFFF003FFE0
0001FFFFFFFFFFFFFFE0
0001FFFFFFFFFFFFFFE0
0003FFFFFFFFFFFFFFE0
0003FFFFFFFFFFFFFFE0
0003FFFFFFFFFFFFFFE0
0003FFFFFFFFFFFFFFE0
0003FFFFFFFFFFFFFFC0
0003FFFFFF7FFFFFFFC0
0003FFFFFE7FFFFFFFC0
0003FFFFFE7FFFFFFF80
0003FFFFFE3FFFFFFF00
0003FFFFFC1FFFFFFF00
0003FFFFFC0FFFFFFE00
0003FFFFF80FFFFFFC00
0003FFFFF803FFFFF800
0003FFFFF801FFFFE000
0003FFFFF0007FFFC000
0003FFFFF0000FFE0000
ENDCHAR
STARTCHAR 0026
ENCODING 38
SWIDTH 486 0
DWIDTH 35 0
BBX 39 84 0 -18
BITMAP
007FFFFC00
007FFFFC00
007FFFFC00
007FFFFC00
0078003C00
0078003C00
0078003C00
0078003C00
0078003C00
00F8003E00
03F8003F80
07F8001FC0
0FE00007E0
1F800003F0
1F000001F0
3E000000F8
7C00000078
7C0000003C
780000003C
F80000003C
F00000001E
F00000001E
F00000001E
F00000001E
F00078001E
F0007FFFFE
F0007FFFFE
F0007FFFFE
F00000007E
F000000078
F000000078
F000000078
F000000078
F000000078
7800000078
7800000078
F000000078
F000000078
F000000078
F000000078
F00000007E
F0007FFFFE
F0007FFFFE
F00078001E
F00078001E
F00000001E
F00000001E
F00000001E
F00000001E
F00000003E
F80000003E
F80000007E
F80000007E
FC000000FE
FE000001FE
FF000003FE
FF800007FE
FFE0001FFE
FFF8003FFE
FFF8003FFE
FFF8003FFE
FFF8003FFE
FFF8003FFE
FFF8003FFE
FFF8003FFC
7FF8003FFC
7FFFFFFFFC
7FFFFFFFF8
3FFFFFFFF8
1FFFFFFFF0
1FFFFFFFF0
0FFFFFFFE0
07FFFFFFC0
03FFFFFF80
00FFFFFE00
007FFFFC00
007FFFFC00
007FFFFC00
007FFFFC00
007FFFFC00
007FFFFC00
007FFFFC00
007FFFFC00
007FFFFC00
ENDCHAR
STARTCHAR 0027
ENCODING 39
SWIDTH 236 0
DWIDTH 17 0
BBX 21 45 0 26
BITMAP
FFFFF8
FFFFF8
FFFFF8
FFFFF8
F00078
F00078
F00078
F00078
F00078
F00078
F00078
F00078
F00078
F00078
F00078
F00078
F00078
F00078
F00078
F00078
F00078
F00078
F00078
F00078
F00078
F00078
F00078
FFFFF8
FFFFF8
FFFFF8
FFFFF8
FFFFF8
FFFFF8
FFFFF8
FFFFF8
FFFFF8
FFFFF8
FFFFF8
FFFFF8
FFFFF8
FFFFF8
FFFFF8
FFFFF8
FFFFF8
FFFFF8
ENDCHAR
STARTCHAR 0028
ENCODING 40
SWIDTH 375 0
DWIDTH 27 0
BBX 31 89 0 -18
BITMAP
000FFFFE
007FFFFE
01FFFFFE
03FFFFFE
07F8001E
0FC0001E
1F80001E
3F00001E
3E00001E
7C00001E
7800001E
7800001E
F800001E
F000001E
F000001E
F000001E
F000001E
F000001E
F0007FFE
F0007FFE
F0007FFE
F0007FFE
F0007FFE
F0007FFE
F0007FFE
F0007FFE
F0007FFE
F0007FFE
F0007FFE
F0007FFE
F0007FFE
F0007FFE
F0007FFE
F0007FFE
F0007FFE
F0007FFE
F0007800
F0007800
F0007800
F0007800
F0007800
F0007800
F0007800
F0007800
F0007800
F0007800
F0007800
F0007800
F0007800
F0007800
F0007800
F0007800
F0007800
F0007FFE
F0007FFE
F0007FFE
F0007FFE
F000001E
F000001E
F000001E
F000001E
F000001E
F800001E
F800001E
F800001E
FC00001E
FE00001E
FF00001E
FF80001E
FFC0001E
FFF8001E
FFFFFFFE
FFFFFFFE
FFFFFFFE
FFFFFFFE
FFFFFFFE
FFFFFFFE
7FFFFFFE
7FFFFFFE
7FFFFFFE
3FFFFFFE
3FFFFFFE
1FFFFFFE
0FFFFFFE
07FFFFFE
03FFFFFE
01FFFFFE
007FFFFE
000FFFFE
ENDCHAR
STARTCHAR 0029
ENCODING 41
SWIDTH 375 0
DWIDTH 27 0
BBX 31 89 0 -18
BITMAP
FFFFE000
FFFFFC00
FFFFFE00
FFFFFF80
F0003FC0
F0000FE0
F00003F0
F00001F0
F00000F8
F0000078
F000007C
F000003C
F000003C
F000001E
F000001E
F000001E
F000001E
F000001E
FFFC001E
FFFC001E
FFFC001E
FFFC001E
FFFC001E
FFFC001E
FFFC001E
FFFC001E
FFFC001E
FFFC001E
FFFC001E
FFFC001E
FFFC001E
FFFC001E
FFFC001E
FFFC001E
FFFC001E
FFFC001E
003C001E
003C001E
003C001E
003C001E
003C001E
003C001E
003C001E
003C001E
003C001E
003C001E
003C001E
003C001E
003C001E
003C001E
003C001E
003C001E
003C001E
FFFC001E
FFFC001E
FFFC001E
FFFC001E
F000001E
F000001E
F000001E
F000001E
F000001E
F000003E
F000003E
F000007E
F000007E
F00000FE
F00001FE
F00003FE
F00007FE
F0003FFE
FFFFFFFE
FFFFFFFE
FFFFFFFE
FFFFFFFE
FFFFFFFE
FFFFFFFE
FFFFFFFC
FFFFFFFC
FFFFFFF8
FFFFFFF8
FFFFFFF0
FFFFFFF0
FFFFFFE0
FFFFFFC0
FFFFFF80
FFFFFE00
FFFFFC00
FFFFE000
ENDCHAR
STARTCHAR 002A
ENCODING 42
SWIDTH 805 0
DWIDTH 58 0
BBX 47 52 7 8
BITMAP
00001FF00000
0001FFFF0000
0007F83FC000
001F0001F000
003C01FC7800
00F00FFF9E00
01C03E03E700
0380F0085B80
0701200845C0
0E02200842E0
0C0420104160
1C0810108170
381017EF80B8
301008000058
70100000005C
60200720004C
60218923CE2C
E0218F22D62E
C02186D35A26
C02186F18C26
DE2266F00026
E123C6200026
C921C6203026
D0A006203226
C0A000000046
CA5000000046
C5501FFFE046
C1C818002086
C04818002106
C62417FFE106
E9220FFFC206
63A10000040C
78408000080C
70406000301C
38401800C018
3F8007FF0038
1C0000000030
0C0000060060
0E00000400E0
0700000001C0
038000000380
01E000000700
00F000001E00
00EC00006C00
00E300018C00
00E0F03E0C00
00E00FC01C00
00F800002C00
0067E01FDC00
007C1FE0F800
001FFFFFF000
0003FFFF8000
ENDCHAR
STARTCHAR 002B
ENCODING 43
SWIDTH 486 0
DWIDTH 35 0
BBX 39 53 0 -6
BITMAP
007FFFFC00
007FFFFC00
007FFFFC00
007FFFFC00
0078003C00
0078003C00
0078003C00
0078003C00
0078003C00
FFF8003FFE
FFF8003FFE
FFF8003FFE
FFF8003FFE
F00000001E
F00000001E
F00000001E
F00000001E
F00000001E
F00000001E
F00000001E
F00000001E
F00000001E
F00000001E
F00000001E
F00000001E
F00000001E
FFF8003FFE
FFF8003FFE
FFF8003FFE
FFF8003FFE
FFF8003FFE
FFF8003FFE
FFF8003FFE
FFF8003FFE
FFF8003FFE
FFFFFFFFFE
FFFFFFFFFE
FFFFFFFFFE
FFFFFFFFFE
FFFFFFFFFE
FFFFFFFFFE
FFFFFFFFFE
FFFFFFFFFE
FFFFFFFFFE
007FFFFC00
007FFFFC00
007FFFFC00
007FFFFC00
007FFFFC00
007FFFFC00
007FFFFC00
007FFFFC00
007FFFFC00
ENDCHAR
STARTCHAR 002C
ENCODING 44
SWIDTH 236 0
DWIDTH 17 0
BBX 21 45 0 -26
BITMAP
FFFFF8
FFFFF8
FFFFF8
FFFFF8
F00078
F00078
F00078
F00078
F00078
F00078
F00078
F00078
F00078
F00078
F00078
F00078
F00078
F00078
F00078
F00078
F00078
F00078
F00078
F00078
F00078
F00078
F00078
FFFFF8
FFFFF8
FFFFF8
FFFFF8
FFFFF8
FFFFF8
FFFFF8
FFFFF8
FFFFF8
FFFFF8
FFFFF8
FFFFF8
FFFFF8
FFFFF8
FFFFF8
FFFFF8
FFFFF8
FFFFF8
ENDCHAR
STARTCHAR 002D
ENCODING 45
SWIDTH 277 0
DWIDTH 20 0
BBX 23 35 0 10
BITMAP
FFFFFE
FFFFFE
FFFFFE
FFFFFE
F0001E
F0001E
F0001E
F0001E
F0001E
F0001E
F0001E
F0001E
F0001E
F0001E
F0001E
F0001E
F0001E
FFFFFE
FFFFFE
FFFFFE
FFFFFE
FFFFFE
FFFFFE
FFFFFE
FFFFFE
FFFFFE
FFFFFE
FFFFFE
FFFFFE
FFFFFE
FFFFFE
FFFFFE
FFFFFE
FFFFFE
FFFFFE
ENDCHAR
STARTCHAR 002E
ENCODING 46
SWIDTH 236 0
DWIDTH 17 0
BBX 21 37 0 -18
BITMAP
FFFFF8
FFFFF8
FFFFF8
FFFFF8
F00078
F00078
F00078
F00078
F00078
F00078
F00078
F00078
F00078
F00078
F00078
F00078
F00078
F00078
F00078
FFFFF8
FFFFF8
FFFFF8
FFFFF8
FFFFF8
FFFFF8
FFFFF8
FFFFF8
FFFFF8
FFFFF8
FFFFF8
FFFFF8
FFFFF8
FFFFF8
FFFFF8
FFFFF8
FFFFF8
FFFFF8
ENDCHAR
STARTCHAR 002F
ENCODING 47
SWIDTH 486 0
DWIDTH 35 0
BBX 46 84 -4 -18
BITMAP
000001FFFFFC
000001FFFFF8
000001FFFFF8
000003FFFFF8
000003C000F0
000003C000F0
000007C000F0
0000078001F0
0000078001E0
00000F8001E0
00000F0003E0
00000F0003C0
00001F0003C0
00001E0007C0
00001E0007C0
00003E000780
00003C000F80
00003C000F80
00007C000F00
000078001F00
000078001F00
0000F0001F00
0000F0003E00
0000F0003E00
0001E0003E00
0001E0007C00
0003E0007C00
0003C0007C00
0003C000FC00
0007C000F800
00078000F800
00078001F800
000F8001F000
000F0001F000
000F0003F000
001F0003F000
001E0003E000
001E0007E000
003E0007E000
003C0007C000
003C000FC000
007C000FC000
0078001FC000
0078001F8000
00F8001F8000
00F0003F8000
00F0003F8000
01F0003F0000
01E0007F0000
01E0007F0000
03E0007E0000
03C000FE0000
03C000FE0000
07C000FE0000
078001FC0000
078001FC0000
0F0001FC0000
0F0003F80000
0F0003F80000
1E0003F80000
1E0007F80000
1E0007F00000
3C0007F00000
3C000FF00000
7C000FE00000
78000FE00000
7FFFFFE00000
FFFFFFE00000
FFFFFFC00000
FFFFFFC00000
FFFFFFC00000
FFFFFF800000
FFFFFF800000
FFFFFF800000
FFFFFF800000
FFFFFF000000
FFFFFF000000
FFFFFF000000
FFFFFE000000
FFFFFE000000
FFFFFE000000
FFFFFE000000
FFFFFC000000
FFFFFC000000
ENDCHAR
STARTCHAR 0030
ENCODING 48
SWIDTH 486 0
DWIDTH 35 0
BBX 39 84 0 -18
BITMAP
000FFFE000
007FFFFC00
00FFFFFE00
03FFFFFF80
07F8003FC0
0FC00007E0
1F800003F0
3F000001F0
3E000000F8
7C0000007C
7C0000007C
780000003C
F80000003E
F00000001E
F00000001E
F00000001E
F00000001E
F00000001E
F0007C001E
F0007C001E
F0007C001E
F0007C001E
F0007C001E
F0007C001E
F0007C001E
F0007C001E
F0007C001E
F0007C001E
F0007C001E
F0007C001E
F0007C001E
F0007C001E
F0007C001E
F0007C001E
F0007C001E
F0007C001E
F0007C001E
F0007C001E
F0007C001E
F0007C001E
F0007C001E
F0007C001E
F0007C001E
F0007C001E
F0007C001E
F0007C001E
F0007C001E
F0007C001E
F0007C001E
F0007C001E
F0007C001E
F0007C001E
F00000001E
F00000001E
F00000001E
F00000001E
F00000001E
F80000003E
F80000003E
F80000007E
FC0000007E
FE000000FE
FF000001FE
FF800003FE
FFC00007FE
FFF8003FFE
FFFFFFFFFE
FFFFFFFFFE
FFFFFFFFFE
FFFFFFFFFE
FFFFFFFFFE
FFFFFFFFFE
7FFFFFFFFC
7FFFFFFFFC
7FFFFFFFFC
3FFFFFFFF8
3FFFFFFFF8
1FFFFFFFF0
0FFFFFFFE0
07FFFFFFC0
03FFFFFF80
01FFFFFE00
007FFFFC00
000FFFE000
ENDCHAR
STARTCHAR 0031
ENCODING 49
SWIDTH 333 0
DWIDTH 24 0
BBX 28 84 0 -18
BITMAP
FFFFF800
FFFFFC00
FFFFFE00
FFFFFF00
F0000FC0
F00007E0
F00003F0
F00001F0
F00000F0
F00000F0
F00000F0
F00000F0
F00000F0
F00000F0
F00000F0
F00000F0
F00000F0
FFE000F0
FFE000F0
FFE000F0
FFE000F0
FFE000F0
FFE000F0
FFE000F0
FFE000F0
FFE000F0
FFE000F0
FFE000F0
FFE000F0
FFE000F0
FFE000F0
FFE000F0
FFE000F0
FFE000F0
FFE000F0
01E000F0
01E000F0
01E000F0
01E000F0
01E000F0
01E000F0
01E000F0
01E000F0
01E000F0
01E000F0
01E000F0
01E000F0
01E000F0
01E000F0
01E000F0
01E000F0
01E000F0
01E000F0
01E000F0
01E000F0
01E000F0
01E000F0
01E000F0
01E000F0
01E000F0
01E000F0
01E000F0
01E000F0
01E000F0
01E000F0
01E000F0
01FFFFF0
01FFFFF0
01FFFFF0
01FFFFF0
01FFFFF0
01FFFFF0
01FFFFF0
01FFFFF0
01FFFFF0
01FFFFF0
01FFFFF0
01FFFFF0
01FFFFF0
01FFFFF0
01FFFFF0
01FFFFF0
01FFFFF0
01FFFFF0
ENDCHAR
STARTCHAR 0032
ENCODING 50
SWIDTH 486 0
DWIDTH 35 0
BBX 39 84 0 -18
BITMAP
000FFFE000
007FFFFC00
00FFFFFE00
03FFFFFF80
07F8003FC0
0FC00007E0
1F800003F0
3F000001F0
3E000000F8
7C0000007C
780000003C
780000003C
F00000003E
F00000001E
F00000001E
F00000001E
F00000001E
F00078001E
F00078001E
F00078001E
FFFFF8001E
FFFFF8001E
FFFFF8001E
FFFFF8001E
000FF8001E
003FE0001E
00FF00001E
01FC00001E
07F000003E
0FC000003C
1F8000003C
3E0000007C
3E000000F8
7C000001F8
78000003F0
7800000FE0
F000003FC0
F00000FF80
F00001FE00
F0000FF800
F0003FE000
F0007FC000
F0007E0000
F000780000
F000780000
F000780000
F000780000
F000780000
F0007FFFFE
F0007FFFFE
F0007FFFFE
F0007FFFFE
F00000001E
F00000001E
F00000001E
F00000001E
F00000001E
F00000001E
F00000001E
F00000001E
F00000001E
F00000001E
F00000001E
F00000001E
F00000001E
F00000001E
FFFFFFFFFE
FFFFFFFFFE
FFFFFFFFFE
FFFFFFFFFE
FFFFFFFFFE
FFFFFFFFFE
FFFFFFFFFE
FFFFFFFFFE
FFFFFFFFFE
FFFFFFFFFE
FFFFFFFFFE
FFFFFFFFFE
FFFFFFFFFE
FFFFFFFFFE
FFFFFFFFFE
FFFFFFFFFE
FFFFFFFFFE
FFFFFFFFFE
ENDCHAR
STARTCHAR 0033
ENCODING 51
SWIDTH 486 0
DWIDTH 35 0
BBX 39 84 0 -18
BITMAP
000FFFE000
007FFFFC00
00FFFFFE00
03FFFFFF80
07F8003FC0
0FC00007E0
1F800003F0
3F000001F0
3E000000F8
7C0000007C
780000007C
780000003C
F00000003E
F00000001E
F00000001E
F00000001E
F00000001E
F00078001E
F00078001E
F00078001E
F00078001E
F00078001E
F00078001E
F00078001E
F00078001E
FFFFF8001E
FFFFF8001E
F00000001E
F00000001E
F00000001E
F00000001E
F00000001E
F00000001E
F00000003C
F00000003C
F00000003C
F00000001E
F00000001E
F00000001E
F00000001E
F00000001E
FFFFF8001E
FFFFF8001E
F00078001E
F00078001E
F00078001E
F00078001E
F00078001E
F00078001E
F00078001E
F00078001E
F00078001E
F00000001E
F00000001E
F00000001E
F00000001E
F00000001E
F80000003E
F80000003E
FC0000007E
FC0000007E
FE000000FE
FF000001FE
FF800003FE
FFC00007FE
FFF8003FFE
FFFFFFFFFE
FFFFFFFFFE
FFFFFFFFFE
FFFFFFFFFE
FFFFFFFFFE
FFFFFFFFFE
7FFFFFFFFC
7FFFFFFFFC
7FFFFFFFFC
3FFFFFFFF8
3FFFFFFFF8
1FFFFFFFF0
0FFFFFFFE0
07FFFFFFC0
03FFFFFF80
01FFFFFE00
007FFFFC00
000FFFE000
ENDCHAR
STARTCHAR 0034
ENCODING 52
SWIDTH 486 0
DWIDTH 35 0
BBX 39 84 0 -18
BITMAP
FFFFFFFFFE
FFFFFFFFFE
FFFFFFFFFE
FFFFFFFFFE
F0003C001E
F0003C001E
F0003C001E
F0003C001E
F0003C001E
F0003C001E
F0003C001E
F0003C001E
F0003C001E
F0003C001E
F0003C001E
F0003C001E
F0003C001E
F0003C001E
F0003C001E
F0003C001E
F0003C001E
F0003C001E
F0003C001E
F0003C001E
F0003C001E
F0003C001E
F0003C001E
F0003C001E
F0003C001E
F0003C001E
F0003C001E
F0003C001E
F00000001E
F00000001E
F00000001E
F00000001E
F80000001E
F80000001E
F80000001E
FC0000001E
FE0000001E
FF0000001E
FF8000001E
FFC000001E
FFF800001E
FFFFFC001E
FFFFFC001E
FFFFFC001E
FFFFFC001E
FFFFFC001E
FFFFFC001E
7FFFFC001E
7FFFFC001E
7FFFFC001E
3FFFFC001E
3FFFFC001E
1FFFFC001E
0FFFFC001E
07FFFC001E
03FFFC001E
01FFFC001E
007FFC001E
000FFC001E
00003C001E
00003C001E
00003C001E
00003FFFFE
00003FFFFE
00003FFFFE
00003FFFFE
00003FFFFE
00003FFFFE
00003FFFFE
00003FFFFE
00003FFFFE
00003FFFFE
00003FFFFE
00003FFFFE
00003FFFFE
00003FFFFE
00003FFFFE
00003FFFFE
00003FFFFE
00003FFFFE
ENDCHAR
STARTCHAR 0035
ENCODING 53
SWIDTH 486 0
DWIDTH 35 0
BBX 39 84 0 -18
BITMAP
FFFFFFFFFE
FFFFFFFFFE
FFFFFFFFFE
FFFFFFFFFE
F00000001E
F00000001E
F00000001E
F00000001E
F00000001E
F00000001E
F00000001E
F00000001E
F00000001E
F00000001E
F00000001E
F00000001E
F00000001E
F0007FFFFE
F0007FFFFE
F0007FFFFE
F0007FFFFE
F000780000
F0007FE000
F0007FFC00
F0007FFE00
F0007FFF80
F000003FC0
F000000FE0
F0000003F0
F0000001F0
F0000000F8
F00000007C
F00000007C
F00000003C
F00000003E
F00000001E
F00000001E
F00000001E
F00000001E
F00000001E
FFFFFC001E
FFFFFC001E
FFFFFC001E
FFFFFC001E
00003C001E
00003C001E
00003C001E
00003C001E
FFFFFC001E
FFFFFC001E
FFFFFC001E
FFFFFC001E
F00000001E
F00000001E
F00000001E
F00000001E
F00000001E
F00000003E
F00000003E
F00000007E
F00000007E
F0000000FE
F0000001FE
F0000003FE
F0000007FE
F000003FFE
FFFFFFFFFE
FFFFFFFFFE
FFFFFFFFFE
FFFFFFFFFE
FFFFFFFFFE
FFFFFFFFFE
FFFFFFFFFC
FFFFFFFFFC
FFFFFFFFFC
FFFFFFFFF8
FFFFFFFFF0
FFFFFFFFF0
FFFFFFFFE0
FFFFFFFFC0
FFFFFFFF80
FFFFFFFE00
FFFFFFFC00
FFFFFFE000
ENDCHAR
STARTCHAR 0036
ENCODING 54
SWIDTH 486 0
DWIDTH 35 0
BBX 39 84 0 -18
BITMAP
000FFFFFFE
007FFFFFFE
00FFFFFFFE
03FFFFFFFE
07F800001E
0FC000001E
1F8000001E
3F0000001E
3E0000001E
7C0000001E
7C0000001E
780000001E
F80000001E
F00000001E
F00000001E
F00000001E
F00000001E
F0007FFFFE
F0007FFFFE
F0007FFFFE
F0007FFFFE
F0007FFE00
F0007FFF00
F000003F80
F000000FE0
F0000003E0
F0000001F0
F0000000F8
F000000078
F00000007C
F00000003C
F00000003C
F00000001E
F00000001E
F00000001E
F00000001E
F0007C001E
F0007C001E
F0007C001E
F0007C001E
F0007C001E
F0007C001E
F0007C001E
F0007C001E
F0007C001E
F0007C001E
F0007C001E
F0007C001E
F0007C001E
F0007C001E
F0007C001E
F0007C001E
F00000001E
F00000001E
F00000001E
F00000001E
F00000001E
F80000003E
F80000003E
F80000007E
FC0000007E
FE000000FE
FF000001FE
FF800003FE
FFC00007FE
FFF8003FFE
FFFFFFFFFE
FFFFFFFFFE
FFFFFFFFFE
FFFFFFFFFE
FFFFFFFFFE
FFFFFFFFFE
7FFFFFFFFC
7FFFFFFFFC
7FFFFFFFFC
3FFFFFFFF8
3FFFFFFFF8
1FFFFFFFF0
0FFFFFFFE0
07FFFFFFC0
03FFFFFF80
01FFFFFF00
007FFFFC00
000FFFE000
ENDCHAR
STARTCHAR 0037
ENCODING 55
SWIDTH 527 0
DWIDTH 38 0
BBX 45 84 -2 -18
BITMAP
3FFFFFFFFFF8
3FFFFFFFFFF8
3FFFFFFFFFF0
3FFFFFFFFFF0
3C00000000F0
3C00000001E0
3C00000001E0
3C00000001E0
3C00000003C0
3C00000003C0
3C00000003C0
3C00000007C0
3C0000000780
3C0000000780
3C0000000F80
3C0000000F00
3C0000000F00
3FFFF8001F00
3FFFF8001E00
3FFFF8001E00
3FFFF0003E00
3FFFF0003E00
3FFFF0003C00
3FFFE0007C00
3FFFE0007C00
3FFFE0007800
3FFFC000F800
3FFFC000F800
3FFFC000F000
3FFF8001F000
3FFF8001F000
3FFF8001F000
3FFF0003E000
3FFF0003E000
3FFF0003E000
001E0007C000
001E0007C000
003E0007C000
003C000F8000
003C000F8000
007C000F8000
0078001F8000
0078001F0000
00F8001F0000
00F0003F0000
00F0003E0000
01F0003E0000
01E0007E0000
01E0007C0000
03E0007C0000
03C000FC0000
03C000FC0000
07C000F80000
078001F80000
078001F80000
0F8001F00000
0F0003F00000
0F0003F00000
1F0003E00000
1E0007E00000
1E0007E00000
3E0007E00000
3C000FC00000
3C000FC00000
7C000FC00000
78001F800000
7FFFFF800000
FFFFFF800000
FFFFFF000000
FFFFFF000000
FFFFFF000000
FFFFFF000000
FFFFFE000000
FFFFFE000000
FFFFFE000000
FFFFFC000000
FFFFFC000000
FFFFFC000000
FFFFF8000000
FFFFF8000000
FFFFF8000000
FFFFF8000000
FFFFF0000000
FFFFF0000000
ENDCHAR
STARTCHAR 0038
ENCODING 56
SWIDTH 486 0
DWIDTH 35 0
BBX 39 84 0 -18
BITMAP
000FFFE000
007FFFFC00
01FFFFFE00
03FFFFFF80
07F8003FC0
0FC0000FE0
1F800003F0
3F000001F0
3E000000F8
7C00000078
780000007C
780000003C
F80000003E
F00000001E
F00000001E
F00000001E
F00000001E
F00000001E
F0007C001E
F0007C001E
F0007C001E
F0007C001E
F0007C001E
F0007C001E
F0007C001E
F00000001E
F00000001E
F00000001E
F00000001E
F00000001E
F00000003C
780000003C
780000003C
780000003C
F00000001E
F00000001E
F00000001E
F00000001E
F00000001E
F0007C001E
F0007C001E
F0007C001E
F0007C001E
F0007C001E
F0007C001E
F0007C001E
F0007C001E
F0007C001E
F0007C001E
F0007C001E
F0007C001E
F0007C001E
F00000001E
F00000001E
F00000001E
F00000001E
F00000001E
F80000003E
F80000003E
F80000007E
FC0000007E
FE000000FE
FF000001FE
FF800003FE
FFC00007FE
FFF8003FFE
FFFFFFFFFE
FFFFFFFFFE
FFFFFFFFFE
FFFFFFFFFE
FFFFFFFFFE
FFFFFFFFFE
7FFFFFFFFC
7FFFFFFFFC
7FFFFFFFFC
3FFFFFFFF8
3FFFFFFFF0
1FFFFFFFF0
0FFFFFFFE0
07FFFFFFC0
03FFFFFF80
01FFFFFE00
007FFFFC00
000FFFE000
ENDCHAR
STARTCHAR 0039
ENCODING 57
SWIDTH 486 0
DWIDTH 35 0
BBX 39 84 0 -18
BITMAP
000FFFE000
007FFFFC00
01FFFFFE00
03FFFFFF80
07F8003FC0
0FC0000FE0
1F800003F0
3F000001F0
3E000000F8
7C00000078
780000007C
F80000003C
F00000003E
F00000001E
F00000001E
F00000001E
F00000001E
F00000001E
F0007C001E
F0007C001E
F0007C001E
F0007C001E
F0007C001E
F0007C001E
F0007C001E
F0007C001E
F0007C001E
F0007C001E
F0007C001E
F0007C001E
F0007C001E
F0007C001E
F0007C001E
F00000001E
F00000001E
F00000001E
F00000001E
F00000001E
780000001E
780000001E
7C0000001E
3E0000001E
1F0000001E
1F8000001E
0FC000001E
07F800001E
01FFFC001E
00FFFC001E
FFFFFC001E
FFFFFC001E
FFFFFC001E
FFFFFC001E
F00000001E
F00000001E
F00000001E
F00000001E
F00000001E
F00000003E
F00000003E
F00000007E
F00000007E
F0000000FE
F0000001FE
F0000003FE
F0000007FE
F000003FFE
FFFFFFFFFE
FFFFFFFFFE
FFFFFFFFFE
FFFFFFFFFE
FFFFFFFFFE
FFFFFFFFFE
FFFFFFFFFC
FFFFFFFFFC
FFFFFFFFFC
FFFFFFFFF8
FFFFFFFFF0
FFFFFFFFF0
FFFFFFFFE0
FFFFFFFFC0
FFFFFFFF80
FFFFFFFE00
FFFFFFFC00
FFFFFFE000
ENDCHAR
STARTCHAR 003A
ENCODING 58
SWIDTH 236 0
DWIDTH 17 0
BBX 21 57 0 -18
BITMAP
FFFFF8
FFFFF8
FFFFF8
FFFFF8
F00078
F00078
F00078
F00078
F00078
F00078
F00078
F00078
F00078
F00078
F00078
F00078
F00078
F00078
F00078
FFFFF8
FFFFF8
FFFFF8
FFFFF8
FFFFF8
F00078
F00078
F00078
F00078
F00078
F00078
F00078
F00078
F00078
F00078
F00078
F00078
F00078
F00078
F00078
FFFFF8
FFFFF8
FFFFF8
FFFFF8
FFFFF8
FFFFF8
FFFFF8
FFFFF8
FFFFF8
FFFFF8
FFFFF8
FFFFF8
FFFFF8
FFFFF8
FFFFF8
FFFFF8
FFFFF8
FFFFF8
ENDCHAR
STARTCHAR 003B
ENCODING 59
SWIDTH 236 0
DWIDTH 17 0
BBX 21 65 0 -26
BITMAP
FFFFF8
FFFFF8
FFFFF8
FFFFF8
F00078
F00078
F00078
F00078
F00078
F00078
F00078
F00078
F00078
F00078
F00078
F00078
F00078
F00078
F00078
FFFFF8
FFFFF8
FFFFF8
FFFFF8
FFFFF8
F00078
F00078
F00078
F00078
F00078
F00078
F00078
F00078
F00078
F00078
F00078
F00078
F00078
F00078
F00078
F00078
F00078
F00078
F00078
F00078
F00078
F00078
F00078
FFFFF8
FFFFF8
FFFFF8
FFFFF8
FFFFF8
FFFFF8
FFFFF8
FFFFF8
FFFFF8
FFFFF8
FFFFF8
FFFFF8
FFFFF8
FFFFF8
FFFFF8
FFFFF8
FFFFF8
FFFFF8
ENDCHAR
STARTCHAR 003C
ENCODING 60
SWIDTH 805 0
DWIDTH 58 0
BBX 54 54 4 7
BITMAP
00FFFFFFFFFC00
07FFFFFFFFFF00
0FFFFFFFFFFF80
1FE03FFFF01FE0
3F800FFFC003E0
7F0007FF0001F0
7E0001FE0000F8
FC0001FC000078
F80000F8000038
F800007800003C
F000007000001C
F000007000001C
F000007000001C
F000003000000C
F000003000000C
F000003000000C
F000007000001C
F000007000001C
F000007000001C
F800007800003C
F80000F800003C
FC0001FC00007C
FE0001FE0000FC
FF0003FF0001FC
FF800FFFC003FC
FFE03FFFF01FFC
FFFFFFFFFFFFFC
FFFFFFFFFFFFFC
FFE03FFFF01FFC
FF800FFFC003FC
FF0007FF0001FC
FE0001FE0000FC
FC0001FC00007C
F80000F800003C
F800007800003C
F000007000001C
F000007000001C
F000007000001C
F000003000000C
F000003000000C
F000003000000C
F000007000001C
F000007000001C
F000007000001C
F800007800003C
F80000F8000038
FC0001FC000078
7E0001FE0000F8
7F0003FF0001F0
3F800FFFC003E0
1FE03FFFF01FE0
0FFFFFFFFFFF80
07FFFFFFFFFF00
00FFFFFFFFFC00
ENDCHAR
STARTCHAR 003D
ENCODING 61
SWIDTH 486 0
DWIDTH 35 0
BBX 39 54 0 -7
BITMAP
FFFFFFFFFE
FFFFFFFFFE
FFFFFFFFFE
FFFFFFFFFE
F00000001E
F00000001E
F00000001E
F00000001E
F00000001E
F00000001E
F00000001E
F00000001E
F00000001E
F00000001E
F00000001E
F00000001E
F00000001E
FFFFFFFFFE
FFFFFFFFFE
FFFFFFFFFE
FFFFFFFFFE
FFFFFFFFFE
F00000001E
F00000001E
F00000001E
F00000001E
F00000001E
F00000001E
F00000001E
F00000001E
F00000001E
F00000001E
F00000001E
F00000001E
F00000001E
F00000001E
FFFFFFFFFE
FFFFFFFFFE
FFFFFFFFFE
FFFFFFFFFE
FFFFFFFFFE
FFFFFFFFFE
FFFFFFFFFE
FFFFFFFFFE
FFFFFFFFFE
FFFFFFFFFE
FFFFFFFFFE
FFFFFFFFFE
FFFFFFFFFE
FFFFFFFFFE
FFFFFFFFFE
FFFFFFFFFE
FFFFFFFFFE
FFFFFFFFFE
ENDCHAR
STARTCHAR 003E
ENCODING 62
SWIDTH 263 0
DWIDTH 19 0
BBX 54 54 3 7
BITMAP
00FFFFFFFFFC00
03FFFFFFFFFF00
0FFFFFFFFFFFC0
1FF03FFFF00FE0
3FC00FFFC003F0
3F0003FF8001F0
7E0001FE000078
7C0000FC000038
FC0000FC00003C
F800007800001C
F800007800001C
F000003000000C
F000003000000C
F000003000000C
F000003000000C
F000003000000C
F000003000000C
F000003000000C
F800007800001C
F800007800001C
FC0000FC00003C
FC0000FC00003C
FE0001FE00007C
FF0003FF0001FC
FF800FFFC003FC
FFF03FFFF00FFC
FFFFFFFFFFFFFC
FFFFFFFFFFFFFC
FFF03FFFF00FFC
FFC00FFFC003FC
FF0003FF8001FC
FE0001FE00007C
FC0000FC00007C
FC0000FC00003C
F800007800001C
F800007800001C
F000003000000C
F000003000000C
F000003000000C
F000003000000C
F000003000000C
F000003000000C
F000003000000C
F800007800001C
F800007800001C
FC0000FC00003C
7C0000FC000038
7E0001FE000078
3F0003FF0001F0
3F800FFFC003F0
1FF03FFFF00FE0
0FFFFFFFFFFFC0
03FFFFFFFFFF00
00FFFFFFFFFC00
ENDCHAR
STARTCHAR 003F
ENCODING 63
SWIDTH 486 0
DWIDTH 35 0
BBX 39 84 0 -18
BITMAP
000FFFE000
007FFFFC00
00FFFFFE00
03FFFFFF80
07F8003FC0
0FC0000FE0
1F800003F0
1F000001F0
3E000000F8
7C00000078
780000007C
780000003C
F80000003E
F00000001E
F00000001E
F00000001E
F00000001E
F00078001E
F00078001E
F00078001E
F00078001E
FFFFF8001E
FFFFF8001E
FFFFF8001E
FFFFF8001E
001FF8001E
003FF8001E
00FFF8001E
03FFE0003E
07FF00003E
0FC400003E
1F8000007E
3E000000FE
3C000001FE
7C000003FE
78000007FE
F800001FFE
F000007FFE
F00001FFFE
F00007FFFE
F0003FFFFE
F0007FFFFE
F0007FFFFE
F0007FFFFC
FFFFFFFFFC
FFFFFFFFFC
FFFFFFFFF8
FFFFFFFFF8
FFFFFFFFF0
FFFFFFFFE0
FFFFFFFFC0
F0007FFF80
F0007FFF00
F0007FFC00
F0007FF000
F0007FC000
F0007F0000
F0007C0000
F000780000
F000780000
F000780000
F000780000
F000780000
F000780000
F000780000
F000780000
FFFFF80000
FFFFF80000
FFFFF80000
FFFFF80000
FFFFF80000
FFFFF80000
FFFFF80000
FFFFF80000
FFFFF80000
FFFFF80000
FFFFF80000
FFFFF80000
FFFFF80000
FFFFF80000
FFFFF80000
FFFFF80000
FFFFF80000
FFFFF80000
ENDCHAR
STARTCHAR 0040
ENCODING 64
SWIDTH 652 0
DWIDTH 47 0
BBX 50 84 0 -18
BITMAP
000FFFFFFC0000
007FFFFFFF8000
01FFFFFFFFC000
03FFFFFFFFF000
07F8000007F800
0FC0000001FC00
1F800000007E00
3F000000003E00
3E000000001F00
7C000000000F80
78000000000F80
78000000000780
F80000000007C0
F00000000003C0
F00000000003C0
F00000000003C0
F00000000003C0
F0007FFF8003C0
F0007FFF8003C0
F0007FFE0003C0
F0007FF00003C0
F0007BE00003C0
F0007F800003C0
F0007F000003C0
F0007E000003C0
F0007E000003C0
F0007C000003C0
F0007C000003C0
F00078000003C0
F00078000003C0
F00078000003C0
F00078000003C0
F00078000003C0
F00078000003C0
F00078000003C0
F00078000003C0
F00078000003C0
F00078000003C0
F00078000003C0
F0007C000003C0
F0007C000003C0
F0007C000003C0
F0007E000003C0
F0007F000003C0
F0007B800003C0
F0007BC00003C0
F00078F00003C0
F000787C0003C0
F0007FFFFFFFC0
F0007FFFFFFFC0
F0007FFFFFFFC0
F0007FFFFFFFC0
F00000000003C0
F00000000003C0
F00000000003C0
F00000000003C0
F00000000003C0
F00000000003C0
F80000000003C0
F80000000003C0
FC0000000003C0
FE0000000003C0
FF0000000003C0
FF8000000003C0
FFC000000003C0
FFF800000003C0
FFFFFFFFFFFFC0
FFFFFFFFFFFFC0
FFFFFFFFFFFFC0
FFFFFFFFFFFFC0
FFFFFFFFFFFFC0
FFFFFFFFFFFFC0
7FFFFFFFFFFFC0
7FFFFFFFFFFFC0
7FFFFFFFFFFFC0
3FFFFFFFFFFFC0
3FFFFFFFFFFFC0
1FFFFFFFFFFFC0
0FFFFFFFFFFFC0
07FFFFFFFFFFC0
03FFFFFFFFFFC0
01FFFFFFFFFFC0
007FFFFFFFFFC0
000FFFFFFFFFC0
ENDCHAR
STARTCHAR 0041
ENCODING 65
SWIDTH 458 0
DWIDTH 33 0
BBX 37 84 0 -18
BITMAP
000FFFFFF8
007FFFFFF8
01FFFFFFF8
03FFFFFFF8
07F8000078
0FC0000078
1F80000078
3F00000078
3E00000078
7C00000078
7800000078
7800000078
F800000078
F000000078
F000000078
F000000078
F000000078
F000000078
F000700078
F000700078
F000700078
F000700078
F000700078
F000700078
F000700078
F000700078
F000700078
F000700078
F000700078
F000700078
F000700078
F000700078
F000700078
F000700078
F000700078
F000700078
F000000078
F000000078
F000000078
F000000078
F000000078
F000000078
F000000078
F000000078
F000000078
F000000078
F000000078
F000000078
F000000078
F000000078
F000700078
F000700078
F000700078
F000700078
F000700078
F000700078
F000700078
F000700078
F000700078
F000700078
F000700078
F000700078
F000700078
F000700078
F000700078
F000700078
FFFFFFFFF8
FFFFFFFFF8
FFFFFFFFF8
FFFFFFFFF8
FFFFFFFFF8
FFFFFFFFF8
FFFFFFFFF8
FFFFFFFFF8
FFFFFFFFF8
FFFFFFFFF8
FFFFFFFFF8
FFFFFFFFF8
FFFFFFFFF8
FFFFFFFFF8
FFFFFFFFF8
FFFFFFFFF8
FFFFFFFFF8
FFFFFFFFF8
ENDCHAR
STARTCHAR 0042
ENCODING 66
SWIDTH 458 0
DWIDTH 33 0
BBX 37 84 0 -18
BITMAP
FFFFFF8000
FFFFFFE000
FFFFFFF800
FFFFFFFC00
F00000FF00
F000003F80
F000000F80
F0000007C0
F0000003E0
F0000001E0
F0000001F0
F0000000F0
F0000000F0
F0000000F0
F000000078
F000000078
F000000078
F000000078
F000700078
F000700078
F000700078
F000700078
F000700078
F000700078
F000700078
F000700078
F000700078
F000000078
F000000078
F000000078
F000000078
F000000078
F000000070
F0000000F0
F0000000F0
F0000000F0
F000000078
F000000078
F000000078
F000000078
F000000078
F000700078
F000700078
F000700078
F000700078
F000700078
F000700078
F000700078
F000700078
F000700078
F000700078
F000700078
F000000078
F000000078
F000000078
F000000078
F000000078
F0000000F8
F0000000F8
F0000000F8
F0000001F8
F0000003F8
F0000007F8
F000000FF8
F000001FF8
F00000FFF8
FFFFFFFFF8
FFFFFFFFF8
FFFFFFFFF8
FFFFFFFFF8
FFFFFFFFF8
FFFFFFFFF8
FFFFFFFFF0
FFFFFFFFF0
FFFFFFFFF0
FFFFFFFFE0
FFFFFFFFE0
FFFFFFFFC0
FFFFFFFF80
FFFFFFFF00
FFFFFFFE00
FFFFFFF800
FFFFFFF000
FFFFFF8000
ENDCHAR
STARTCHAR 0043
ENCODING 67
SWIDTH 458 0
DWIDTH 33 0
BBX 37 84 0 -18
BITMAP
000FFF8000
007FFFF000
00FFFFF800
03FFFFFE00
07F800FF00
0FC0001F80
1F80000FC0
3F000007C0
3E000003E0
7C000001E0
78000001F0
78000000F0
F8000000F0
F000000078
F000000078
F000000078
F000000078
F000600078
F000600078
F000600078
F000600078
F000600078
F000600078
F000600078
F000600078
F000600078
F000600078
F000600078
F000600078
F000600078
F000600078
F000600078
F000600078
F000600078
F000600078
F000600078
F000600078
F000600078
F000600078
F000600078
F0007FFFF8
F0007FFFF8
F0007FFFF8
F0007FFFF8
F000780000
F000780000
F000780000
F000780000
F0007FFFF8
F0007FFFF8
F0007FFFF8
F0007FFFF8
F000000078
F000000078
F000000078
F000000078
F000000078
F000000078
F800000078
F800000078
FC00000078
FE00000078
FF00000078
FF80000078
FFC0000078
FFF8000078
FFFFFFFFF8
FFFFFFFFF8
FFFFFFFFF8
FFFFFFFFF8
FFFFFFFFF8
FFFFFFFFF8
7FFFFFFFF8
7FFFFFFFF8
7FFFFFFFF8
3FFFFFFFF8
3FFFFFFFF8
1FFFFFFFF8
0FFFFFFFF8
07FFFFFFF8
03FFFFFFF8
01FFFFFFF8
007FFFFFF8
000FFFFFF8
ENDCHAR
STARTCHAR 0044
ENCODING 68
SWIDTH 458 0
DWIDTH 33 0
BBX 37 84 0 -18
BITMAP
FFFFFF8000
FFFFFFF000
FFFFFFF800
FFFFFFFE00
F00000FF00
F000001F80
F000000FC0
F0000007C0
F0000003E0
F0000001F0
F0000001F0
F0000000F0
F0000000F8
F000000078
F000000078
F000000078
F000000078
F000000078
F000700078
F000700078
F000700078
F000700078
F000700078
F000700078
F000700078
F000700078
F000700078
F000700078
F000700078
F000700078
F000700078
F000700078
F000700078
F000700078
F000700078
F000700078
F000700078
F000700078
F000700078
F000700078
F000700078
F000700078
F000700078
F000700078
F000700078
F000700078
F000700078
F000700078
F000700078
F000700078
F000700078
F000700078
F000000078
F000000078
F000000078
F000000078
F000000078
F0000000F8
F0000000F8
F0000000F8
F0000001F8
F0000003F8
F0000007F8
F000000FF8
F000001FF8
F00000FFF8
FFFFFFFFF8
FFFFFFFFF8
FFFFFFFFF8
FFFFFFFFF8
FFFFFFFFF8
FFFFFFFFF8
FFFFFFFFF0
FFFFFFFFF0
FFFFFFFFF0
FFFFFFFFE0
FFFFFFFFE0
FFFFFFFFC0
FFFFFFFF80
FFFFFFFF00
FFFFFFFE00
FFFFFFFC00
FFFFFFF000
FFFFFF8000
ENDCHAR
STARTCHAR 0045
ENCODING 69
SWIDTH 458 0
DWIDTH 33 0
BBX 37 84 0 -18
BITMAP
000FFF8000
007FFFF000
01FFFFF800
03FFFFFE00
07F800FF00
0FC0003F80
1F80000FC0
3F000007C0
3E000003E0
7C000001E0
78000001F0
78000000F0
F8000000F8
F000000078
F000000078
F000000078
F000000078
F000000078
F000700078
F000700078
F000700078
F000700078
F000700078
F000700078
F000700078
F000700078
F000700078
F000700078
F000700078
F000700078
F000700078
F000700078
F000700078
F000700078
F000700078
F000700078
F000000078
F000000078
F000000078
F000000078
F000000078
F000000078
F000000078
F000000078
F000000078
F000000078
F000000078
F000000078
F000000078
F000000078
F0007FFFF8
F0007FFFF8
F000000078
F000000078
F000000078
F000000078
F000000078
F000000078
F800000078
F800000078
FC00000078
FE00000078
FF00000078
FF80000078
FFC0000078
FFF8000078
FFFFFFFFF8
FFFFFFFFF8
FFFFFFFFF8
FFFFFFFFF8
FFFFFFFFF8
FFFFFFFFF8
7FFFFFFFF8
7FFFFFFFF8
7FFFFFFFF8
3FFFFFFFF8
3FFFFFFFF8
1FFFFFFFF8
0FFFFFFFF8
07FFFFFFF8
03FFFFFFF8
01FFFFFFF8
007FFFFFF8
000FFFFFF8
ENDCHAR
STARTCHAR 0046
ENCODING 70
SWIDTH 486 0
DWIDTH 35 0
BBX 39 84 0 -18
BITMAP
FFFFFFFFFE
FFFFFFFFFE
FFFFFFFFFE
FFFFFFFFFE
F00000001E
F00000001E
F00000001E
F00000001E
F00000001E
F00000001E
F00000001E
F00000001E
F00000001E
F00000001E
F00000001E
F00000001E
F00000001E
F0007FFFFE
F0007FFFFE
F00000001E
F00000001E
F00000001E
F00000001E
F00000001E
F00000001E
F00000001E
F00000001E
F00000001E
F00000001E
F00000001E
F00000001E
F00000001E
F00000001E
F0007FFFFE
F0007FFFFE
F0007FFFFE
F0007FFFFE
F0007FFFFE
F0007FFFFE
F0007FFFFE
F0007FFFFE
F0007FFFFE
F0007FFFFE
F0007FFFFE
F0007FFFFE
F0007FFFFE
F0007FFFFE
F0007FFFFE
F0007FFFFE
F0007FFFFE
F0007FFFFE
F000780000
F000780000
F000780000
F000780000
F000780000
F000780000
F000780000
F000780000
F000780000
F000780000
F000780000
F000780000
F000780000
F000780000
F000780000
FFFFF80000
FFFFF80000
FFFFF80000
FFFFF80000
FFFFF80000
FFFFF80000
FFFFF80000
FFFFF80000
FFFFF80000
FFFFF80000
FFFFF80000
FFFFF80000
FFFFF80000
FFFFF80000
FFFFF80000
FFFFF80000
FFFFF80000
FFFFF80000
ENDCHAR
STARTCHAR 0047
ENCODING 71
SWIDTH 458 0
DWIDTH 33 0
BBX 37 94 0 -28
BITMAP
000FFF8000
007FFFE000
01FFFFF800
03FFFFFE00
07F800FF00
0FC0003F80
1F80000FC0
3F000007C0
3E000003E0
7C000001E0
78000001F0
78000000F0
F8000000F8
F000000078
F000000078
F000000078
F000000078
F000600078
F000600078
F000600078
F000600078
F000600078
F000600078
F000600078
F000600078
F000600078
F000600078
F000600078
F000600078
F0007FFFF8
F0007FFFF8
F000600078
F000600078
F000600078
F000600078
F000600078
F000600078
F000600078
F000600078
F000600078
F000600078
F000600078
F000600078
F000600078
F000600078
F000600078
F000600078
F000600078
F000600078
F000600078
F000600078
F000600078
F000000078
F000000078
F000000078
F000000078
F000000078
F000000078
F800000078
F800000078
FC00000078
FE00000078
FF00000078
FF80000078
FFC0000078
FFF0000078
FFFFE00078
FFFFE00078
FFFFE00078
FFFFE00078
FFFFE00078
FFFFE00078
7FFFE00078
7FFFE00078
7FFFE00078
3FFFE00078
3FFFFFFFF8
1FFFFFFFF8
0FFFFFFFF8
07FFFFFFF8
03FFFFFFF8
01FFFFFFF8
007FFFFFF8
000FFFFFF8
0000FFFFF8
0000FFFFF8
0000FFFFF8
0000FFFFF8
0000FFFFF8
0000FFFFF8
0000FFFFF8
0000FFFFF8
0000FFFFF8
0000FFFFF8
ENDCHAR
STARTCHAR 0048
ENCODING 72
SWIDTH 458 0
DWIDTH 33 0
BBX 37 84 0 -18
BITMAP
FFFFFFFFF8
FFFFFFFFF8
FFFFFFFFF8
FFFFFFFFF8
F000600078
F000600078
F000600078
F000600078
F000600078
F000600078
F000600078
F000600078
F000600078
F000600078
F000600078
F000600078
F000600078
F000600078
F000600078
F000600078
F000600078
F000600078
F000600078
F000600078
F000600078
F000600078
F000000078
F000000078
F000000078
F000000078
F000000078
F000000078
F000000078
F000000078
F000000078
F000000078
F000000078
F000000078
F000000078
F000000078
F000600078
F000600078
F000600078
F000600078
F000600078
F000600078
F000600078
F000600078
F000600078
F000600078
F000600078
F000600078
F000600078
F000600078
F000600078
F000600078
F000600078
F000600078
F000600078
F000600078
F000600078
F000600078
F000600078
F000600078
F000600078
F000600078
FFFFFFFFF8
FFFFFFFFF8
FFFFFFFFF8
FFFFFFFFF8
FFFFFFFFF8
FFFFFFFFF8
FFFFFFFFF8
FFFFFFFFF8
FFFFFFFFF8
FFFFFFFFF8
FFFFFFFFF8
FFFFFFFFF8
FFFFFFFFF8
FFFFFFFFF8
FFFFFFFFF8
FFFFFFFFF8
FFFFFFFFF8
FFFFFFFFF8
ENDCHAR
STARTCHAR 0049
ENCODING 73
SWIDTH 236 0
DWIDTH 17 0
BBX 21 84 0 -18
BITMAP
FFFFF8
FFFFF8
FFFFF8
FFFFF8
F00078
F00078
F00078
F00078
F00078
F00078
F00078
F00078
F00078
F00078
F00078
F00078
F00078
F00078
F00078
F00078
F00078
F00078
F00078
F00078
F00078
F00078
F00078
F00078
F00078
F00078
F00078
F00078
F00078
F00078
F00078
F00078
F00078
F00078
F00078
F00078
F00078
F00078
F00078
F00078
F00078
F00078
F00078
F00078
F00078
F00078
F00078
F00078
F00078
F00078
F00078
F00078
F00078
F00078
F00078
F00078
F00078
F00078
F00078
F00078
F00078
F00078
FFFFF8
FFFFF8
FFFFF8
FFFFF8
FFFFF8
FFFFF8
FFFFF8
FFFFF8
FFFFF8
FFFFF8
FFFFF8
FFFFF8
FFFFF8
FFFFF8
FFFFF8
FFFFF8
FFFFF8
FFFFF8
ENDCHAR
STARTCHAR 004A
ENCODING 74
SWIDTH 458 0
DWIDTH 33 0
BBX 37 84 0 -18
BITMAP
0000FFFFF8
0000FFFFF8
0000FFFFF8
0000FFFFF8
0000F00078
0000F00078
0000F00078
0000F00078
0000F00078
0000F00078
0000F00078
0000F00078
0000F00078
0000F00078
0000F00078
0000F00078
0000F00078
0000F00078
0000F00078
0000F00078
0000F00078
0000F00078
0000F00078
0000F00078
0000F00078
0000F00078
0000F00078
0000F00078
0000F00078
0000F00078
FFFFF00078
FFFFF00078
FFFFF00078
FFFFF00078
F000300078
F000300078
F000300078
F000300078
F000300078
F000300078
F000300078
F000300078
F000300078
F000300078
F000300078
F000300078
F000300078
F000300078
F000300078
F000300078
F000300078
F000300078
F000000078
F000000078
F000000078
F000000078
F000000078
F8000000F8
F8000000F8
F8000001F8
FC000001F8
FE000003F8
FF000007F8
FF80000FF8
FFC0003FF8
FFF000FFF8
FFFFFFFFF8
FFFFFFFFF8
FFFFFFFFF8
FFFFFFFFF8
FFFFFFFFF8
FFFFFFFFF8
7FFFFFFFF0
7FFFFFFFF0
7FFFFFFFF0
3FFFFFFFE0
3FFFFFFFC0
1FFFFFFFC0
0FFFFFFF80
07FFFFFF00
03FFFFFE00
01FFFFF800
007FFFF000
000FFF8000
ENDCHAR
STARTCHAR 004B
ENCODING 75
SWIDTH 458 0
DWIDTH 33 0
BBX 42 84 0 -18
BITMAP
FFFFFFFFFFC0
FFFFFFFFFFC0
FFFFFFFFFF80
FFFFFFFFFF80
F0007C000F80
F0007C000F00
F00078000F00
F00078001F00
F00078001E00
F00070001E00
F00070003E00
F00070003C00
F00060003C00
F00060007C00
F00060007800
F00040007800
F0004000F800
F0004000F000
F0000000F000
F0000001E000
F0000001E000
F0000001E000
F0000003C000
F0000003C000
F0000007C000
F00000078000
F00000078000
F000000F8000
F000000F0000
F000000F0000
F000001F0000
F000001E0000
F000001E0000
F000003E0000
F000003C0000
F000003C0000
F000007E0000
F000007F0000
F000001F8000
F000000FC000
F0000007C000
F0000003E000
F0000001F000
F0000000F000
F0000000F000
F0000000F800
F00000007800
F00000007800
F00000007800
F00000007800
F00060007800
F00060007800
F00060007800
F00060007800
F00060007800
F00060007800
F00060007800
F00060007800
F00060007800
F00060007800
F00060007800
F00060007800
F00060007800
F00060007800
F00060007800
F00060007800
FFFFFFFFF800
FFFFFFFFF800
FFFFFFFFF800
FFFFFFFFF800
FFFFFFFFF800
FFFFFFFFF800
FFFFFFFFF800
FFFFFFFFF800
FFFFFFFFF800
FFFFFFFFF800
FFFFFFFFF800
FFFFFFFFF800
FFFFFFFFF800
FFFFFFFFF800
FFFFFFFFF800
FFFFFFFFF800
FFFFFFFFF800
FFFFFFFFF800
ENDCHAR
STARTCHAR 004C
ENCODING 76
SWIDTH 333 0
DWIDTH 24 0
BBX 28 84 0 -18
BITMAP
FFFFF800
FFFFF800
FFFFF800
FFFFF800
F0007800
F0007800
F0007800
F0007800
F0007800
F0007800
F0007800
F0007800
F0007800
F0007800
F0007800
F0007800
F0007800
F0007800
F0007800
F0007800
F0007800
F0007800
F0007800
F0007800
F0007800
F0007800
F0007800
F0007800
F0007800
F0007800
F0007800
F0007800
F0007800
F0007800
F0007800
F0007800
F0007800
F0007800
F0007800
F0007800
F0007800
F0007800
F0007800
F0007800
F0007800
F0007800
F0007800
F0007800
F0007FF0
F0007FF0
F0007FF0
F0007FF0
F00000F0
F00000F0
F00000F0
F00000F0
F00000F0
F00000F0
F00000F0
F00000F0
F00000F0
F00000F0
F00000F0
F00000F0
F00000F0
F00000F0
FFFFFFF0
FFFFFFF0
FFFFFFF0
FFFFFFF0
FFFFFFF0
FFFFFFF0
FFFFFFF0
FFFFFFF0
FFFFFFF0
FFFFFFF0
FFFFFFF0
FFFFFFF0
FFFFFFF0
FFFFFFF0
FFFFFFF0
FFFFFFF0
FFFFFFF0
FFFFFFF0
ENDCHAR
STARTCHAR 004D
ENCODING 77
SWIDTH 680 0
DWIDTH 49 0
BBX 53 84 0 -18
BITMAP
000FFF8FFF8000
007FFFFFFFF000
01FFFFFFFFF800
03FFFFFFFFFE00
07F8007000FF00
0FC00000003F80
1F800000000FC0
3F0000000007C0
3E0000000003E0
7C0000000001F0
7C0000000001F0
780000000000F0
F80000000000F8
F0000000000078
F0000000000078
F0000000000078
F0000000000078
F0006000300078
F0006000300078
F0006000300078
F0006000300078
F0006000300078
F0006000300078
F0006000300078
F0006000300078
F0006000300078
F0006000300078
F0006000300078
F0006000300078
F0006000300078
F0006000300078
F0006000300078
F0006000300078
F0006000300078
F0006000300078
F0006000300078
F0006000300078
F0006000300078
F0006000300078
F0006000300078
F0006000300078
F0006000300078
F0006000300078
F0006000300078
F0006000300078
F0006000300078
F0006000300078
F0006000300078
F0006000300078
F0006000300078
F0006000300078
F0006000300078
F0006000300078
F0006000300078
F0006000300078
F0006000300078
F0006000300078
F0006000300078
F0006000300078
F0006000300078
F0006000300078
F0006000300078
F0006000300078
F0006000300078
F0006000300078
F0006000300078
FFFFFFFFFFFFF8
FFFFFFFFFFFFF8
FFFFFFFFFFFFF8
FFFFFFFFFFFFF8
FFFFFFFFFFFFF8
FFFFFFFFFFFFF8
FFFFFFFFFFFFF8
FFFFFFFFFFFFF8
FFFFFFFFFFFFF8
FFFFFFFFFFFFF8
FFFFFFFFFFFFF8
FFFFFFFFFFFFF8
FFFFFFFFFFFFF8
FFFFFFFFFFFFF8
FFFFFFFFFFFFF8
FFFFFFFFFFFFF8
FFFFFFFFFFFFF8
FFFFFFFFFFFFF8
ENDCHAR
STARTCHAR 004E
ENCODING 78
SWIDTH 458 0
DWIDTH 33 0
BBX 37 84 0 -18
BITMAP
000FFF8000
007FFFF000
00FFFFF800
03FFFFFE00
07F800FF00
0FC0001F80
1F80000FC0
3F000007C0
3E000003E0
7C000001F0
78000001F0
78000000F0
F8000000F8
F000000078
F000000078
F000000078
F000000078
F000600078
F000600078
F000600078
F000600078
F000600078
F000600078
F000600078
F000600078
F000600078
F000600078
F000600078
F000600078
F000600078
F000600078
F000600078
F000600078
F000600078
F000600078
F000600078
F000600078
F000600078
F000600078
F000600078
F000600078
F000600078
F000600078
F000600078
F000600078
F000600078
F000600078
F000600078
F000600078
F000600078
F000600078
F000600078
F000600078
F000600078
F000600078
F000600078
F000600078
F000600078
F000600078
F000600078
F000600078
F000600078
F000600078
F000600078
F000600078
F000600078
FFFFFFFFF8
FFFFFFFFF8
FFFFFFFFF8
FFFFFFFFF8
FFFFFFFFF8
FFFFFFFFF8
FFFFFFFFF8
FFFFFFFFF8
FFFFFFFFF8
FFFFFFFFF8
FFFFFFFFF8
FFFFFFFFF8
FFFFFFFFF8
FFFFFFFFF8
FFFFFFFFF8
FFFFFFFFF8
FFFFFFFFF8
FFFFFFFFF8
ENDCHAR
STARTCHAR 004F
ENCODING 79
SWIDTH 458 0
DWIDTH 33 0
BBX 37 84 0 -18
BITMAP
000FFF8000
007FFFF000
00FFFFF800
03FFFFFE00
07F800FF00
0FC0001F80
1F80000FC0
3F000007C0
3E000003E0
7C000001F0
78000001F0
78000000F0
F8000000F8
F000000078
F000000078
F000000078
F000000078
F000000078
F000700078
F000700078
F000700078
F000700078
F000700078
F000700078
F000700078
F000700078
F000700078
F000700078
F000700078
F000700078
F000700078
F000700078
F000700078
F000700078
F000700078
F000700078
F000700078
F000700078
F000700078
F000700078
F000700078
F000700078
F000700078
F000700078
F000700078
F000700078
F000700078
F000700078
F000700078
F000700078
F000700078
F000700078
F000000078
F000000078
F000000078
F000000078
F000000078
F8000000F8
F8000000F8
F8000000F8
FC000001F8
FE000003F8
FF000007F8
FF80000FF8
FFC0001FF8
FFF800FFF8
FFFFFFFFF8
FFFFFFFFF8
FFFFFFFFF8
FFFFFFFFF8
FFFFFFFFF8
FFFFFFFFF8
7FFFFFFFF0
7FFFFFFFF0
7FFFFFFFF0
3FFFFFFFE0
3FFFFFFFE0
1FFFFFFFC0
0FFFFFFF80
07FFFFFF00
03FFFFFE00
01FFFFFC00
007FFFF000
000FFF8000
ENDCHAR
STARTCHAR 0050
ENCODING 80
SWIDTH 458 0
DWIDTH 33 0
BBX 37 84 0 -18
BITMAP
FFFFFF8000
FFFFFFF000
FFFFFFF800
FFFFFFFE00
F00000FF00
F000001F80
F000000FC0
F0000007C0
F0000003E0
F0000001F0
F0000000F0
F0000000F0
F0000000F8
F000000078
F000000078
F000000078
F000000078
F000000078
F000700078
F000700078
F000700078
F000700078
F000700078
F000700078
F000700078
F000700078
F000700078
F000700078
F000700078
F000700078
F000700078
F000700078
F000000078
F000000078
F000000078
F000000078
F0000000F8
F0000000F8
F0000000F8
F0000001F8
F0000003F8
F0000007F8
F000000FF8
F000003FF8
F00000FFF8
F0007FFFF8
F0007FFFF8
F0007FFFF8
F0007FFFF8
F0007FFFF8
F0007FFFF8
F0007FFFF0
F0007FFFF0
F0007FFFF0
F0007FFFE0
F0007FFFE0
F0007FFFC0
F0007FFF80
F0007FFF00
F0007FFE00
F0007FFC00
F0007FF000
F0007F8000
F000780000
F000780000
F000780000
FFFFF80000
FFFFF80000
FFFFF80000
FFFFF80000
FFFFF80000
FFFFF80000
FFFFF80000
FFFFF80000
FFFFF80000
FFFFF80000
FFFFF80000
FFFFF80000
FFFFF80000
FFFFF80000
FFFFF80000
FFFFF80000
FFFFF80000
FFFFF80000
ENDCHAR
STARTCHAR 0051
ENCODING 81
SWIDTH 458 0
DWIDTH 33 0
BBX 37 103 0 -37
BITMAP
000FFF8000
007FFFF000
00FFFFF800
03FFFFFE00
07F800FF00
0FC0001F80
1F80000FC0
3F000007C0
3E000003E0
7C000001F0
7C000001F0
78000000F0
F8000000F8
F000000078
F000000078
F000000078
F000000078
F000000078
F000700078
F000700078
F000700078
F000700078
F000700078
F000700078
F000700078
F000700078
F000700078
F000700078
F000700078
F000700078
F000700078
F000700078
F000700078
F000700078
F000700078
F000700078
F000700078
F000700078
F000700078
F000700078
F000700078
F000700078
F000700078
F000700078
F000700078
F000700078
F000700078
F000700078
F000700078
F000700078
F000700078
F000700078
F000000078
F000000078
F000000078
F000000078
F000000078
F8000000F8
F8000000F8
F8000000F8
FC000001F8
FE000003F8
FF000007F8
FF80000FF8
FFC0000078
FFF8000070
FFF8000070
FFF8000060
FFF8000078
FFFC000078
FFFC000078
FFFC000078
FFFE000078
FFFF000078
FFFF800078
FFFFC00078
FFFFE00078
FFFFFC0078
FFFFFFFFF8
7FFFFFFFF8
7FFFFFFFF8
7FFFFFFFF8
3FFFFFFFF8
3FFFFFFFF8
1FFFFFFFF8
0FFFFFFFF8
07FFFFFFF8
03FFFFFFF8
01FFFFFFF8
007FFFFFF8
003FFFFFF8
003FFFFFF8
003FFFFFF8
001FFFFFF8
001FFFFFF8
000FFFFFF8
000FFFFFF8
0007FFFFF8
0003FFFFF8
0001FFFFF8
00007FFFF8
00003FFFF8
000007FFF8
ENDCHAR
STARTCHAR 0052
ENCODING 82
SWIDTH 458 0
DWIDTH 33 0
BBX 37 84 0 -18
BITMAP
FFFFFF8000
FFFFFFF000
FFFFFFF800
FFFFFFFE00
F00000FF00
F000003F80
F000000FC0
F0000007C0
F0000003E0
F0000001E0
F0000001F0
F0000000F0
F0000000F8
F000000078
F000000078
F000000078
F000000078
F000000078
F000700078
F000700078
F000700078
F000700078
F000700078
F000700078
F000700078
F000700078
F000700078
F000700078
F000700078
F000700078
F000700078
F000700078
F000000078
F000000078
F000000078
F000000078
F000000078
F0000000F0
F0000000F0
F0000000F0
F0000001E0
F0000001E0
F0000000F0
F0000000F0
F0000000F0
F0000000F0
F000000078
F000000078
F000000078
F000000078
F000700078
F000700078
F000700078
F000700078
F000700078
F000700078
F000700078
F000700078
F000700078
F000700078
F000700078
F000700078
F000700078
F000700078
F000700078
F000700078
FFFFFFFFF8
FFFFFFFFF8
FFFFFFFFF8
FFFFFFFFF8
FFFFFFFFF8
FFFFFFFFF8
FFFFFFFFF8
FFFFFFFFF8
FFFFFFFFF8
FFFFFFFFF8
FFFFFFFFF8
FFFFFFFFF8
FFFFFFFFF8
FFFFFFFFF8
FFFFFFFFF8
FFFFFFFFF8
FFFFFFFFF8
FFFFFFFFF8
ENDCHAR
STARTCHAR 0053
ENCODING 83
SWIDTH 458 0
DWIDTH 33 0
BBX 37 84 0 -18
BITMAP
000FFF8000
007FFFF000
01FFFFF800
03FFFFFE00
07F800FF00
0FC0003F80
1F80000FC0
3F000007C0
3E000003E0
7C000001E0
78000001F0
F8000000F0
F0000000F0
F000000078
F000000078
F000000078
F000000078
F000600078
F000600078
F000600078
F000600078
F000600078
F000600078
F000600078
F000600078
F000600078
F000600078
F000600078
F000600078
F000600078
F000600078
F000600078
F0007FFFF8
F0007FFFF8
F0003FFFF8
F0001FFFF8
F00007E000
F00001F800
F000007C00
7800003F00
7800000F80
3C000007C0
3E000003C0
1F000001E0
0F800000F0
07E00000F0
03F00000F0
00FC000078
FFFF000078
FFFFE00078
FFFFF00078
FFFFF00078
F000000078
F000000078
F000000078
F000000078
F000000078
F0000000F8
F0000000F8
F0000001F8
F0000001F8
F0000003F8
F0000007F8
F000000FF8
F000003FF8
F00000FFF8
FFFFFFFFF8
FFFFFFFFF8
FFFFFFFFF8
FFFFFFFFF8
FFFFFFFFF8
FFFFFFFFF8
FFFFFFFFF0
FFFFFFFFF0
FFFFFFFFF0
FFFFFFFFE0
FFFFFFFFE0
FFFFFFFFC0
FFFFFFFF80
FFFFFFFF00
FFFFFFFE00
FFFFFFF800
FFFFFFF000
FFFFFF8000
ENDCHAR
STARTCHAR 0054
ENCODING 84
SWIDTH 486 0
DWIDTH 35 0
BBX 39 84 0 -18
BITMAP
FFFFFFFFFE
FFFFFFFFFE
FFFFFFFFFE
FFFFFFFFFE
F00000001E
F00000001E
F00000001E
F00000001E
F00000001E
F00000001E
F00000001E
F00000001E
F00000001E
F00000001E
F00000001E
F00000001E
F00000001E
FFF8003FFE
FFF8003FFE
FFF8003FFE
FFF8003FFE
FFF8003FFE
FFF8003FFE
FFF8003FFE
FFF8003FFE
FFF8003FFE
FFF8003FFE
FFF8003FFE
FFF8003FFE
FFF8003FFE
FFF8003FFE
FFF8003FFE
FFF8003FFE
FFF8003FFE
FFF8003FFE
0078003C00
0078003C00
0078003C00
0078003C00
0078003C00
0078003C00
0078003C00
0078003C00
0078003C00
0078003C00
0078003C00
0078003C00
0078003C00
0078003C00
0078003C00
0078003C00
0078003C00
0078003C00
0078003C00
0078003C00
0078003C00
0078003C00
0078003C00
0078003C00
0078003C00
0078003C00
0078003C00
0078003C00
0078003C00
0078003C00
0078003C00
007FFFFC00
007FFFFC00
007FFFFC00
007FFFFC00
007FFFFC00
007FFFFC00
007FFFFC00
007FFFFC00
007FFFFC00
007FFFFC00
007FFFFC00
007FFFFC00
007FFFFC00
007FFFFC00
007FFFFC00
007FFFFC00
007FFFFC00
007FFFFC00
ENDCHAR
STARTCHAR 0055
ENCODING 85
SWIDTH 458 0
DWIDTH 33 0
BBX 37 84 0 -18
BITMAP
FFFFFFFFF8
FFFFFFFFF8
FFFFFFFFF8
FFFFFFFFF8
F000600078
F000600078
F000600078
F000600078
F000600078
F000600078
F000600078
F000600078
F000600078
F000600078
F000600078
F000600078
F000600078
F000600078
F000600078
F000600078
F000600078
F000600078
F000600078
F000600078
F000600078
F000600078
F000600078
F000600078
F000600078
F000600078
F000600078
F000600078
F000600078
F000600078
F000600078
F000600078
F000600078
F000600078
F000600078
F000600078
F000600078
F000600078
F000600078
F000600078
F000600078
F000600078
F000600078
F000600078
F000600078
F000600078
F000600078
F000600078
F000000078
F000000078
F000000078
F000000078
F000000078
F8000000F8
F8000000F8
F8000000F8
FC000001F8
FE000003F8
FF000007F8
FF80000FF8
FFC0001FF8
FFF800FFF8
FFFFFFFFF8
FFFFFFFFF8
FFFFFFFFF8
FFFFFFFFF8
FFFFFFFFF8
FFFFFFFFF8
7FFFFFFFF0
7FFFFFFFF0
7FFFFFFFF0
3FFFFFFFE0
3FFFFFFFE0
1FFFFFFFC0
0FFFFFFF80
07FFFFFF00
03FFFFFE00
01FFFFFC00
007FFFF000
000FFF8000
ENDCHAR
STARTCHAR 0056
ENCODING 86
SWIDTH 486 0
DWIDTH 35 0
BBX 42 84 0 -18
BITMAP
FFFFFFFFFFC0
FFFFFFFFFFC0
FFFFFFFFFFC0
7FFFFFFFFFC0
78003F000780
78001F000780
78001E000780
78001E000780
78001E000780
3C001E000F00
3C001E000F00
3C000C000F00
3C000C000F00
3C000C000F00
3E000C000F00
1E000C001E00
1E000C001E00
1E0008001E00
1E0008001E00
1E0000001E00
0F0000003E00
0F0000003C00
0F0000003C00
0F0000003C00
0F0000003C00
0F0000003C00
078000007C00
078000007800
078000007800
078000007800
078000007800
078000007800
03C00000F000
03C00000F000
03C00000F000
03C00000F000
03C00000F000
03C00000F000
01E00001E000
01E00001E000
01E00001E000
01E00001E000
01E00001E000
01E00003E000
00F00003C000
00F00003C000
00F00003C000
00F00003C000
00F00003C000
00F00007C000
007800078000
007800078000
007800078000
007800078000
007800078000
007C000F0000
003C000F0000
003C000F0000
003C000F0000
003C000F0000
003C000F0000
003E001E0000
001E001E0000
001E001E0000
001E001E0000
001E001E0000
001FFFFE0000
000FFFFC0000
000FFFFC0000
000FFFFC0000
000FFFFC0000
000FFFFC0000
000FFFFC0000
0007FFF80000
0007FFF80000
0007FFF80000
0007FFF80000
0007FFF80000
0007FFF00000
0003FFF00000
0003FFF00000
0003FFF00000
0003FFF00000
0003FFF00000
ENDCHAR
STARTCHAR 0057
ENCODING 87
SWIDTH 680 0
DWIDTH 49 0
BBX 53 84 0 -18
BITMAP
FFFFFFFFFFFFF8
FFFFFFFFFFFFF8
FFFFFFFFFFFFF8
FFFFFFFFFFFFF8
F0006000300078
F0006000300078
F0006000300078
F0006000300078
F0006000300078
F0006000300078
F0006000300078
F0006000300078
F0006000300078
F0006000300078
F0006000300078
F0006000300078
F0006000300078
F0006000300078
F0006000300078
F0006000300078
F0006000300078
F0006000300078
F0006000300078
F0006000300078
F0006000300078
F0006000300078
F0006000300078
F0006000300078
F0006000300078
F0006000300078
F0006000300078
F0006000300078
F0006000300078
F0006000300078
F0006000300078
F0006000300078
F0006000300078
F0006000300078
F0006000300078
F0006000300078
F0006000300078
F0006000300078
F0006000300078
F0006000300078
F0006000300078
F0006000300078
F0006000300078
F0006000300078
F0006000300078
F0006000300078
F0006000300078
F0006000300078
F0000000000078
F0000000000078
F0000000000078
F0000000000078
F0000000000078
F80000000000F8
F80000000000F8
F80000000001F8
FC0000000001F8
FE0000000003F8
FF0000000007F8
FF800000000FF8
FFC00000001FF8
FFF8007000FFF8
FFFFFFFFFFFFF8
FFFFFFFFFFFFF8
FFFFFFFFFFFFF8
FFFFFFFFFFFFF8
FFFFFFFFFFFFF8
FFFFFFFFFFFFF8
7FFFFFFFFFFFF0
7FFFFFFFFFFFF0
7FFFFFFFFFFFF0
3FFFFFFFFFFFE0
3FFFFFFFFFFFE0
1FFFFFFFFFFFC0
0FFFFFFFFFFF80
07FFFFFFFFFF00
03FFFFFFFFFE00
01FFFFFFFFFC00
007FFFFFFFF000
000FFF8FFF8000
ENDCHAR
STARTCHAR 0058
ENCODING 88
SWIDTH 486 0
DWIDTH 35 0
BBX 47 84 -4 -18
BITMAP
7FFFFFFFFFFC
3FFFFFFFFFF8
3FFFFFFFFFF8
3FFFFFFFFFF8
1E0007C000F0
1E0007C000F0
0F0007C001F0
0F00038001E0
0F00038001E0
0780038003E0
0780010003C0
0780010003C0
03C001000780
03C000000780
03C000000780
01E000000F00
01E000000F00
01F000001F00
00F000001E00
00F000001E00
00F800003E00
007800003C00
007800003C00
007C00007C00
003C00007800
003C00007800
003E0000F800
001E0000F000
001E0000F000
001F0001F000
000F0001E000
000F0001E000
000F8003E000
000F8001E000
000F0001E000
000F0001E000
001F0000F000
001E0000F000
001E0000F000
003E00007800
003C00007800
003C00007C00
007C00003C00
007800003C00
007800003E00
00F000001E00
00F000001E00
00F000001F00
01E000000F00
01E000000F00
01E000000F80
03C000000780
03C000000780
07C0000007C0
0780010003C0
0780018003C0
0F80018003E0
0F00038001E0
0F0003C001E0
1F0003C001F0
1E0007C000F0
1E0007E000F0
3E0007E000F8
3C000FE00078
3C000FF00078
7C000FF0007C
7FFFFFFFFFFC
7FFFFFFFFFFC
FFFFFFFFFFFE
FFFFFFFFFFFE
FFFFFFFFFFFE
FFFFFFFFFFFE
FFFFFFFFFFFE
FFFFFFFFFFFE
FFFFFFFFFFFE
FFFFFFFFFFFE
FFFFFFFFFFFE
FFFFFFFFFFFE
FFFFFFFFFFFE
FFFFFFFFFFFE
FFFFFEFFFFFE
FFFFFEFFFFFE
FFFFFEFFFFFE
FFFFFC7FFFFE
ENDCHAR
STARTCHAR 0059
ENCODING 89
SWIDTH 527 0
DWIDTH 38 0
BBX 44 84 -1 -18
BITMAP
FFFFFFFFFFF0
FFFFFFFFFFE0
7FFFFFFFFFE0
7FFFFFFFFFE0
7C001F0003C0
3C000F0003C0
3C000F0007C0
3E000E000780
1E0006000780
1E0004000F80
1F0004000F00
0F0000000F00
0F0000001E00
0F8000001E00
078000003E00
078000003C00
07C000003C00
03C000007C00
03C000007800
03E000007800
01E00000F800
01E00000F000
00F00000F000
00F00001F000
00F00001E000
00780001E000
00780003E000
00780003C000
003C0003C000
003C00078000
003E00078000
001E000F8000
001E000F0000
001F000F0000
000F000F0000
000F000F0000
000F000F0000
000F000F0000
000F000F0000
000F000F0000
000F000F0000
000F000F0000
000F000F0000
000F000F0000
000F000F0000
000F000F0000
000F000F0000
000F000F0000
000F000F0000
000F000F0000
000F000F0000
000F000F0000
000F000F0000
000F000F0000
000F000F0000
000F000F0000
000F000F0000
000F000F0000
000F000F0000
000F000F0000
000F000F0000
000F000F0000
000F000F0000
000F000F0000
000F000F0000
000F000F0000
000FFFFF0000
000FFFFF0000
000FFFFF0000
000FFFFF0000
000FFFFF0000
000FFFFF0000
000FFFFF0000
000FFFFF0000
000FFFFF0000
000FFFFF0000
000FFFFF0000
000FFFFF0000
000FFFFF0000
000FFFFF0000
000FFFFF0000
000FFFFF0000
000FFFFF0000
000FFFFF0000
ENDCHAR
STARTCHAR 005A
ENCODING 90
SWIDTH 486 0
DWIDTH 35 0
BBX 45 84 -4 -18
BITMAP
0FFFFFFFFFF8
0FFFFFFFFFF8
0FFFFFFFFFF8
0FFFFFFFFFF0
0F00000000F0
0F00000001F0
0F00000001E0
0F00000001E0
0F00000003C0
0F00000003C0
0F00000003C0
0F0000000780
0F0000000780
0F0000000780
0F0000000F00
0F0000000F00
0F0000000F00
0FFFFC001E00
0FFFF8001E00
0FFFF8003E00
0FFFF8003C00
0000F0003C00
0000F0007C00
0001F0007800
0001E0007800
0001E000F800
0003E000F000
0003C000F000
0003C001F000
0007C001E000
00078001E000
00078003E000
000F8003C000
000F0003C000
000F0007C000
001F00078000
001E00078000
001E000F8000
003E000F0000
003C000F0000
003C001F0000
007C001E0000
0078001E0000
0078003E0000
00F8003C0000
00F0003C0000
00F0007C0000
01F000780000
01E0007FFFE0
01E000FFFFE0
03E000FFFFE0
03C000FFFFE0
03C0000001E0
07C0000001E0
0780000001E0
0780000001E0
0F80000001E0
0F00000001E0
0F00000001E0
1F00000001E0
1E00000001E0
1E00000001E0
3E00000001E0
3C00000001E0
3C00000001E0
7C00000001E0
7FFFFFFFFFE0
7FFFFFFFFFE0
FFFFFFFFFFE0
FFFFFFFFFFE0
FFFFFFFFFFE0
FFFFFFFFFFE0
FFFFFFFFFFE0
FFFFFFFFFFE0
FFFFFFFFFFE0
FFFFFFFFFFE0
FFFFFFFFFFE0
FFFFFFFFFFE0
FFFFFFFFFFE0
FFFFFFFFFFE0
FFFFFFFFFFE0
FFFFFFFFFFE0
FFFFFFFFFFE0
FFFFFFFFFFE0
ENDCHAR
STARTCHAR 005B
ENCODING 91
SWIDTH 375 0
DWIDTH 27 0
BBX 31 84 0 -18
BITMAP
FFFFFFFE
FFFFFFFE
FFFFFFFE
FFFFFFFE
F000001E
F000001E
F000001E
F000001E
F000001E
F000001E
F000001E
F000001E
F000001E
F000001E
F000001E
F000001E
F000001E
F0007FFE
F0007FFE
F0007FFE
F0007FFE
F0007FFE
F0007FFE
F0007FFE
F0007FFE
F0007FFE
F0007FFE
F0007FFE
F0007FFE
F0007FFE
F0007FFE
F0007FFE
F0007FFE
F0007FFE
F0007FFE
F0007800
F0007800
F0007800
F0007800
F0007800
F0007800
F0007800
F0007800
F0007800
F0007800
F0007800
F0007800
F0007800
F0007FFE
F0007FFE
F0007FFE
F0007FFE
F000001E
F000001E
F000001E
F000001E
F000001E
F000001E
F000001E
F000001E
F000001E
F000001E
F000001E
F000001E
F000001E
F000001E
FFFFFFFE
FFFFFFFE
FFFFFFFE
FFFFFFFE
FFFFFFFE
FFFFFFFE
FFFFFFFE
FFFFFFFE
FFFFFFFE
FFFFFFFE
FFFFFFFE
FFFFFFFE
FFFFFFFE
FFFFFFFE
FFFFFFFE
FFFFFFFE
FFFFFFFE
FFFFFFFE
ENDCHAR
STARTCHAR 005C
ENCODING 92
SWIDTH 486 0
DWIDTH 35 0
BBX 46 84 -3 -17
BITMAP
FFFFFC000000
FFFFFE000000
7FFFFE000000
78000E000000
78000F000000
3C000F000000
3C0007000000
3C0007800000
3E0007800000
1E0003800000
1E0003C00000
1F0003C00000
0F0001E00000
0F0001E00000
0F8001E00000
0F8000F00000
078000F00000
07C000F00000
07C000780000
03C000780000
03E000780000
03E0003C0000
03E0003C0000
01F0003C0000
01F0001E0000
01F0001E0000
00F8001E0000
00F8000F0000
00F8000F0000
00FC000F0000
007C00078000
007C00078000
007E00078000
003E0003C000
003E0003C000
003F0001C000
003F0001E000
001F0001E000
001F8000E000
001F8000F000
000F8000F000
000FC0007000
000FC0007800
000FC0007800
0007E0003800
0007E0003C00
0007F0003C00
0003F0001C00
0003F0001E00
0003F8001E00
0003F8000E00
0001F8000F00
0001FC000F00
0001FC000700
0001FC000780
0000FE000780
0000FE000380
0000FE0003C0
00007F0003C0
00007F0001C0
00007F0001E0
00007F8001E0
00003F8000F0
00003F8000F0
00003FC000F0
00001FC00078
00001FFFFFF8
00001FFFFFF8
00001FFFFFFC
00000FFFFFFC
00000FFFFFFC
00000FFFFFFC
000007FFFFFC
000007FFFFFC
000007FFFFFC
000007FFFFFC
000003FFFFFC
000003FFFFFC
000003FFFFFC
000001FFFFFC
000001FFFFFC
000001FFFFFC
000001FFFFFC
000000FFFFFC
ENDCHAR
STARTCHAR 005D
ENCODING 93
SWIDTH 375 0
DWIDTH 27 0
BBX 31 84 0 -18
BITMAP
FFFFFFFE
FFFFFFFE
FFFFFFFE
FFFFFFFE
F000001E
F000001E
F000001E
F000001E
F000001E
F000001E
F000001E
F000001E
F000001E
F000001E
F000001E
F000001E
F000001E
FFFC001E
FFFC001E
FFFC001E
FFFC001E
FFFC001E
FFFC001E
FFFC001E
FFFC001E
FFFC001E
FFFC001E
FFFC001E
FFFC001E
FFFC001E
FFFC001E
FFFC001E
FFFC001E
FFFC001E
FFFC001E
003C001E
003C001E
003C001E
003C001E
003C001E
003C001E
003C001E
003C001E
003C001E
003C001E
003C001E
003C001E
003C001E
FFFC001E
FFFC001E
FFFC001E
FFFC001E
F000001E
F000001E
F000001E
F000001E
F000001E
F000001E
F000001E
F000001E
F000001E
F000001E
F000001E
F000001E
F000001E
F000001E
FFFFFFFE
FFFFFFFE
FFFFFFFE
FFFFFFFE
FFFFFFFE
FFFFFFFE
FFFFFFFE
FFFFFFFE
FFFFFFFE
FFFFFFFE
FFFFFFFE
FFFFFFFE
FFFFFFFE
FFFFFFFE
FFFFFFFE
FFFFFFFE
FFFFFFFE
FFFFFFFE
ENDCHAR
STARTCHAR 005E
ENCODING 94
SWIDTH 430 0
DWIDTH 31 0
BBX 36 42 0 21
BITMAP
0007FF0000
000FFF8000
001FFFC000
003FFFE000
00FC03F000
01F801F800
03F000FC00
07E0007E00
0FC0003F00
1F80001F80
3F00000FC0
7E000007E0
FC000003F0
FE000007F0
FF00000FF0
FF80000FF0
FFC0001FF0
FFE0003FF0
FFF0007FF0
FFF800FFF0
FFFC61FFF0
FFFEF3FFF0
FFFFFFFFF0
FFFFFFFFF0
FFFFFFFFF0
FFFFFFFFF0
FFFFFFFFF0
7FFFFFFFE0
3FFFFFFFC0
1FFFFFFF80
0FFFFFFF00
07FFFFFE00
03FFFFFC00
01FFFFF800
00FFFFF000
007FFFF000
003FFFE000
001FFFC000
000FFF8000
00079F0000
00030E0000
0001040000
ENDCHAR
STARTCHAR 005F
ENCODING 95
SWIDTH 486 0
DWIDTH 35 0
BBX 39 35 0 -18
BITMAP
FFFFFFFFFE
FFFFFFFFFE
FFFFFFFFFE
FFFFFFFFFE
F00000001E
F00000001E
F00000001E
F00000001E
F00000001E
F00000001E
F00000001E
F00000001E
F00000001E
F00000001E
F00000001E
F00000001E
F00000001E
FFFFFFFFFE
FFFFFFFFFE
FFFFFFFFFE
FFFFFFFFFE
FFFFFFFFFE
FFFFFFFFFE
FFFFFFFFFE
FFFFFFFFFE
FFFFFFFFFE
FFFFFFFFFE
FFFFFFFFFE
FFFFFFFFFE
FFFFFFFFFE
FFFFFFFFFE
FFFFFFFFFE
FFFFFFFFFE
FFFFFFFFFE
FFFFFFFFFE
ENDCHAR
STARTCHAR 0060
ENCODING 96
SWIDTH 319 0
DWIDTH 23 0
BBX 37 27 -6 46
BITMAP
FFFFFE0000
FFFFFF0000
7FFFFF0000
7C00038000
3C00038000
1E0001C000
1E0001C000
0F0000E000
0F8000E000
0780007000
07C0003000
03C0003800
03E0001C00
01E0001C00
01F0000E00
00F0000E00
0078000700
0078000700
003C000380
003E000380
001E0001C0
001F0000E0
000F0000E0
000FFFFFF0
0007FFFFF0
0003FFFFF8
0003FFFFF8
ENDCHAR
STARTCHAR 0061
ENCODING 97
SWIDTH 458 0
DWIDTH 33 0
BBX 37 84 0 -18
BITMAP
FFFFFF8000
FFFFFFF000
FFFFFFF800
FFFFFFFE00
F00000FF00
F000003F80
F000000FC0
F0000007C0
F0000003E0
F0000001E0
F0000001F0
F0000000F0
F0000000F8
F000000078
F000000078
F000000078
F000000078
FFFFF00078
FFFFF00078
FFF8000078
FFE0000078
0F80000078
1F00000078
1E00000078
3C00000078
7C00000078
7800000078
7800000078
F000000078
F000000078
F000000078
F000000078
F000000078
F000700078
F000700078
F000700078
F000700078
F000700078
F000700078
F000700078
F000700078
F000700078
F000700078
F000700078
F000700078
F000700078
F000700078
F000700078
F000700078
F000700078
F000700078
F000700078
F000000078
F000000078
F000000078
F000000078
F000000078
F800000078
F800000078
F800000078
FC00000078
FE00000078
FF00000078
FF80000078
FFC0000078
FFF8000078
FFFFFFFFF8
FFFFFFFFF8
FFFFFFFFF8
FFFFFFFFF8
FFFFFFFFF8
FFFFFFFFF8
7FFFFFFFF8
7FFFFFFFF8
7FFFFFFFF8
3FFFFFFFF8
3FFFFFFFF8
1FFFFFFFF8
0FFFFFFFF8
07FFFFFFF8
03FFFFFFF8
01FFFFFFF8
007FFFFFF8
000FFFFFF8
ENDCHAR
STARTCHAR 0062
ENCODING 98
SWIDTH 458 0
DWIDTH 33 0
BBX 37 84 0 -18
BITMAP
FFFFFF0000
FFFFFFE000
FFFFFFF800
FFFFFFFC00
F00000FF00
F000003F00
F000000F80
F0000007C0
F0000003E0
F0000001E0
F0000001F0
F0000000F0
F0000000F0
F0000000F0
F0000000F0
F000000078
F000000078
F000000078
F000700078
F000700078
F000700078
F000700078
F000700078
F000700078
F000700078
F000700078
F000700078
F000000078
F000000078
F000000078
F000000078
F000000078
F0000000F0
F0000000F0
F0000000F0
F0000000F0
F000000078
F000000078
F000000078
F000000078
F000000078
F000700078
F000700078
F000700078
F000700078
F000700078
F000700078
F000700078
F000700078
F000700078
F000700078
F000700078
F000000078
F000000078
F000000078
F000000078
F000000078
F0000000F8
F0000000F8
F0000001F8
F0000001F8
F0000003F8
F0000007F8
F000000FF8
F000001FF8
F00000FFF8
FFFFFFFFF8
FFFFFFFFF8
FFFFFFFFF8
FFFFFFFFF8
FFFFFFFFF8
FFFFFFFFF8
FFFFFFFFF0
FFFFFFFFF0
FFFFFFFFF0
FFFFFFFFE0
FFFFFFFFC0
FFFFFFFFC0
FFFFFFFF80
FFFFFFFF00
FFFFFFFE00
FFFFFFF800
FFFFFFF000
FFFFFF8000
ENDCHAR
STARTCHAR 0063
ENCODING 99
SWIDTH 458 0
DWIDTH 33 0
BBX 37 84 0 -18
BITMAP
000FFF8000
007FFFF000
01FFFFF800
03FFFFFE00
07F800FF00
0FC0003F80
1F80000FC0
3F000007C0
3E000003E0
7C000001E0
78000001F0
78000000F0
F8000000F8
F000000078
F000000078
F000000078
F000000078
F000600078
F000600078
F000600078
F000600078
F000600078
F000600078
F000600078
F000600078
F000600078
F000600078
F000600078
F000600078
F000600078
F000600078
F000600078
F000600078
F000600078
F000600078
F000600078
F0007FFFF8
F0007FFFF8
F0007FFFF8
F000600078
F000600078
F000600078
F000600078
F000600078
F000600078
F000600078
F000600078
F000600078
F000600078
F000600078
F000600078
F000600078
F000000078
F000000078
F000000078
F000000078
F000000078
F0000000F8
F8000000F8
F8000001F8
FC000001F8
FE000003F8
FF000007F8
FF80000FF8
FFC0001FF8
FFF800FFF8
FFFFFFFFF8
FFFFFFFFF8
FFFFFFFFF8
FFFFFFFFF8
FFFFFFFFF8
FFFFFFFFF8
7FFFFFFFF0
7FFFFFFFF0
7FFFFFFFF0
3FFFFFFFE0
3FFFFFFFC0
1FFFFFFFC0
0FFFFFFF80
07FFFFFF00
03FFFFFE00
01FFFFF800
007FFFF000
000FFF8000
ENDCHAR
STARTCHAR 0064
ENCODING 100
SWIDTH 458 0
DWIDTH 33 0
BBX 37 84 0 -18
BITMAP
FFFFFF8000
FFFFFFF000
FFFFFFF800
FFFFFFFE00
F00000FF00
F000003F80
F000000FC0
F0000007C0
F0000003E0
F0000001E0
F0000001F0
F0000000F0
F0000000F8
F000000078
F000000078
F000000078
F000000078
F000000078
F000700078
F000700078
F000700078
F000700078
F000700078
F000700078
F000700078
F000700078
F000700078
F000700078
F000700078
F000700078
F000700078
F000700078
F000700078
F000700078
F000700078
F000700078
F000700078
F000700078
F000700078
F000700078
F000700078
F000700078
F000700078
F000700078
F000700078
F000700078
F000700078
F000700078
F000700078
F000700078
F000700078
F000700078
F000000078
F000000078
F000000078
F000000078
F000000078
F0000000F8
F0000000F8
F0000001F8
F0000001F8
F0000003F8
F0000007F8
F000000FF8
F000001FF8
F00000FFF8
FFFFFFFFF8
FFFFFFFFF8
FFFFFFFFF8
FFFFFFFFF8
FFFFFFFFF8
FFFFFFFFF8
FFFFFFFFF0
FFFFFFFFF0
FFFFFFFFF0
FFFFFFFFE0
FFFFFFFFC0
FFFFFFFFC0
FFFFFFFF80
FFFFFFFF00
FFFFFFFE00
FFFFFFF800
FFFFFFF000
FFFFFF8000
ENDCHAR
STARTCHAR 0065
ENCODING 101
SWIDTH 458 0
DWIDTH 33 0
BBX 37 84 0 -18
BITMAP
000FFF8000
007FFFF000
01FFFFF800
03FFFFFE00
07F800FF00
0FC0003F80
1F80000FC0
3F000007C0
3E000003E0
7C000001E0
78000001F0
78000000F0
F8000000F8
F000000078
F000000078
F000000078
F000000078
F000000078
F000700078
F000700078
F000700078
F000700078
F000700078
F000700078
F000700078
F000700078
F000700078
F000700078
F000700078
F000000078
F000000078
F000000078
F000000078
F000000078
F000000078
F000000078
F000000078
F000000078
F000000078
F000000078
F000000078
F000000078
F000000078
F0007FFFF8
F0007FFFF8
F000700078
F000700078
F000700078
F000700078
F000700078
F000700078
F000700078
F000000078
F000000078
F000000078
F000000078
F0000000F8
F0000000F8
F8000000F8
F8000001F8
FC000001F8
FE000003F8
FF000007F8
FF80000FF8
FFC0003FF8
FFF800FFF8
FFFFFFFFF8
FFFFFFFFF8
FFFFFFFFF8
FFFFFFFFF8
FFFFFFFFF8
FFFFFFFFF8
7FFFFFFFF0
7FFFFFFFF0
7FFFFFFFF0
3FFFFFFFE0
3FFFFFFFC0
1FFFFFFFC0
0FFFFFFF80
07FFFFFF00
03FFFFFE00
01FFFFF800
007FFFF000
000FFF8000
ENDCHAR
STARTCHAR 0066
ENCODING 102
SWIDTH 472 0
DWIDTH 34 0
BBX 37 84 0 -18
BITMAP
000FFF8000
007FFFF000
00FFFFF800
03FFFFFE00
07F800FF00
0FC0001F80
1F80000FC0
3F000007C0
3E000003E0
7C000001F0
78000001F0
78000000F0
F8000000F8
F000000078
F000000078
F000000078
F000000078
F000000078
F000600078
F000600078
F000600078
F000600078
F000600078
F000600078
F000600078
F000600078
F000600078
F000600078
F000600078
F000600078
F000600078
F000600078
F000600078
F000600078
F000600078
F000600078
F0007FFFF8
F0007FFFF8
F0007FFFF8
F000000078
F000000078
F000000078
F000000078
F000000078
F000000078
F000000078
F000000078
F000000078
F000000078
F000000078
F000000078
F000000078
F0007FFFF8
F0007FFFF8
F0007FFFF8
F0007FFFF8
F0007FFFF8
F0007FFFF8
F0007FFFF8
F0007FFFF8
F0007FFFF8
F0007FFFF8
F0007FFFF8
F0007FFFF8
F0007FFFF8
F0007FFFF8
FFFFFFFFF8
FFFFFFFFF8
FFFFFFFFF8
FFFFFFFFF8
FFFFF80000
FFFFF80000
FFFFF80000
FFFFF80000
FFFFF80000
FFFFF80000
FFFFF80000
FFFFF80000
FFFFF80000
FFFFF80000
FFFFF80000
FFFFF80000
FFFFF80000
FFFFF80000
ENDCHAR
STARTCHAR 0067
ENCODING 103
SWIDTH 458 0
DWIDTH 33 0
BBX 37 84 0 -18
BITMAP
000FFFFFF8
007FFFFFF8
01FFFFFFF8
03FFFFFFF8
07F8000078
0FC0000078
1F80000078
3F00000078
3E00000078
7C00000078
7800000078
F800000078
F800000078
F000000078
F000000078
F000000078
F000000078
F000000078
F000700078
F000700078
F000700078
F000700078
F000700078
F000700078
F000700078
F000700078
F000700078
F000700078
F000700078
F000700078
F000700078
F000700078
F000700078
F000700078
F000700078
F000700078
F000000078
F000000078
F000000078
F000000078
F000000078
7800000078
7800000078
7800000078
3C00000078
1E00000078
1F00000078
0F80000078
FFC0000078
FFF8000078
FFFFF00078
FFFFF00078
F000000078
F000000078
F000000078
F000000078
F000000078
F0000000F8
F0000000F8
F0000001F8
F0000001F8
F0000003F8
F0000007F8
F000000FF8
F000001FF8
F00000FFF8
FFFFFFFFF8
FFFFFFFFF8
FFFFFFFFF8
FFFFFFFFF8
FFFFFFFFF8
FFFFFFFFF8
FFFFFFFFF0
FFFFFFFFF0
FFFFFFFFF0
FFFFFFFFE0
FFFFFFFFC0
FFFFFFFFC0
FFFFFFFF80
FFFFFFFF00
FFFFFFFE00
FFFFFFF800
FFFFFFF000
FFFFFF8000
ENDCHAR
STARTCHAR 0068
ENCODING 104
SWIDTH 458 0
DWIDTH 33 0
BBX 37 84 0 -18
BITMAP
FFFFFFFFF8
FFFFFFFFF8
FFFFFFFFF8
FFFFFFFFF8
F000600078
F000600078
F000600078
F000600078
F000600078
F000600078
F000600078
F000600078
F000600078
F000600078
F000600078
F000600078
F000600078
F000600078
F000600078
F000600078
F000600078
F000600078
F000600078
F000600078
F000600078
F000600078
F000000078
F000000078
F000000078
F000000078
F000000078
F000000078
F000000078
F000000078
F000000078
F000000078
F000000078
F000000078
F000000078
F000000078
F000600078
F000600078
F000600078
F000600078
F000600078
F000600078
F000600078
F000600078
F000600078
F000600078
F000600078
F000600078
F000600078
F000600078
F000600078
F000600078
F000600078
F000600078
F000600078
F000600078
F000600078
F000600078
F000600078
F000600078
F000600078
F000600078
FFFFFFFFF8
FFFFFFFFF8
FFFFFFFFF8
FFFFFFFFF8
FFFFFFFFF8
FFFFFFFFF8
FFFFFFFFF8
FFFFFFFFF8
FFFFFFFFF8
FFFFFFFFF8
FFFFFFFFF8
FFFFFFFFF8
FFFFFFFFF8
FFFFFFFFF8
FFFFFFFFF8
FFFFFFFFF8
FFFFFFFFF8
FFFFFFFFF8
ENDCHAR
STARTCHAR 0069
ENCODING 105
SWIDTH 250 0
DWIDTH 18 0
BBX 21 84 0 -18
BITMAP
FFFFF8
FFFFF8
FFFFF8
FFFFF8
F00078
F00078
F00078
F00078
F00078
F00078
F00078
F00078
F00078
F00078
F00078
F00078
F00078
FFFFF8
FFFFF8
F00078
F00078
F00078
F00078
F00078
F00078
F00078
F00078
F00078
F00078
F00078
F00078
F00078
F00078
F00078
F00078
F00078
F00078
F00078
F00078
F00078
F00078
F00078
F00078
F00078
F00078
F00078
F00078
F00078
F00078
F00078
F00078
F00078
F00078
F00078
F00078
F00078
F00078
F00078
F00078
F00078
F00078
F00078
F00078
F00078
F00078
F00078
FFFFF8
FFFFF8
FFFFF8
FFFFF8
FFFFF8
FFFFF8
FFFFF8
FFFFF8
FFFFF8
FFFFF8
FFFFF8
FFFFF8
FFFFF8
FFFFF8
FFFFF8
FFFFF8
FFFFF8
FFFFF8
ENDCHAR
STARTCHAR 006A
ENCODING 106
SWIDTH 458 0
DWIDTH 33 0
BBX 37 84 0 -18
BITMAP
0000FFFFF8
0000FFFFF8
0000FFFFF8
0000FFFFF8
0000F00078
0000F00078
0000F00078
0000F00078
0000F00078
0000F00078
0000F00078
0000F00078
0000F00078
0000F00078
0000F00078
0000F00078
0000F00078
0000FFFFF8
0000FFFFF8
0000F00078
0000F00078
0000F00078
0000F00078
0000F00078
0000F00078
0000F00078
0000F00078
0000F00078
0000F00078
0000F00078
FFFFF00078
FFFFF00078
FFFFF00078
FFFFF00078
F000300078
F000300078
F000300078
F000300078
F000300078
F000300078
F000300078
F000300078
F000300078
F000300078
F000300078
F000300078
F000300078
F000300078
F000300078
F000300078
F000300078
F000300078
F000000078
F000000078
F000000078
F000000078
F000000078
F8000000F8
F8000000F8
F8000001F8
FC000001F8
FE000003F8
FF000007F8
FF80000FF8
FFC0003FF8
FFF000FFF8
FFFFFFFFF8
FFFFFFFFF8
FFFFFFFFF8
FFFFFFFFF8
FFFFFFFFF8
FFFFFFFFF8
7FFFFFFFF0
7FFFFFFFF0
7FFFFFFFF0
3FFFFFFFE0
3FFFFFFFC0
1FFFFFFFC0
0FFFFFFF80
07FFFFFF00
03FFFFFE00
01FFFFF800
007FFFF000
000FFF8000
ENDCHAR
STARTCHAR 006B
ENCODING 107
SWIDTH 527 0
DWIDTH 38 0
BBX 47 84 0 -18
BITMAP
FFFFFFFFFFF8
FFFFFFFFFFF8
FFFFFFFFFFF0
FFFFFFFFFFE0
F0007C0003E0
F000780007C0
F00070000780
F00070000F80
F00060001F00
F00040001E00
F00000003E00
F00000007C00
F00000007800
F0000000F800
F0000001F000
F0000001E000
F0000003E000
F0000007C000
F0000007C000
F000000F8000
F000001F0000
F000001F0000
F000003E0000
F000007C0000
F000007C0000
F00000F80000
F00000F00000
F00001F00000
F00003E00000
F00003C00000
F00007C00000
F0000F800000
F0000F000000
F0001F000000
F0000F800000
F00007800000
F00007C00000
F00003E00000
F00001E00000
F00001F00000
F00000F80000
F00000780000
F000007C0000
F000003E0000
F000001E0000
F000001F0000
F000000F8000
F000000F8000
F0000007C000
F0000003C000
F0000003E000
F0000001F000
F0000000F000
F0000000F800
F00000007C00
F00040003C00
F00040003E00
F00060001F00
F00070000F00
F00070000F80
F000780007C0
F0007C0007C0
F0007C0003E0
F0007E0001F0
F0007F0001F0
F0007F0000F8
FFFFFFFFFFF8
FFFFFFFFFFFC
FFFFFFFFFFFE
FFFFFFFFFFFE
FFFFFFFFFFFE
FFFFFFFFFFFE
FFFFFFFFFFFE
FFFFFFFFFFFE
FFFFFFFFFFFE
FFFFFFFFFFFE
FFFFFFFFFFFE
FFFFFFFFFFFE
FFFFFFFFFFFE
FFFFFFFFFFFE
FFFFFFFFFFFE
FFFFFFFFFFFE
FFFFFBFFFFFE
FFFFF9FFFFFE
ENDCHAR
STARTCHAR 006C
ENCODING 108
SWIDTH 333 0
DWIDTH 24 0
BBX 28 84 0 -18
BITMAP
FFFFF800
FFFFF800
FFFFF800
FFFFF800
F0007800
F0007800
F0007800
F0007800
F0007800
F0007800
F0007800
F0007800
F0007800
F0007800
F0007800
F0007800
F0007800
F0007800
F0007800
F0007800
F0007800
F0007800
F0007800
F0007800
F0007800
F0007800
F0007800
F0007800
F0007800
F0007800
F0007800
F0007800
F0007800
F0007800
F0007800
F0007800
F0007800
F0007800
F0007800
F0007800
F0007800
F0007800
F0007800
F0007800
F0007800
F0007800
F0007800
F0007800
F0007FF0
F0007FF0
F0007FF0
F0007FF0
F00000F0
F00000F0
F00000F0
F00000F0
F00000F0
F00000F0
F00000F0
F00000F0
F00000F0
F00000F0
F00000F0
F00000F0
F00000F0
F00000F0
FFFFFFF0
FFFFFFF0
FFFFFFF0
FFFFFFF0
FFFFFFF0
FFFFFFF0
FFFFFFF0
FFFFFFF0
FFFFFFF0
FFFFFFF0
FFFFFFF0
FFFFFFF0
FFFFFFF0
FFFFFFF0
FFFFFFF0
FFFFFFF0
FFFFFFF0
FFFFFFF0
ENDCHAR
STARTCHAR 006D
ENCODING 109
SWIDTH 680 0
DWIDTH 49 0
BBX 53 84 0 -18
BITMAP
000FFF8FFF8000
007FFFFFFFF000
01FFFFFFFFF800
03FFFFFFFFFE00
07F8007000FF00
0FC00000003F80
1F800000000FC0
3F0000000007C0
3E0000000003E0
7C0000000001F0
780000000001F0
780000000000F0
F80000000000F8
F0000000000078
F0000000000078
F0000000000078
F0000000000078
F0006000300078
F0006000300078
F0006000300078
F0006000300078
F0006000300078
F0006000300078
F0006000300078
F0006000300078
F0006000300078
F0006000300078
F0006000300078
F0006000300078
F0006000300078
F0006000300078
F0006000300078
F0006000300078
F0006000300078
F0006000300078
F0006000300078
F0006000300078
F0006000300078
F0006000300078
F0006000300078
F0006000300078
F0006000300078
F0006000300078
F0006000300078
F0006000300078
F0006000300078
F0006000300078
F0006000300078
F0006000300078
F0006000300078
F0006000300078
F0006000300078
F0006000300078
F0006000300078
F0006000300078
F0006000300078
F0006000300078
F0006000300078
F0006000300078
F0006000300078
F0006000300078
F0006000300078
F0006000300078
F0006000300078
F0006000300078
F0006000300078
FFFFFFFFFFFFF8
FFFFFFFFFFFFF8
FFFFFFFFFFFFF8
FFFFFFFFFFFFF8
FFFFFFFFFFFFF8
FFFFFFFFFFFFF8
FFFFFFFFFFFFF8
FFFFFFFFFFFFF8
FFFFFFFFFFFFF8
FFFFFFFFFFFFF8
FFFFFFFFFFFFF8
FFFFFFFFFFFFF8
FFFFFFFFFFFFF8
FFFFFFFFFFFFF8
FFFFFFFFFFFFF8
FFFFFFFFFFFFF8
FFFFFFFFFFFFF8
FFFFFFFFFFFFF8
ENDCHAR
STARTCHAR 006E
ENCODING 110
SWIDTH 458 0
DWIDTH 33 0
BBX 37 84 0 -18
BITMAP
000FFF8000
007FFFF000
01FFFFF800
03FFFFFE00
07F800FF00
0FC0003F80
1F80000FC0
3F000007C0
3E000003E0
7C000001E0
78000001F0
78000000F0
F8000000F8
F000000078
F000000078
F000000078
F000000078
F000600078
F000600078
F000600078
F000600078
F000600078
F000600078
F000600078
F000600078
F000600078
F000600078
F000600078
F000600078
F000600078
F000600078
F000600078
F000600078
F000600078
F000600078
F000600078
F000600078
F000600078
F000600078
F000600078
F000600078
F000600078
F000600078
F000600078
F000600078
F000600078
F000600078
F000600078
F000600078
F000600078
F000600078
F000600078
F000600078
F000600078
F000600078
F000600078
F000600078
F000600078
F000600078
F000600078
F000600078
F000600078
F000600078
F000600078
F000600078
F000600078
FFFFFFFFF8
FFFFFFFFF8
FFFFFFFFF8
FFFFFFFFF8
FFFFFFFFF8
FFFFFFFFF8
FFFFFFFFF8
FFFFFFFFF8
FFFFFFFFF8
FFFFFFFFF8
FFFFFFFFF8
FFFFFFFFF8
FFFFFFFFF8
FFFFFFFFF8
FFFFFFFFF8
FFFFFFFFF8
FFFFFFFFF8
FFFFFFFFF8
ENDCHAR
STARTCHAR 006F
ENCODING 111
SWIDTH 458 0
DWIDTH 33 0
BBX 37 84 0 -18
BITMAP
000FFF8000
007FFFF000
01FFFFF800
03FFFFFE00
07F800FF00
0FC0003F80
1F80000FC0
3F000007C0
3E000003E0
7C000001E0
78000001F0
78000000F0
F8000000F8
F000000078
F000000078
F000000078
F000000078
F000000078
F000700078
F000700078
F000700078
F000700078
F000700078
F000700078
F000700078
F000700078
F000700078
F000700078
F000700078
F000700078
F000700078
F000700078
F000700078
F000700078
F000700078
F000700078
F000700078
F000700078
F000700078
F000700078
F000700078
F000700078
F000700078
F000700078
F000700078
F000700078
F000700078
F000700078
F000700078
F000700078
F000700078
F000700078
F000000078
F000000078
F000000078
F000000078
F000000078
F0000000F8
F8000000F8
F8000001F8
FC000001F8
FE000003F8
FF000007F8
FF80000FF8
FFC0001FF8
FFF800FFF8
FFFFFFFFF8
FFFFFFFFF8
FFFFFFFFF8
FFFFFFFFF8
FFFFFFFFF8
FFFFFFFFF8
7FFFFFFFF0
7FFFFFFFF0
7FFFFFFFF0
3FFFFFFFE0
3FFFFFFFC0
1FFFFFFFC0
0FFFFFFF80
07FFFFFF00
03FFFFFE00
01FFFFF800
007FFFF000
000FFF8000
ENDCHAR
STARTCHAR 0070
ENCODING 112
SWIDTH 458 0
DWIDTH 33 0
BBX 37 84 0 -18
BITMAP
FFFFFF8000
FFFFFFF000
FFFFFFF800
FFFFFFFE00
F00000FF00
F000003F80
F000000FC0
F0000007C0
F0000003E0
F0000001F0
F0000001F0
F0000000F0
F0000000F8
F000000078
F000000078
F000000078
F000000078
F000000078
F000700078
F000700078
F000700078
F000700078
F000700078
F000700078
F000700078
F000700078
F000700078
F000700078
F000700078
F000700078
F000700078
F000700078
F000000078
F000000078
F000000078
F000000078
F0000000F8
F0000000F8
F0000001F8
F0000001F8
F0000003F8
F0000007F8
F000000FF8
F000003FF8
F00000FFF8
F0007FFFF8
F0007FFFF8
F0007FFFF8
F0007FFFF8
F0007FFFF8
F0007FFFF8
F0007FFFF0
F0007FFFF0
F0007FFFF0
F0007FFFE0
F0007FFFE0
F0007FFFC0
F0007FFF80
F0007FFF00
F0007FFE00
F0007FFC00
F0007FF000
F0007F8000
F000780000
F000780000
F000780000
FFFFF80000
FFFFF80000
FFFFF80000
FFFFF80000
FFFFF80000
FFFFF80000
FFFFF80000
FFFFF80000
FFFFF80000
FFFFF80000
FFFFF80000
FFFFF80000
FFFFF80000
FFFFF80000
FFFFF80000
FFFFF80000
FFFFF80000
FFFFF80000
ENDCHAR
STARTCHAR 0071
ENCODING 113
SWIDTH 458 0
DWIDTH 33 0
BBX 37 103 0 -37
BITMAP
000FFF8000
007FFFF000
01FFFFF800
03FFFFFE00
07F800FF00
0FC0003F80
1F80000FC0
3F000007C0
3E000003E0
7C000001E0
78000001F0
78000000F0
F8000000F8
F000000078
F000000078
F000000078
F000000078
F000000078
F000700078
F000700078
F000700078
F000700078
F000700078
F000700078
F000700078
F000700078
F000700078
F000700078
F000700078
F000700078
F000700078
F000700078
F000700078
F000700078
F000700078
F000700078
F000700078
F000700078
F000700078
F000700078
F000700078
F000700078
F000700078
F000700078
F000700078
F000700078
F000700078
F000700078
F000700078
F000700078
F000700078
F000700078
F000000078
F000000078
F000000078
F000000078
F000000078
F8000000F8
F8000000F8
F8000000F8
FC000001F8
FE000003F8
FF000007F8
FF80000FF8
FFC0000070
FFF0000070
FFF8000070
FFF8000060
FFF8000078
FFF8000078
FFFC000078
FFFC000078
FFFE000078
FFFF000078
FFFF800078
FFFFC00078
FFFFE00078
FFFFFC0078
FFFFFFFFF8
7FFFFFFFF8
7FFFFFFFF8
7FFFFFFFF8
3FFFFFFFF8
3FFFFFFFF8
1FFFFFFFF8
0FFFFFFFF8
07FFFFFFF8
03FFFFFFF8
01FFFFFFF8
007FFFFFF8
007FFFFFF8
003FFFFFF8
003FFFFFF8
003FFFFFF8
001FFFFFF8
000FFFFFF8
000FFFFFF8
0007FFFFF8
0003FFFFF8
0001FFFFF8
00007FFFF8
00003FFFF8
000007FFF8
ENDCHAR
STARTCHAR 0072
ENCODING 114
SWIDTH 333 0
DWIDTH 24 0
BBX 28 84 0 -18
BITMAP
000FFFF0
007FFFF0
00FFFFF0
03FFFFF0
07F800F0
0FC000F0
1F8000F0
3F0000F0
3E0000F0
7C0000F0
780000F0
780000F0
F80000F0
F00000F0
F00000F0
F00000F0
F00000F0
F0007FF0
F0007FF0
F0007FF0
F0007FF0
F0007FF0
F0007FF0
F0007FF0
F0007FF0
F0007FF0
F0007FF0
F0007FF0
F0007FF0
F0007FF0
F0007FF0
F0007FF0
F0007FF0
F0007FF0
F0007FF0
F0007800
F0007800
F0007800
F0007800
F0007800
F0007800
F0007800
F0007800
F0007800
F0007800
F0007800
F0007800
F0007800
F0007800
F0007800
F0007800
F0007800
F0007800
F0007800
F0007800
F0007800
F0007800
F0007800
F0007800
F0007800
F0007800
F0007800
F0007800
F0007800
F0007800
F0007800
FFFFF800
FFFFF800
FFFFF800
FFFFF800
FFFFF800
FFFFF800
FFFFF800
FFFFF800
FFFFF800
FFFFF800
FFFFF800
FFFFF800
FFFFF800
FFFFF800
FFFFF800
FFFFF800
FFFFF800
FFFFF800
ENDCHAR
STARTCHAR 0073
ENCODING 115
SWIDTH 597 0
DWIDTH 43 0
BBX 47 84 0 -18
BITMAP
00000003FFFE
0000001FFFFE
0000007FFFFE
000001FFFFFE
000007FE001E
00000FF0001E
00001FC0001E
00003F00001E
00007E00001E
00007C00001E
0000F800001E
0001F000001E
0001F000001E
0003E000001E
0003C000001E
0003C000001E
0007C000001E
000780007FFE
00078001FFFE
00078003FFFE
00078003FFFE
00078003FFFE
00078003FFFE
00078003FFFE
00078003FFFE
00078003FFFE
00078003FFFE
00078003FFFE
00078003FFFE
00078003FFFE
00078003FFFE
00078003FFFE
00078003FFFE
00078003FFFE
00078003FFFE
00078003C000
00078003C000
00078003C000
00078003C000
00078003C000
00078003C000
00078003C000
00078003C000
00078003C000
00078003C000
00078003C000
00078003C000
00078003C000
FFFF8003C000
FFFF0003C000
FFFF0003C000
FFFC0003C000
F0000007C000
F0000007C000
F0000007C000
F000000FC000
F000000FC000
F000001FC000
F000003FC000
F000003FC000
F000007FC000
F00000FFC000
F00001FFC000
F00007FFC000
F0001FFFC000
F000FFFFC000
FFFFFFFFC000
FFFFFFFF8000
FFFFFFFF8000
FFFFFFFF8000
FFFFFFFF0000
FFFFFFFF0000
FFFFFFFE0000
FFFFFFFE0000
FFFFFFFC0000
FFFFFFF80000
FFFFFFF80000
FFFFFFF00000
FFFFFFE00000
FFFFFF800000
FFFFFF000000
FFFFFC000000
FFFFF0000000
FFFF80000000
ENDCHAR
STARTCHAR 0074
ENCODING 116
SWIDTH 472 0
DWIDTH 34 0
BBX 37 84 0 -18
BITMAP
FFFFF80000
FFFFF80000
FFFFF80000
FFFFF80000
F000780000
F000780000
F000780000
F000780000
F0007FFFF8
F0007FFFF8
F0007FFFF8
F0007FFFF8
F000000078
F000000078
F000000078
F000000078
F000000078
F000000078
F000000078
F000000078
F000000078
F000000078
F000000078
F000000078
F000000078
F0007FFFF8
F0007FFFF8
F000600078
F000600078
F000600078
F000600078
F000600078
F000600078
F000600078
F000600078
F000600078
F000600078
F000600078
F000600078
F000600078
F000600078
F000600078
F000600078
F000600078
F000600078
F000600078
F000600078
F000600078
F000600078
F000600078
F000600078
F000600078
F000000078
F000000078
F000000078
F000000078
F000000078
F8000000F8
F8000000F8
F8000001F8
FC000001F8
FE000003F8
FF000007F8
FF80000FF8
FFC0001FF8
FFF800FFF8
FFFFFFFFF8
FFFFFFFFF8
FFFFFFFFF8
FFFFFFFFF8
FFFFFFFFF8
FFFFFFFFF8
7FFFFFFFF0
7FFFFFFFF0
7FFFFFFFF0
3FFFFFFFE0
3FFFFFFFC0
1FFFFFFFC0
0FFFFFFF80
07FFFFFF00
03FFFFFE00
01FFFFFC00
007FFFF000
000FFF8000
ENDCHAR
STARTCHAR 0075
ENCODING 117
SWIDTH 458 0
DWIDTH 33 0
BBX 37 84 0 -18
BITMAP
FFFFFFFFF8
FFFFFFFFF8
FFFFFFFFF8
FFFFFFFFF8
F000600078
F000600078
F000600078
F000600078
F000600078
F000600078
F000600078
F000600078
F000600078
F000600078
F000600078
F000600078
F000600078
F000600078
F000600078
F000600078
F000600078
F000600078
F000600078
F000600078
F000600078
F000600078
F000600078
F000600078
F000600078
F000600078
F000600078
F000600078
F000600078
F000600078
F000600078
F000600078
F000600078
F000600078
F000600078
F000600078
F000600078
F000600078
F000600078
F000600078
F000600078
F000600078
F000600078
F000600078
F000600078
F000600078
F000600078
F000600078
F000000078
F000000078
F000000078
F000000078
F000000078
F0000000F8
F8000000F8
F8000001F8
FC000001F8
FE000003F8
FF000007F8
FF80000FF8
FFC0001FF8
FFF800FFF8
FFFFFFFFF8
FFFFFFFFF8
FFFFFFFFF8
FFFFFFFFF8
FFFFFFFFF8
FFFFFFFFF8
7FFFFFFFF0
7FFFFFFFF0
7FFFFFFFF0
3FFFFFFFE0
3FFFFFFFC0
1FFFFFFFC0
0FFFFFFF80
07FFFFFF00
03FFFFFE00
01FFFFF800
007FFFF000
000FFF8000
ENDCHAR
STARTCHAR 0076
ENCODING 118
SWIDTH 527 0
DWIDTH 38 0
BBX 42 84 0 -18
BITMAP
FFFFFFFFFFC0
FFFFFFFFFFC0
FFFFFFFFFFC0
7FFFFFFFFF80
78003F000780
78003E000780
78001E000780
78001E000780
78001E000F80
3C001E000F00
3C001E000F00
3C000C000F00
3C000C000F00
3C000C000F00
3C000C001F00
1E000C001E00
1E000C001E00
1E0008001E00
1E0008001E00
1E0000001E00
1E0000003C00
0F0000003C00
0F0000003C00
0F0000003C00
0F0000003C00
0F0000003C00
0F0000007800
078000007800
078000007800
078000007800
078000007800
07800000F800
07C00000F000
03C00000F000
03C00000F000
03C00000F000
03C00000F000
03C00001F000
03E00001E000
01E00001E000
01E00001E000
01E00001E000
01E00001E000
01E00003C000
00F00003C000
00F00003C000
00F00003C000
00F00003C000
00F00003C000
00F000078000
007800078000
007800078000
007800078000
007800078000
0078000F8000
0078000F0000
003C000F0000
003C000F0000
003C000F0000
003C000F0000
003C001F0000
003C001E0000
001E001E0000
001E001E0000
001E001E0000
001E001E0000
001FFFFC0000
001FFFFC0000
000FFFFC0000
000FFFFC0000
000FFFFC0000
000FFFFC0000
000FFFF80000
000FFFF80000
0007FFF80000
0007FFF80000
0007FFF80000
0007FFF80000
0007FFF00000
0007FFF00000
0003FFF00000
0003FFF00000
0003FFF00000
0003FFF00000
ENDCHAR
STARTCHAR 0077
ENCODING 119
SWIDTH 680 0
DWIDTH 49 0
BBX 53 84 0 -18
BITMAP
FFFFFFFFFFFFF8
FFFFFFFFFFFFF8
FFFFFFFFFFFFF8
FFFFFFFFFFFFF8
F0006000300078
F0006000300078
F0006000300078
F0006000300078
F0006000300078
F0006000300078
F0006000300078
F0006000300078
F0006000300078
F0006000300078
F0006000300078
F0006000300078
F0006000300078
F0006000300078
F0006000300078
F0006000300078
F0006000300078
F0006000300078
F0006000300078
F0006000300078
F0006000300078
F0006000300078
F0006000300078
F0006000300078
F0006000300078
F0006000300078
F0006000300078
F0006000300078
F0006000300078
F0006000300078
F0006000300078
F0006000300078
F0006000300078
F0006000300078
F0006000300078
F0006000300078
F0006000300078
F0006000300078
F0006000300078
F0006000300078
F0006000300078
F0006000300078
F0006000300078
F0006000300078
F0006000300078
F0006000300078
F0006000300078
F0006000300078
F0000000000078
F0000000000078
F0000000000078
F0000000000078
F0000000000078
F80000000000F8
F80000000000F8
F80000000001F8
FC0000000001F8
FE0000000003F8
FF0000000007F8
FF800000000FF8
FFC00000003FF8
FFF8007000FFF8
FFFFFFFFFFFFF8
FFFFFFFFFFFFF8
FFFFFFFFFFFFF8
FFFFFFFFFFFFF8
FFFFFFFFFFFFF8
FFFFFFFFFFFFF8
7FFFFFFFFFFFF0
7FFFFFFFFFFFF0
7FFFFFFFFFFFF0
3FFFFFFFFFFFE0
3FFFFFFFFFFFC0
1FFFFFFFFFFFC0
0FFFFFFFFFFF80
07FFFFFFFFFF00
03FFFFFFFFFE00
01FFFFFFFFF800
007FFFFFFFF000
000FFF8FFF8000
ENDCHAR
STARTCHAR 0078
ENCODING 120
SWIDTH 486 0
DWIDTH 35 0
BBX 47 84 -4 -18
BITMAP
7FFFFFFFFFFC
3FFFFFFFFFF8
3FFFFFFFFFF8
3FFFFFFFFFF0
1E0007C000F0
1E0007C000F0
1F0007C001E0
0F00038001E0
0F00038003E0
0F80038003C0
0780010003C0
0780010007C0
07C001000780
03C000000780
03C000000F80
03E000000F00
01E000000F00
01E000001F00
00F000001E00
00F000001E00
00F000003E00
007800003C00
007800003C00
007800007C00
003C00007800
003C00007800
003C0000F800
001E0000F000
001E0000F000
001F0001E000
000F0001E000
000F0001E000
000F8003C000
000F0003E000
000F0001E000
000F0001E000
001E0001F000
001E0000F000
003E0000F000
003C00007800
003C00007800
007C00007800
007800003C00
007800003C00
00F800003C00
00F000001E00
00F000001E00
01F000001E00
01E000000F00
01E000000F00
03E000000F00
03C000000780
03C000000780
07C000000780
0780010003C0
0780010003C0
0F80018003E0
0F00038001E0
0F00038001E0
1F0003C001F0
1E0007C000F0
1E0007C000F0
3E0007E000F8
3C000FE00078
3C000FE00078
7C000FF0007C
7FFFFFFFFFFC
7FFFFFFFFFFC
FFFFFFFFFFFE
FFFFFFFFFFFE
FFFFFFFFFFFE
FFFFFFFFFFFE
FFFFFFFFFFFE
FFFFFFFFFFFE
FFFFFFFFFFFE
FFFFFFFFFFFE
FFFFFFFFFFFE
FFFFFFFFFFFE
FFFFFFFFFFFE
FFFFFFFFFFFE
FFFFFEFFFFFE
FFFFFEFFFFFE
FFFFFCFFFFFE
FFFFFC7FFFFE
ENDCHAR
STARTCHAR 0079
ENCODING 121
SWIDTH 458 0
DWIDTH 33 0
BBX 37 84 0 -18
BITMAP
FFFFFFFFF8
FFFFFFFFF8
FFFFFFFFF8
FFFFFFFFF8
F000600078
F000600078
F000600078
F000600078
F000600078
F000600078
F000600078
F000600078
F000600078
F000600078
F000600078
F000600078
F000600078
F000600078
F000600078
F000600078
F000600078
F000600078
F000600078
F000600078
F000600078
F000600078
F000600078
F000600078
F000600078
F000600078
F000600078
F000600078
F000600078
F000600078
F000600078
F000600078
F000000078
F000000078
F000000078
F000000078
F000000078
7000000078
7800000078
7800000078
3C00000078
1E00000078
1F00000078
0F80000078
FFC0000078
FFF0000078
FFFFE00078
FFFFE00078
F000000078
F000000078
F000000078
F000000078
F000000078
F0000000F8
F0000000F8
F0000001F8
F0000001F8
F0000003F8
F0000007F8
F000000FF8
F000001FF8
F00000FFF8
FFFFFFFFF8
FFFFFFFFF8
FFFFFFFFF8
FFFFFFFFF8
FFFFFFFFF8
FFFFFFFFF8
FFFFFFFFF0
FFFFFFFFF0
FFFFFFFFF0
FFFFFFFFE0
FFFFFFFFC0
FFFFFFFFC0
FFFFFFFF80
FFFFFFFF00
FFFFFFFE00
FFFFFFF800
FFFFFFF000
FFFFFF8000
ENDCHAR
STARTCHAR 007A
ENCODING 122
SWIDTH 486 0
DWIDTH 35 0
BBX 45 84 -4 -18
BITMAP
0FFFFFFFFFF8
0FFFFFFFFFF8
0FFFFFFFFFF0
0FFFFFFFFFF0
0F00000001F0
0F00000001E0
0F00000001E0
0F00000003E0
0F00000003C0
0F00000003C0
0F00000007C0
0F0000000780
0F0000000780
0F0000000F80
0F0000000F00
0F0000000F00
0F0000001F00
0FFFFC001E00
0FFFF8001E00
0FFFF8003E00
0FFFF8003C00
0000F0003C00
0000F0007C00
0001F0007800
0001E0007800
0001E000F800
0003E000F000
0003C000F000
0003C001F000
0007C001E000
00078001E000
00078003E000
000F8003C000
000F0003C000
000F00078000
001F00078000
001E00078000
001E000F0000
003E000F0000
003C000F0000
003C001E0000
007C001E0000
0078001E0000
0078003C0000
00F8003C0000
00F0003C0000
00F000780000
01F000780000
01E000FFFFE0
01E000FFFFE0
03C000FFFFE0
03C001FFFFE0
03C0000001E0
0780000001E0
0780000001E0
0780000001E0
0F00000001E0
0F00000001E0
0F00000001E0
1E00000001E0
1E00000001E0
1E00000001E0
3C00000001E0
3C00000001E0
3C00000001E0
7800000001E0
7FFFFFFFFFE0
7FFFFFFFFFE0
FFFFFFFFFFE0
FFFFFFFFFFE0
FFFFFFFFFFE0
FFFFFFFFFFE0
FFFFFFFFFFE0
FFFFFFFFFFE0
FFFFFFFFFFE0
FFFFFFFFFFE0
FFFFFFFFFFE0
FFFFFFFFFFE0
FFFFFFFFFFE0
FFFFFFFFFFE0
FFFFFFFFFFE0
FFFFFFFFFFE0
FFFFFFFFFFE0
FFFFFFFFFFE0
ENDCHAR
STARTCHAR 007B
ENCODING 123
SWIDTH 375 0
DWIDTH 27 0
BBX 31 89 0 -18
BITMAP
000FFFFE
007FFFFE
00FFFFFE
03FFFFFE
07F8001E
0FC0001E
1F80001E
1F00001E
3E00001E
7C00001E
7C00001E
7800001E
F800001E
F000001E
F000001E
F000001E
F000001E
F000001E
F0007FFE
F0007FFE
F0007FFE
F0007FFE
F0007FFE
F0007FFE
F0007FFE
F0007FFE
F0007FFE
F0007FFE
F0007FFE
F0007FFE
F0007FFE
F0007FFE
F0007FFE
F0007FFE
F0007FFE
F0007FFE
F0007800
F0007800
F0007800
F0007800
F0007800
F0007800
F0007800
F0007800
F0007800
F0007800
F0007800
F0007800
F0007800
F0007800
F0007800
F0007800
F0007800
F0007FFE
F0007FFE
F0007FFE
F0007FFE
F000001E
F000001E
F000001E
F000001E
F000001E
F800001E
F800001E
F800001E
FC00001E
FE00001E
FF00001E
FF80001E
FFC0001E
FFF8001E
FFFFFFFE
FFFFFFFE
FFFFFFFE
FFFFFFFE
FFFFFFFE
FFFFFFFE
7FFFFFFE
7FFFFFFE
7FFFFFFE
3FFFFFFE
3FFFFFFE
1FFFFFFE
0FFFFFFE
07FFFFFE
03FFFFFE
00FFFFFE
007FFFFE
000FFFFE
ENDCHAR
STARTCHAR 007C
ENCODING 124
SWIDTH 250 0
DWIDTH 18 0
BBX 21 103 0 -25
BITMAP
FFFFF8
FFFFF8
FFFFF8
FFFFF8
F00078
F00078
F00078
F00078
F00078
F00078
F00078
F00078
F00078
F00078
F00078
F00078
F00078
F00078
F00078
F00078
F00078
F00078
F00078
F00078
F00078
F00078
F00078
F00078
F00078
F00078
F00078
F00078
F00078
F00078
F00078
F00078
F00078
F00078
F00078
F00078
F00078
F00078
F00078
F00078
F00078
F00078
F00078
F00078
F00078
F00078
F00078
F00078
F00078
F00078
F00078
F00078
F00078
F00078
F00078
F00078
F00078
F00078
F00078
F00078
F00078
F00078
F00078
F00078
F00078
F00078
F00078
F00078
F00078
F00078
F00078
F00078
F00078
F00078
F00078
F00078
F00078
F00078
F00078
F00078
F00078
FFFFF8
FFFFF8
FFFFF8
FFFFF8
FFFFF8
FFFFF8
FFFFF8
FFFFF8
FFFFF8
FFFFF8
FFFFF8
FFFFF8
FFFFF8
FFFFF8
FFFFF8
FFFFF8
FFFFF8
FFFFF8
ENDCHAR
STARTCHAR 007D
ENCODING 125
SWIDTH 375 0
DWIDTH 27 0
BBX 31 89 0 -18
BITMAP
FFFFE000
FFFFFC00
FFFFFE00
FFFFFF80
F0003FC0
F00007E0
F00003F0
F00001F0
F00000F8
F000007C
F000007C
F000003C
F000003E
F000001E
F000001E
F000001E
F000001E
F000001E
FFFC001E
FFFC001E
FFFC001E
FFFC001E
FFFC001E
FFFC001E
FFFC001E
FFFC001E
FFFC001E
FFFC001E
FFFC001E
FFFC001E
FFFC001E
FFFC001E
FFFC001E
FFFC001E
FFFC001E
FFFC001E
003C001E
003C001E
003C001E
003C001E
003C001E
003C001E
003C001E
003C001E
003C001E
003C001E
003C001E
003C001E
003C001E
003C001E
003C001E
003C001E
003C001E
FFFC001E
FFFC001E
FFFC001E
FFFC001E
F000001E
F000001E
F000001E
F000001E
F000001E
F000003E
F000003E
F000007E
F000007E
F00000FE
F00001FE
F00003FE
F00007FE
F0003FFE
FFFFFFFE
FFFFFFFE
FFFFFFFE
FFFFFFFE
FFFFFFFE
FFFFFFFE
FFFFFFFC
FFFFFFFC
FFFFFFFC
FFFFFFF8
FFFFFFF0
FFFFFFF0
FFFFFFE0
FFFFFFC0
FFFFFF80
FFFFFE00
FFFFFC00
FFFFE000
ENDCHAR
STARTCHAR 007E
ENCODING 126
SWIDTH 458 0
DWIDTH 33 0
BBX 33 28 3 38
BITMAP
6000000000
7800FE0000
7F03FFC000
7FEFFFE000
FFFFFFF800
F7FF03FC00
E1FC00FC00
E038003E00
E000003E00
E000001F00
E000000F00
E000000F00
E000000F00
E000000780
E000000780
E000000780
E000000780
7000000780
7000000700
7800000F00
3C00180F00
3E007F0F00
1F81FFEF00
0FFFFFFF00
07FFFFFE00
01FFC1FE00
007F003E00
0000000400
ENDCHAR
STARTCHAR 00A1
ENCODING 161
SWIDTH 236 0
DWIDTH 17 0
BBX 21 84 0 -18
BITMAP
FFFFF8
FFFFF8
FFFFF8
FFFFF8
F00078
F00078
F00078
F00078
F00078
F00078
F00078
F00078
F00078
F00078
F00078
F00078
F00078
FFFFF8
FFFFF8
F00078
F00078
F00078
F00078
F00078
F00078
F00078
F00078
F00078
F00078
F00078
F00078
F00078
F00078
F00078
F00078
F00078
F00078
F00078
F00078
F00078
F00078
F00078
F00078
F00078
F00078
F00078
F00078
F00078
F00078
F00078
F00078
F00078
F00078
F00078
F00078
F00078
F00078
F00078
F00078
F00078
F00078
F00078
F00078
F00078
F00078
F00078
FFFFF8
FFFFF8
FFFFF8
FFFFF8
FFFFF8
FFFFF8
FFFFF8
FFFFF8
FFFFF8
FFFFF8
FFFFF8
FFFFF8
FFFFF8
FFFFF8
FFFFF8
FFFFF8
FFFFF8
FFFFF8
ENDCHAR
STARTCHAR 00A2
ENCODING 162
SWIDTH 486 0
DWIDTH 35 0
BBX 39 84 0 -18
BITMAP
007FFFFC00
007FFFFC00
007FFFFC00
007FFFFC00
0078003C00
0078003C00
0078003C00
0078003C00
0078003C00
00F8003E00
03F8003F80
07F8003FC0
0FE0000FE0
1F800003F0
1F000001F0
3E000000F8
7C00000078
7C0000007C
780000003C
F80000003C
F00000001E
F00000001E
F00000001E
F00000001E
F00000001E
F00078001E
F00078001E
F00078001E
F00078001E
F00078001E
F00078001E
F00078001E
F00078001E
F00078001E
F0007FFFFE
F0007FFFFE
F0007FFFFE
F00078001E
F00078001E
F00078001E
F00078001E
F00078001E
F00078001E
F00078001E
F00078001E
F00078001E
F00000001E
F00000001E
F00000001E
F00000001E
F80000003E
F80000003E
F80000007E
FC0000007E
FE000000FE
FF000001FE
FF800003FE
FFE0000FFE
FFF8003FFE
FFF8003FFE
FFF8003FFE
FFF8003FFE
FFF8003FFE
FFF8003FFE
FFF8003FFC
7FF8003FFC
7FFFFFFFFC
7FFFFFFFF8
3FFFFFFFF8
1FFFFFFFF0
1FFFFFFFF0
0FFFFFFFE0
07FFFFFFC0
03FFFFFF80
00FFFFFE00
007FFFFC00
007FFFFC00
007FFFFC00
007FFFFC00
007FFFFC00
007FFFFC00
007FFFFC00
007FFFFC00
007FFFFC00
ENDCHAR
STARTCHAR 00A3
ENCODING 163
SWIDTH 263 0
DWIDTH 19 0
BBX 54 54 3 7
BITMAP
00FFFFFFFFFC00
03FFFFFFFFFF00
0FFFFFFFFFFFC0
1FF03FFFF00FE0
3FC00FFFC003F0
3F0003FF8001F0
7E0001FE000078
7C0000FC000038
FC0000FC00003C
F800007800001C
F800007800001C
F000003000000C
F000003000000C
F000003000000C
F000003000000C
F000003000000C
F000003000000C
F000003000000C
F800007800001C
F800007800001C
FC0000FC00003C
FC0000FC00003C
FE0001FE00007C
FF0003FF0001FC
FF800FFFC003FC
FFF03FFFF00FFC
FFFFFFFFFFFFFC
FFFFFFFFFFFFFC
FFF03FFFF00FFC
FFC00FFFC003FC
FF0003FF8001FC
FE0001FE00007C
FC0000FC00007C
FC0000FC00003C
F800007800001C
F800007800001C
F000003000000C
F000003000000C
F000003000000C
F000003000000C
F000003000000C
F000003000000C
F000003000000C
F800007800001C
F800007800001C
FC0000FC00003C
7C0000FC000038
7E0001FE000078
3F0003FF0001F0
3F800FFFC003F0
1FF03FFFF00FE0
0FFFFFFFFFFFC0
03FFFFFFFFFF00
00FFFFFFFFFC00
ENDCHAR
STARTCHAR 00A4
ENCODING 164
SWIDTH 263 0
DWIDTH 19 0
BBX 54 54 3 7
BITMAP
00FFFFFFFFFC00
03FFFFFFFFFF00
0FFFFFFFFFFFC0
1FF03FFFF00FE0
3FC00FFFC003F0
3F0003FF8001F0
7E0001FE000078
7C0000FC000038
FC0000FC00003C
F800007800001C
F800007800001C
F000003000000C
F000003000000C
F000003000000C
F000003000000C
F000003000000C
F000003000000C
F000003000000C
F800007800001C
F800007800001C
FC0000FC00003C
FC0000FC00003C
FE0001FE00007C
FF0003FF0001FC
FF800FFFC003FC
FFF03FFFF00FFC
FFFFFFFFFFFFFC
FFFFFFFFFFFFFC
FFF03FFFF00FFC
FFC00FFFC003FC
FF0003FF8001FC
FE0001FE00007C
FC0000FC00007C
FC0000FC00003C
F800007800001C
F800007800001C
F000003000000C
F000003000000C
F000003000000C
F000003000000C
F000003000000C
F000003000000C
F000003000000C
F800007800001C
F800007800001C
FC0000FC00003C
7C0000FC000038
7E0001FE000078
3F0003FF0001F0
3F800FFFC003F0
1FF03FFFF00FE0
0FFFFFFFFFFFC0
03FFFFFFFFFF00
00FFFFFFFFFC00
ENDCHAR
STARTCHAR 00A5
ENCODING 165
SWIDTH 263 0
DWIDTH 19 0
BBX 54 54 3 7
BITMAP
00FFFFFFFFFC00
03FFFFFFFFFF00
0FFFFFFFFFFFC0
1FF03FFFF00FE0
3FC00FFFC003F0
3F0003FF8001F0
7E0001FE000078
7C0000FC000038
FC0000FC00003C
F800007800001C
F800007800001C
F000003000000C
F000003000000C
F000003000000C
F000003000000C
F000003000000C
F000003000000C
F000003000000C
F800007800001C
F800007800001C
FC0000FC00003C
FC0000FC00003C
FE0001FE00007C
FF0003FF0001FC
FF800FFFC003FC
FFF03FFFF00FFC
FFFFFFFFFFFFFC
FFFFFFFFFFFFFC
FFF03FFFF00FFC
FFC00FFFC003FC
FF0003FF8001FC
FE0001FE00007C
FC0000FC00007C
FC0000FC00003C
F800007800001C
F800007800001C
F000003000000C
F000003000000C
F000003000000C
F000003000000C
F000003000000C
F000003000000C
F000003000000C
F800007800001C
F800007800001C
FC0000FC00003C
7C0000FC000038
7E0001FE000078
3F0003FF0001F0
3F800FFFC003F0
1FF03FFFF00FE0
0FFFFFFFFFFFC0
03FFFFFFFFFF00
00FFFFFFFFFC00
ENDCHAR
STARTCHAR 00A7
ENCODING 167
SWIDTH 486 0
DWIDTH 35 0
BBX 38 94 0 -23
BITMAP
000FFFC000
007FFFF800
01FFFFFC00
03FFFFFF00
07F0007F80
0FC0000FC0
1F800007E0
3F000003E0
3E000001F0
7C000000F0
78000000F8
7800000078
F800000078
F00000003C
F00000003C
F00000003C
F00000003C
F00000003C
F00078003C
F00078003C
F00078003C
F0007FFFFC
F0007FFFFC
F0000FFFFC
F00003FFFC
F00000FE00
F000003F80
F800000FC0
F8000007E0
FC000003E0
FE000001F0
F7000000F0
F180000078
F0C0000078
F03000007C
F01C00003C
F00700003C
F003C0003C
F000F8003C
F00078003C
F00078003C
F00038003C
F0000E003C
F00003803C
F00000C03C
F00000303C
780000183C
780000063C
7C0000033C
3C000001FC
3E000000FC
1F0000007C
0FC000007C
07E000007C
03F800003C
FFFF00003C
FFFFC0003C
FFFFF0003C
FFFFF8003C
F00078003C
F00078003C
F00078003C
F00000003C
F00000003C
F00000003C
F00000003C
F00000003C
F00000007C
F80000007C
F8000000FC
FC000000FC
FE000001FC
FF000003FC
FF800007FC
FFC0000FFC
FFF0007FFC
FFFFFFFFFC
FFFFFFFFFC
FFFFFFFFFC
FFFFFFFFFC
FFFFFFFFFC
FFFFFFFFFC
7FFFFFFFF8
7FFFFFFFF8
7FFFFFFFF8
3FFFFFFFF0
3FFFFFFFF0
1FFFFFFFE0
0FFFFFFFC0
07FFFFFF80
03FFFFFF00
01FFFFFE00
007FFFF800
000FFFC000
ENDCHAR
STARTCHAR 00A8
ENCODING 168
SWIDTH 555 0
DWIDTH 40 0
BBX 38 22 3 56
BITMAP
FFFFFFFFFC
FFFFFFFFFC
FFFFFFFFFC
FFFFFFFFFC
F00078003C
F00078003C
F00078003C
F00078003C
F00078003C
F00078003C
F00078003C
F00078003C
F00078003C
F00078003C
F00078003C
F00078003C
F00078003C
F00078003C
FFFFFFFFFC
FFFFFFFFFC
FFFFFFFFFC
FFFFFFFFFC
ENDCHAR
STARTCHAR 00A9
ENCODING 169
SWIDTH 555 0
DWIDTH 40 0
BBX 37 67 4 0
BITMAP
007FFFE000
03FFFFFC00
07FFFFFE00
1FFFFFFF80
1FFFFFFFC0
3FFFFFFFC0
7FFFFFFFE0
7FFFFFFFE0
FFFFFFFFF0
FFFFFFFFF0
FFFFFFFFF0
FFFFFFFFF0
FFFFFFFFF8
FFFFFFFFF8
FFFC07FFF8
FFF001FFF8
FFE000FFF8
FFC0007FF8
FF80003FF8
FF80003FF8
FF00001FF8
FF00001FF8
FF00E01FF8
FF00E01FF8
FF00F00FF8
FF00F00FF8
FF00F00FF8
FF00F00FF8
FF00F00FF8
FF00F00FF8
FF00FFFFF8
FF00FFFFF8
FF00FFFFF8
FF00FFFFF8
FF00FFFFF8
FF00FFFFF8
FF00FFFFF8
FF00FFFFF8
FF00F00FF8
FF00F00FF8
FF00F00FF8
FF00F00FF8
FF00F00FF8
FF00E01FF8
FF00001FF8
FF00001FF8
FF00001FF8
FF80003FF8
FFC0007FF8
FFE000FFF8
FFF001FFF8
FFFC07FFF8
FFFFFFFFF8
FFFFFFFFF8
FFFFFFFFF8
FFFFFFFFF0
FFFFFFFFF0
FFFFFFFFF0
FFFFFFFFF0
7FFFFFFFE0
7FFFFFFFE0
3FFFFFFFC0
3FFFFFFFC0
1FFFFFFF80
07FFFFFE00
03FFFFFC00
007FFFE000
ENDCHAR
STARTCHAR 00AA
ENCODING 170
SWIDTH 263 0
DWIDTH 19 0
BBX 54 54 3 7
BITMAP
00FFFFFFFFFC00
03FFFFFFFFFF00
0FFFFFFFFFFFC0
1FF03FFFF00FE0
3FC00FFFC003F0
3F0003FF8001F0
7E0001FE000078
7C0000FC000038
FC0000FC00003C
F800007800001C
F800007800001C
F000003000000C
F000003000000C
F000003000000C
F000003000000C
F000003000000C
F000003000000C
F000003000000C
F800007800001C
F800007800001C
FC0000FC00003C
FC0000FC00003C
FE0001FE00007C
FF0003FF0001FC
FF800FFFC003FC
FFF03FFFF00FFC
FFFFFFFFFFFFFC
FFFFFFFFFFFFFC
FFF03FFFF00FFC
FFC00FFFC003FC
FF0003FF8001FC
FE0001FE00007C
FC0000FC00007C
FC0000FC00003C
F800007800001C
F800007800001C
F000003000000C
F000003000000C
F000003000000C
F000003000000C
F000003000000C
F000003000000C
F000003000000C
F800007800001C
F800007800001C
FC0000FC00003C
7C0000FC000038
7E0001FE000078
3F0003FF0001F0
3F800FFFC003F0
1FF03FFFF00FE0
0FFFFFFFFFFFC0
03FFFFFFFFFF00
00FFFFFFFFFC00
ENDCHAR
STARTCHAR 00AB
ENCODING 171
SWIDTH 263 0
DWIDTH 19 0
BBX 54 54 3 7
BITMAP
00FFFFFFFFFC00
03FFFFFFFFFF00
0FFFFFFFFFFFC0
1FF03FFFF00FE0
3FC00FFFC003F0
3F0003FF8001F0
7E0001FE000078
7C0000FC000038
FC0000FC00003C
F800007800001C
F800007800001C
F000003000000C
F000003000000C
F000003000000C
F000003000000C
F000003000000C
F000003000000C
F000003000000C
F800007800001C
F800007800001C
FC0000FC00003C
FC0000FC00003C
FE0001FE00007C
FF0003FF0001FC
FF800FFFC003FC
FFF03FFFF00FFC
FFFFFFFFFFFFFC
FFFFFFFFFFFFFC
FFF03FFFF00FFC
FFC00FFFC003FC
FF0003FF8001FC
FE0001FE00007C
FC0000FC00007C
FC0000FC00003C
F800007800001C
F800007800001C
F000003000000C
F000003000000C
F000003000000C
F000003000000C
F000003000000C
F000003000000C
F000003000000C
F800007800001C
F800007800001C
FC0000FC00003C
7C0000FC000038
7E0001FE000078
3F0003FF0001F0
3F800FFFC003F0
1FF03FFFF00FE0
0FFFFFFFFFFFC0
03FFFFFFFFFF00
00FFFFFFFFFC00
ENDCHAR
STARTCHAR 00AC
ENCODING 172
SWIDTH 263 0
DWIDTH 19 0
BBX 54 54 3 7
BITMAP
00FFFFFFFFFC00
03FFFFFFFFFF00
0FFFFFFFFFFFC0
1FF03FFFF00FE0
3FC00FFFC003F0
3F0003FF8001F0
7E0001FE000078
7C0000FC000038
FC0000FC00003C
F800007800001C
F800007800001C
F000003000000C
F000003000000C
F000003000000C
F000003000000C
F000003000000C
F000003000000C
F000003000000C
F800007800001C
F800007800001C
FC0000FC00003C
FC0000FC00003C
FE0001FE00007C
FF0003FF0001FC
FF800FFFC003FC
FFF03FFFF00FFC
FFFFFFFFFFFFFC
FFFFFFFFFFFFFC
FFF03FFFF00FFC
FFC00FFFC003FC
FF0003FF8001FC
FE0001FE00007C
FC0000FC00007C
FC0000FC00003C
F800007800001C
F800007800001C
F000003000000C
F000003000000C
F000003000000C
F000003000000C
F000003000000C
F000003000000C
F000003000000C
F800007800001C
F800007800001C
FC0000FC00003C
7C0000FC000038
7E0001FE000078
3F0003FF0001F0
3F800FFFC003F0
1FF03FFFF00FE0
0FFFFFFFFFFFC0
03FFFFFFFFFF00
00FFFFFFFFFC00
ENDCHAR
STARTCHAR 00AE
ENCODING 174
SWIDTH 486 0
DWIDTH 35 0
BBX 32 67 4 0
BITMAP
007FFC00
03FFFF80
07FFFFC0
1FFFFFF0
1FFFFFF8
3FFFFFF8
7FFFFFFC
7FFFFFFC
FFFFFFFE
FFFFFFFE
FFFFFFFE
FFFFFFFE
FFFFFFFF
FFFFFFFF
FFFE00FF
FFF800FF
FFF000FF
FFE000FF
FFC000FF
FFC000FF
FF8000FF
FF8000FF
FF803FFF
FF807FFF
FF807FFF
FF807FFF
FF807FFF
FF807FFF
FF807FFF
FF807FFF
FF807FFF
FF807FFF
FF807FFF
FF807FFF
FF807FFF
FF807FFF
FF807FFF
FF807FFF
FF807FFF
FF807FFF
FF807FFF
FF807FFF
FF807FFF
FF807FFF
FF807FFF
FF807FFF
FF807FFF
FF807FFF
FF807FFF
FF807FFF
FF807FFF
FF807FFF
FF807FFF
FFFFFFFF
FFFFFFFF
FFFFFFFE
FFFFFFFE
FFFFFFFE
FFFFFFFE
7FFFFFFC
7FFFFFFC
3FFFFFF8
3FFFFFF8
1FFFFFF0
07FFFFC0
03FFFF80
007FFC00
ENDCHAR
STARTCHAR 00B0
ENCODING 176
SWIDTH 263 0
DWIDTH 19 0
BBX 54 54 3 7
BITMAP
00FFFFFFFFFC00
03FFFFFFFFFF00
0FFFFFFFFFFFC0
1FF03FFFF00FE0
3FC00FFFC003F0
3F0003FF8001F0
7E0001FE000078
7C0000FC000038
FC0000FC00003C
F800007800001C
F800007800001C
F000003000000C
F000003000000C
F000003000000C
F000003000000C
F000003000000C
F000003000000C
F000003000000C
F800007800001C
F800007800001C
FC0000FC00003C
FC0000FC00003C
FE0001FE00007C
FF0003FF0001FC
FF800FFFC003FC
FFF03FFFF00FFC
FFFFFFFFFFFFFC
FFFFFFFFFFFFFC
FFF03FFFF00FFC
FFC00FFFC003FC
FF0003FF8001FC
FE0001FE00007C
FC0000FC00007C
FC0000FC00003C
F800007800001C
F800007800001C
F000003000000C
F000003000000C
F000003000000C
F000003000000C
F000003000000C
F000003000000C
F000003000000C
F800007800001C
F800007800001C
FC0000FC00003C
7C0000FC000038
7E0001FE000078
3F0003FF0001F0
3F800FFFC003F0
1FF03FFFF00FE0
0FFFFFFFFFFFC0
03FFFFFFFFFF00
00FFFFFFFFFC00
ENDCHAR
STARTCHAR 00B1
ENCODING 177
SWIDTH 263 0
DWIDTH 19 0
BBX 54 54 3 7
BITMAP
00FFFFFFFFFC00
03FFFFFFFFFF00
0FFFFFFFFFFFC0
1FF03FFFF00FE0
3FC00FFFC003F0
3F0003FF8001F0
7E0001FE000078
7C0000FC000038
FC0000FC00003C
F800007800001C
F800007800001C
F000003000000C
F000003000000C
F000003000000C
F000003000000C
F000003000000C
F000003000000C
F000003000000C
F800007800001C
F800007800001C
FC0000FC00003C
FC0000FC00003C
FE0001FE00007C
FF0003FF0001FC
FF800FFFC003FC
FFF03FFFF00FFC
FFFFFFFFFFFFFC
FFFFFFFFFFFFFC
FFF03FFFF00FFC
FFC00FFFC003FC
FF0003FF8001FC
FE0001FE00007C
FC0000FC00007C
FC0000FC00003C
F800007800001C
F800007800001C
F000003000000C
F000003000000C
F000003000000C
F000003000000C
F000003000000C
F000003000000C
F000003000000C
F800007800001C
F800007800001C
FC0000FC00003C
7C0000FC000038
7E0001FE000078
3F0003FF0001F0
3F800FFFC003F0
1FF03FFFF00FE0
0FFFFFFFFFFFC0
03FFFFFFFFFF00
00FFFFFFFFFC00
ENDCHAR
STARTCHAR 00B4
ENCODING 180
SWIDTH 111 0
DWIDTH 8 0
BBX 37 27 -5 55
BITMAP
0003FFFFF8
0007FFFFF0
0007FFFFF0
000FFFFFE0
000F0003E0
001F0003C0
003E0007C0
003E000780
007C000F80
0078001F00
00F8001E00
00F0003E00
01F0003C00
01E0007C00
03E0007800
03C000F800
07C000F000
0F8001F000
0F0001E000
1F0003E000
1E0007C000
3E00078000
3C000F8000
7FFFFF0000
7FFFFF0000
FFFFFE0000
FFFFFE0000
ENDCHAR
STARTCHAR 00B5
ENCODING 181
SWIDTH 263 0
DWIDTH 19 0
BBX 54 54 3 7
BITMAP
00FFFFFFFFFC00
03FFFFFFFFFF00
0FFFFFFFFFFFC0
1FF03FFFF00FE0
3FC00FFFC003F0
3F0003FF8001F0
7E0001FE000078
7C0000FC000038
FC0000FC00003C
F800007800001C
F800007800001C
F000003000000C
F000003000000C
F000003000000C
F000003000000C
F000003000000C
F000003000000C
F000003000000C
F800007800001C
F800007800001C
FC0000FC00003C
FC0000FC00003C
FE0001FE00007C
FF0003FF0001FC
FF800FFFC003FC
FFF03FFFF00FFC
FFFFFFFFFFFFFC
FFFFFFFFFFFFFC
FFF03FFFF00FFC
FFC00FFFC003FC
FF0003FF8001FC
FE0001FE00007C
FC0000FC00007C
FC0000FC00003C
F800007800001C
F800007800001C
F000003000000C
F000003000000C
F000003000000C
F000003000000C
F000003000000C
F000003000000C
F000003000000C
F800007800001C
F800007800001C
FC0000FC00003C
7C0000FC000038
7E0001FE000078
3F0003FF0001F0
3F800FFFC003F0
1FF03FFFF00FE0
0FFFFFFFFFFFC0
03FFFFFFFFFF00
00FFFFFFFFFC00
ENDCHAR
STARTCHAR 00B6
ENCODING 182
SWIDTH 263 0
DWIDTH 19 0
BBX 54 54 3 7
BITMAP
00FFFFFFFFFC00
03FFFFFFFFFF00
0FFFFFFFFFFFC0
1FF03FFFF00FE0
3FC00FFFC003F0
3F0003FF8001F0
7E0001FE000078
7C0000FC000038
FC0000FC00003C
F800007800001C
F800007800001C
F000003000000C
F000003000000C
F000003000000C
F000003000000C
F000003000000C
F000003000000C
F000003000000C
F800007800001C
F800007800001C
FC0000FC00003C
FC0000FC00003C
FE0001FE00007C
FF0003FF0001FC
FF800FFFC003FC
FFF03FFFF00FFC
FFFFFFFFFFFFFC
FFFFFFFFFFFFFC
FFF03FFFF00FFC
FFC00FFFC003FC
FF0003FF8001FC
FE0001FE00007C
FC0000FC00007C
FC0000FC00003C
F800007800001C
F800007800001C
F000003000000C
F000003000000C
F000003000000C
F000003000000C
F000003000000C
F000003000000C
F000003000000C
F800007800001C
F800007800001C
FC0000FC00003C
7C0000FC000038
7E0001FE000078
3F0003FF0001F0
3F800FFFC003F0
1FF03FFFF00FE0
0FFFFFFFFFFFC0
03FFFFFFFFFF00
00FFFFFFFFFC00
ENDCHAR
STARTCHAR 00B7
ENCODING 183
SWIDTH 263 0
DWIDTH 19 0
BBX 54 54 3 7
BITMAP
00FFFFFFFFFC00
03FFFFFFFFFF00
0FFFFFFFFFFFC0
1FF03FFFF00FE0
3FC00FFFC003F0
3F0003FF8001F0
7E0001FE000078
7C0000FC000038
FC0000FC00003C
F800007800001C
F800007800001C
F000003000000C
F000003000000C
F000003000000C
F000003000000C
F000003000000C
F000003000000C
F000003000000C
F800007800001C
F800007800001C
FC0000FC00003C
FC0000FC00003C
FE0001FE00007C
FF0003FF0001FC
FF800FFFC003FC
FFF03FFFF00FFC
FFFFFFFFFFFFFC
FFFFFFFFFFFFFC
FFF03FFFF00FFC
FFC00FFFC003FC
FF0003FF8001FC
FE0001FE00007C
FC0000FC00007C
FC0000FC00003C
F800007800001C
F800007800001C
F000003000000C
F000003000000C
F000003000000C
F000003000000C
F000003000000C
F000003000000C
F000003000000C
F800007800001C
F800007800001C
FC0000FC00003C
7C0000FC000038
7E0001FE000078
3F0003FF0001F0
3F800FFFC003F0
1FF03FFFF00FE0
0FFFFFFFFFFFC0
03FFFFFFFFFF00
00FFFFFFFFFC00
ENDCHAR
STARTCHAR 00B8
ENCODING 184
SWIDTH 361 0
DWIDTH 26 0
BBX 28 33 2 -25
BITMAP
01FFFFF0
01FFFFF0
01FFFFF0
01FFFFF0
01E000F0
01E000F0
01E000F0
01E000F0
01E000F0
01E000F0
01E000F0
01E000F0
FFE000F0
FFE000F0
FFE000F0
FFE000F0
F00000F0
F00000F0
F00000F0
F00000F0
F00000F0
F00001E0
F00001E0
F00003E0
F00007C0
F0000FC0
F0001F80
F0003F00
F001FE00
FFFFFC00
FFFFF000
FFFFE000
FFFF0000
ENDCHAR
STARTCHAR 00BA
ENCODING 186
SWIDTH 263 0
DWIDTH 19 0
BBX 54 54 3 7
BITMAP
00FFFFFFFFFC00
03FFFFFFFFFF00
0FFFFFFFFFFFC0
1FF03FFFF00FE0
3FC00FFFC003F0
3F0003FF8001F0
7E0001FE000078
7C0000FC000038
FC0000FC00003C
F800007800001C
F800007800001C
F000003000000C
F000003000000C
F000003000000C
F000003000000C
F000003000000C
F000003000000C
F000003000000C
F800007800001C
F800007800001C
FC0000FC00003C
FC0000FC00003C
FE0001FE00007C
FF0003FF0001FC
FF800FFFC003FC
FFF03FFFF00FFC
FFFFFFFFFFFFFC
FFFFFFFFFFFFFC
FFF03FFFF00FFC
FFC00FFFC003FC
FF0003FF8001FC
FE0001FE00007C
FC0000FC00007C
FC0000FC00003C
F800007800001C
F800007800001C
F000003000000C
F000003000000C
F000003000000C
F000003000000C
F000003000000C
F000003000000C
F000003000000C
F800007800001C
F800007800001C
FC0000FC00003C
7C0000FC000038
7E0001FE000078
3F0003FF0001F0
3F800FFFC003F0
1FF03FFFF00FE0
0FFFFFFFFFFFC0
03FFFFFFFFFF00
00FFFFFFFFFC00
ENDCHAR
STARTCHAR 00BB
ENCODING 187
SWIDTH 263 0
DWIDTH 19 0
BBX 54 54 3 7
BITMAP
00FFFFFFFFFC00
03FFFFFFFFFF00
0FFFFFFFFFFFC0
1FF03FFFF00FE0
3FC00FFFC003F0
3F0003FF8001F0
7E0001FE000078
7C0000FC000038
FC0000FC00003C
F800007800001C
F800007800001C
F000003000000C
F000003000000C
F000003000000C
F000003000000C
F000003000000C
F000003000000C
F000003000000C
F800007800001C
F800007800001C
FC0000FC00003C
FC0000FC00003C
FE0001FE00007C
FF0003FF0001FC
FF800FFFC003FC
FFF03FFFF00FFC
FFFFFFFFFFFFFC
FFFFFFFFFFFFFC
FFF03FFFF00FFC
FFC00FFFC003FC
FF0003FF8001FC
FE0001FE00007C
FC0000FC00007C
FC0000FC00003C
F800007800001C
F800007800001C
F000003000000C
F000003000000C
F000003000000C
F000003000000C
F000003000000C
F000003000000C
F000003000000C
F800007800001C
F800007800001C
FC0000FC00003C
7C0000FC000038
7E0001FE000078
3F0003FF0001F0
3F800FFFC003F0
1FF03FFFF00FE0
0FFFFFFFFFFFC0
03FFFFFFFFFF00
00FFFFFFFFFC00
ENDCHAR
STARTCHAR 00BF
ENCODING 191
SWIDTH 486 0
DWIDTH 35 0
BBX 39 84 0 -10
BITMAP
00003FFFFE
00003FFFFE
00003FFFFE
00003FFFFE
00003FFFFE
00003FFFFE
00003FFFFE
00003FFFFE
00003FFFFE
00003FFFFE
00003FFFFE
00003FFFFE
00003FFFFE
00003FFFFE
00003FFFFE
00003FFFFE
00003FFFFE
00003FFFFE
00003C001E
00003C001E
00003C001E
00003C001E
00003C001E
00003C001E
00003C001E
00003C001E
00007C001E
0003FC001E
000FFC001E
001FFC001E
007FFC001E
01FFFC001E
03FFFC001E
07FFFFFFFE
0FFFFFFFFE
1FFFFFFFFE
3FFFFFFFFE
7FFFFFFFFE
7FFFFFFFFE
7FFFFFFFFE
FFFFFC001E
FFFFFC001E
FFFFFC001E
FFFFF8001E
FFFFC0001E
FFFF00001E
FFFC00001E
FFF000003C
FFC000003C
FF8000007C
FE000000F8
FC000001F0
FC000003F0
F8000007E0
F80001FFC0
F0000FFF00
F0003FFE00
F0003FF800
F0003FF000
F0003FFFFE
F0003FFFFE
F0003FFFFE
F0003FFFFE
F0003C001E
F0003C001E
F0003C001E
F0003C001E
F00000001E
F00000001E
F00000001E
F00000001E
F00000003C
780000003C
780000007C
7C00000078
3E000000F8
3F000001F0
1F800003F0
0FC00007E0
07F8003FC0
03FFFFFF80
01FFFFFE00
007FFFFC00
000FFFE000
ENDCHAR
STARTCHAR 00C0
ENCODING 192
SWIDTH 458 0
DWIDTH 33 0
BBX 38 109 -1 -18
BITMAP
FFFFFE0000
FFFFFF0000
7FFFFF0000
3FFFFF8000
3800078000
1C0007C000
1C0003C000
0E0001E000
0E0001F000
070000F000
070000F800
0380007800
0380007C00
01C0003C00
00C0003E00
00E0001E00
0070001F00
0070000F00
0038000780
00380007C0
001C0003C0
001C0003E0
000E0001E0
00060001F0
0007FFFFF0
000400000C
003C000004
00FFFFFFFC
01FFFFFFFC
03F800003C
07E000003C
0FC000003C
1F0000003C
3E0000003C
3E0000003C
3C0000003C
7C0000003C
780000003C
780000003C
780000003C
780000003C
780000003C
780038003C
780038003C
780038003C
780038003C
780038003C
780038003C
780038003C
780038003C
780038003C
780038003C
780038003C
780038003C
780038003C
780038003C
780038003C
780038003C
780038003C
780038003C
780038003C
780000003C
780000003C
780000003C
780000003C
780000003C
780000003C
780000003C
780000003C
780000003C
780000003C
780000003C
780000003C
780000003C
780000003C
780038003C
780038003C
780038003C
780038003C
780038003C
780038003C
780038003C
780038003C
780038003C
780038003C
780038003C
780038003C
780038003C
780038003C
780038003C
780038003C
7FFFFFFFFC
7FFFFFFFFC
7FFFFFFFFC
7FFFFFFFFC
7FFFFFFFFC
7FFFFFFFFC
7FFFFFFFFC
7FFFFFFFFC
7FFFFFFFFC
7FFFFFFFFC
7FFFFFFFFC
7FFFFFFFFC
7FFFFFFFFC
7FFFFFFFFC
7FFFFFFFFC
7FFFFFFFFC
7FFFFFFFFC
7FFFFFFFFC
ENDCHAR
STARTCHAR 00C1
ENCODING 193
SWIDTH 458 0
DWIDTH 33 0
BBX 40 109 0 -18
BITMAP
00007FFFFF
0000FFFFFE
0001FFFFFE
0001FFFFFC
0003E0007C
0003C000F8
0007C000F0
00078001F0
000F8001E0
000F0003E0
001F0003C0
003E0007C0
003E000780
007C000F80
0078001F00
00F8001F00
00F0003E00
01F0003C00
01E0007C00
03E0007800
03C000F800
07C000F000
0F8001F000
0FFFFFE000
1FFFFFE000
1FFFFFFFF8
3FFFFFFFF8
00FFFFFFF8
03FFFFFFF8
07F8000078
0FC0000078
1F80000078
3F00000078
3E00000078
7C00000078
7800000078
7800000078
F800000078
F000000078
F000000078
F000000078
F000000078
F000000078
F000700078
F000700078
F000700078
F000700078
F000700078
F000700078
F000700078
F000700078
F000700078
F000700078
F000700078
F000700078
F000700078
F000700078
F000700078
F000700078
F000700078
F000700078
F000000078
F000000078
F000000078
F000000078
F000000078
F000000078
F000000078
F000000078
F000000078
F000000078
F000000078
F000000078
F000000078
F000000078
F000700078
F000700078
F000700078
F000700078
F000700078
F000700078
F000700078
F000700078
F000700078
F000700078
F000700078
F000700078
F000700078
F000700078
F000700078
F000700078
FFFFFFFFF8
FFFFFFFFF8
FFFFFFFFF8
FFFFFFFFF8
FFFFFFFFF8
FFFFFFFFF8
FFFFFFFFF8
FFFFFFFFF8
FFFFFFFFF8
FFFFFFFFF8
FFFFFFFFF8
FFFFFFFFF8
FFFFFFFFF8
FFFFFFFFF8
FFFFFFFFF8
FFFFFFFFF8
FFFFFFFFF8
FFFFFFFFF8
ENDCHAR
STARTCHAR 00C2
ENCODING 194
SWIDTH 458 0
DWIDTH 33 0
BBX 60 107 -10 -18
BITMAP
000000FFE0000000
000001FFF0000000
000003FFF8000000
000007FFFC000000
00000FC07E000000
00001F803F000000
00003F001F800000
00007E000FC00000
0000FC0007E00000
0001F80003F00000
0003F00001F80000
0007E000007C0000
000FC000003E0000
001F8000001F0000
003F0000000F8000
007E00000007C000
00FC00000003E000
01F800000001F000
03F000000000F800
07E0000400007C00
0FC0000E00003E00
1FFFFFFFFFFFFF00
3FFFFFFFFFFFFFC0
7FFFFFFFFFFFFFE0
FFFFFFFFFFFFFFF0
00003FFFFFFE0000
0000FFFFFFFE0000
0001FE00001E0000
0003F000001E0000
0007E000001E0000
000FC000001E0000
000F8000001E0000
001F0000001E0000
001E0000001E0000
001E0000001E0000
003E0000001E0000
003C0000001E0000
003C0000001E0000
003C0000001E0000
003C0000001E0000
003C0000001E0000
003C001C001E0000
003C001C001E0000
003C001C001E0000
003C001C001E0000
003C001C001E0000
003C001C001E0000
003C001C001E0000
003C001C001E0000
003C001C001E0000
003C001C001E0000
003C001C001E0000
003C001C001E0000
003C001C001E0000
003C001C001E0000
003C001C001E0000
003C001C001E0000
003C001C001E0000
003C001C001E0000
003C0000001E0000
003C0000001E0000
003C0000001E0000
003C0000001E0000
003C0000001E0000
003C0000001E0000
003C0000001E0000
003C0000001E0000
003C0000001E0000
003C0000001E0000
003C0000001E0000
003C0000001E0000
003C0000001E0000
003C0000001E0000
003C001C001E0000
003C001C001E0000
003C001C001E0000
003C001C001E0000
003C001C001E0000
003C001C001E0000
003C001C001E0000
003C001C001E0000
003C001C001E0000
003C001C001E0000
003C001C001E0000
003C001C001E0000
003C001C001E0000
003C001C001E0000
003C001C001E0000
003C001C001E0000
003FFFFFFFFE0000
003FFFFFFFFE0000
003FFFFFFFFE0000
003FFFFFFFFE0000
003FFFFFFFFE0000
003FFFFFFFFE0000
003FFFFFFFFE0000
003FFFFFFFFE0000
003FFFFFFFFE0000
003FFFFFFFFE0000
003FFFFFFFFE0000
003FFFFFFFFE0000
003FFFFFFFFE0000
003FFFFFFFFE0000
003FFFFFFFFE0000
003FFFFFFFFE0000
003FFFFFFFFE0000
003FFFFFFFFE0000
ENDCHAR
STARTCHAR 00C3
ENCODING 195
SWIDTH 458 0
DWIDTH 33 0
BBX 37 109 0 -18
BITMAP
0600000000
07C00FE000
07F07FFC00
0FFFFFFF00
0FFFFFFF80
0F7FF03FC0
0E0FC00FE0
1E030003E0
1E000001F0
1E000000F0
1E000000F0
1E000000F8
1E00000078
1E00000078
1E00000078
1E00000078
1F00000078
0F00000078
0F00000078
0F80000078
07C001C0F0
07E003F0F0
03FC0FFEF0
01FFFFFFF0
00FFFF7FE0
003FFFFFF8
007FFFFFF8
00FFFFFFF8
03FFFFFFF8
07F8000078
0FC0000078
1F80000078
3F00000078
3E00000078
7C00000078
7800000078
7800000078
F800000078
F000000078
F000000078
F000000078
F000000078
F000000078
F000700078
F000700078
F000700078
F000700078
F000700078
F000700078
F000700078
F000700078
F000700078
F000700078
F000700078
F000700078
F000700078
F000700078
F000700078
F000700078
F000700078
F000700078
F000000078
F000000078
F000000078
F000000078
F000000078
F000000078
F000000078
F000000078
F000000078
F000000078
F000000078
F000000078
F000000078
F000000078
F000700078
F000700078
F000700078
F000700078
F000700078
F000700078
F000700078
F000700078
F000700078
F000700078
F000700078
F000700078
F000700078
F000700078
F000700078
F000700078
FFFFFFFFF8
FFFFFFFFF8
FFFFFFFFF8
FFFFFFFFF8
FFFFFFFFF8
FFFFFFFFF8
FFFFFFFFF8
FFFFFFFFF8
FFFFFFFFF8
FFFFFFFFF8
FFFFFFFFF8
FFFFFFFFF8
FFFFFFFFF8
FFFFFFFFF8
FFFFFFFFF8
FFFFFFFFF8
FFFFFFFFF8
FFFFFFFFF8
ENDCHAR
STARTCHAR 00C4
ENCODING 196
SWIDTH 458 0
DWIDTH 33 0
BBX 38 105 -1 -18
BITMAP
FFFFFFFFFC
FFFFFFFFFC
FFFFFFFFFC
FFFFFFFFFC
F00078003C
F00078003C
F00078003C
F00078003C
F00078003C
F00078003C
F00078003C
F00078003C
F00078003C
F00078003C
F00078003C
F00078003C
F00078003C
F00078003C
FFFFFFFFFC
FFFFFFFFFC
FFFFFFFFFC
FFFFFFFFFC
003FFFFFFC
007FFFFFFC
01FFFFFFFC
03FC00003C
07E000003C
0FC000003C
1F8000003C
1F0000003C
3E0000003C
3C0000003C
3C0000003C
7C0000003C
780000003C
780000003C
780000003C
780000003C
780000003C
780038003C
780038003C
780038003C
780038003C
780038003C
780038003C
780038003C
780038003C
780038003C
780038003C
780038003C
780038003C
780038003C
780038003C
780038003C
780038003C
780038003C
780038003C
780000003C
780000003C
780000003C
780000003C
780000003C
780000003C
780000003C
780000003C
780000003C
780000003C
780000003C
780000003C
780000003C
780000003C
780038003C
780038003C
780038003C
780038003C
780038003C
780038003C
780038003C
780038003C
780038003C
780038003C
780038003C
780038003C
780038003C
780038003C
780038003C
780038003C
7FFFFFFFFC
7FFFFFFFFC
7FFFFFFFFC
7FFFFFFFFC
7FFFFFFFFC
7FFFFFFFFC
7FFFFFFFFC
7FFFFFFFFC
7FFFFFFFFC
7FFFFFFFFC
7FFFFFFFFC
7FFFFFFFFC
7FFFFFFFFC
7FFFFFFFFC
7FFFFFFFFC
7FFFFFFFFC
7FFFFFFFFC
7FFFFFFFFC
ENDCHAR
STARTCHAR 00C5
ENCODING 197
SWIDTH 458 0
DWIDTH 33 0
BBX 37 109 0 -18
BITMAP
0001FFC000
000FFFF800
001FFFFC00
003FFFFE00
007F007F00
00FC001F80
00F80007C0
01F00007C0
01E00003C0
03E00001E0
03C00001E0
03C01C01E0
03C03C01E0
03C03C01E0
03C01C01E0
03C00001E0
03C00001E0
03E00001E0
01E00003C0
01F00003C0
00F00007C0
00FC000F80
007F003F00
003FFFFE00
001FFFFC00
000FFFFFF8
007FFFFFF8
00FFFFFFF8
03FFFFFFF8
07F8000078
0FC0000078
1F80000078
3F00000078
3E00000078
7C00000078
7800000078
7800000078
F800000078
F000000078
F000000078
F000000078
F000000078
F000000078
F000700078
F000700078
F000700078
F000700078
F000700078
F000700078
F000700078
F000700078
F000700078
F000700078
F000700078
F000700078
F000700078
F000700078
F000700078
F000700078
F000700078
F000700078
F000000078
F000000078
F000000078
F000000078
F000000078
F000000078
F000000078
F000000078
F000000078
F000000078
F000000078
F000000078
F000000078
F000000078
F000700078
F000700078
F000700078
F000700078
F000700078
F000700078
F000700078
F000700078
F000700078
F000700078
F000700078
F000700078
F000700078
F000700078
F000700078
F000700078
FFFFFFFFF8
FFFFFFFFF8
FFFFFFFFF8
FFFFFFFFF8
FFFFFFFFF8
FFFFFFFFF8
FFFFFFFFF8
FFFFFFFFF8
FFFFFFFFF8
FFFFFFFFF8
FFFFFFFFF8
FFFFFFFFF8
FFFFFFFFF8
FFFFFFFFF8
FFFFFFFFF8
FFFFFFFFF8
FFFFFFFFF8
FFFFFFFFF8
ENDCHAR
STARTCHAR 00C6
ENCODING 198
SWIDTH 750 0
DWIDTH 54 0
BBX 58 89 1 -18
BITMAP
000FFFC0FFF80000
007FFFF7FFFF0000
01FFFFFFFFFFC000
03FFFFFFFFFFE000
07F8003E0007F000
0FC000080001F800
1F80000000007C00
3F00000000003E00
3E00000000001F00
7C00000000001F00
7800000000000F80
F800000000000780
F000000000000780
F000000000000780
F0000000000007C0
F0000000000003C0
F0000000000003C0
F0000000000003C0
F0007C000E0003C0
F0007C000E0003C0
F0007C000E0003C0
F0007C000E0003C0
F0007C000E0003C0
F0007C000E0003C0
F0007C000E0003C0
F0007C000E0003C0
F0007C000E0003C0
F0007C000E0003C0
F0007C000E0003C0
F0007C000E0003C0
F0007C000E0003C0
F0000000000003C0
F0000000000003C0
F0000000000003C0
F0000000000003C0
F0000000000003C0
F0000000000003C0
F0000000000003C0
F0000000000003C0
F0000000000003C0
F0000000000003C0
F0000000000003C0
F0000000000003C0
F0000000000003C0
F0007C000FFFFFC0
F0007C000FFFFFC0
F0007C000FFFFFC0
F0007C000FFFFFC0
F0007C000FFFFFC0
F0007C000FFFFFC0
F0007C000E0003C0
F0007C000E0003C0
F0007C000E0003C0
F0007C000E0003C0
F0007C000E0003C0
F0007C000E0003C0
F0007C000E0003C0
F0007C00000003C0
F0007C00000003C0
F0007C00000003C0
F0007C00000007C0
F0007C00000007C0
F0007C00000007C0
F0007E0000000FC0
F0007E0000000FC0
F0007F0000001FC0
F0007F8000001FC0
F0007FC000003FC0
F0007FE00000FFC0
F0007FF00001FFC0
F0007FFE0007FFC0
FFFFFFFFFFFFFFC0
FFFFFFFFFFFFFFC0
FFFFFFFFFFFFFFC0
FFFFFFFFFFFFFFC0
FFFFFFFFFFFFFF80
FFFFFFFFFFFFFF80
FFFFFFFFFFFFFF80
FFFFFFFFFFFFFF80
FFFFFFFFFFFFFF00
FFFFFFFFFFFFFF00
FFFFFFFFFFFFFE00
FFFFFFFFFFFFFC00
FFFFFBFFFFFFF800
FFFFF9FFFFFFF000
FFFFF8FFFFFFE000
FFFFF87FFFFFC000
FFFFF81FFFFF0000
FFFFF803FFF80000
ENDCHAR
STARTCHAR 00C7
ENCODING 199
SWIDTH 458 0
DWIDTH 33 0
BBX 37 105 0 -39
BITMAP
000FFF8000
007FFFF000
01FFFFF800
03FFFFFE00
07F800FF00
0FC0003F80
1F80000FC0
3F000007C0
3E000003E0
7C000001F0
78000001F0
78000000F0
F8000000F8
F000000078
F000000078
F000000078
F000000078
F000600078
F000600078
F000600078
F000600078
F000600078
F000600078
F000600078
F000600078
F000600078
F000600078
F000600078
F000600078
F000600078
F000600078
F000600078
F000600078
F000600078
F000600078
F000600078
F0007FFFF8
F0007FFFF8
F0007FFFF8
F000600078
F000600078
F000600078
F000600078
F000600078
F000600078
F000600078
F000600078
F000600078
F000600078
F000600078
F000600078
F000600078
F000000078
F000000078
F000000078
F000000078
F000000078
F0000000F8
78000000F8
78000000F8
3C000001F8
3E000003F8
1E000007F8
1F00000FF8
0FC0001FF8
07F0003FF8
01F8003FF8
00F8003FF8
0078003FF8
0078003FF8
3FF8003FF8
3FF8003FF8
3FF8003FF0
3FF8003FF0
3C00003FF0
3C00003FE0
3C00003FC0
3C00003FC0
3C00007F80
3C00007F00
3C0000FE00
3C0000FC00
3C0001FC00
3C0003FC00
3C0007FC00
3C000FFC00
3C007FFC00
3FFFFFFC00
3FFFFFFC00
3FFFFFFC00
3FFFFFFC00
3FFFFFFC00
3FFFFFFC00
3FFFFFF800
3FFFFFF800
3FFFFFF800
3FFFFFF000
3FFFFFE000
3FFFFFE000
3FFFFFC000
3FFFFF8000
3FFFFF0000
3FFFFC0000
3FFFF80000
3FFFC00000
ENDCHAR
STARTCHAR 00C8
ENCODING 200
SWIDTH 458 0
DWIDTH 33 0
BBX 38 109 -1 -18
BITMAP
FFFFFE0000
FFFFFF0000
7FFFFF0000
3FFFFF8000
3800078000
1C0007C000
1C0003C000
0E0001E000
0E0001F000
070000F000
070000F800
0380007800
0380007C00
01C0003C00
00C0003E00
00E0001E00
0070001F00
0070000F00
0038000780
00380007C0
001C0003C0
001C0003E0
000E0001E0
00060001F0
0007FFFFF0
0004007FF8
003C000FF8
00FFFFFC00
01FFFFFE00
03F8007F80
07E0001FC0
0FC00007C0
1F000003E0
3E000001F0
3E000001F0
3C000000F8
7C00000078
7800000078
7800000078
780000007C
780000003C
780000003C
780038003C
780038003C
780038003C
780038003C
780038003C
780038003C
780038003C
780038003C
780038003C
780038003C
780038003C
780038003C
780038003C
780038003C
780038003C
780038003C
780038003C
780038003C
780038003C
780000003C
780000003C
780000003C
780000003C
780000003C
780000003C
780000003C
780000003C
780000003C
780000003C
780000003C
780000003C
780000003C
780000003C
78003FFFFC
78003FFFFC
780000003C
780000003C
780000003C
780000003C
780000003C
780000003C
7C0000003C
7C0000003C
7E0000003C
7E0000003C
7F0000003C
7F8000003C
7FE000003C
7FF800003C
7FFFFFFFFC
7FFFFFFFFC
7FFFFFFFFC
7FFFFFFFFC
7FFFFFFFFC
7FFFFFFFFC
7FFFFFFFFC
3FFFFFFFFC
3FFFFFFFFC
3FFFFFFFFC
1FFFFFFFFC
0FFFFFFFFC
07FFFFFFFC
03FFFFFFFC
01FFFFFFFC
00FFFFFFFC
003FFFFFFC
0007FFFFFC
ENDCHAR
STARTCHAR 00C9
ENCODING 201
SWIDTH 458 0
DWIDTH 33 0
BBX 40 109 0 -18
BITMAP
00007FFFFF
0000FFFFFE
0001FFFFFE
0001FFFFFC
0003E0007C
0003C000F8
0007C000F0
00078001F0
000F8001E0
000F0003E0
001F0003C0
003E0007C0
003E000780
007C000F80
0078001F00
00F8001F00
00F0003E00
01F0003C00
01E0007C00
03E0007800
03C000F800
07C000F000
0F8001F000
0FFFFFE000
1FFFFFE000
1FFFFFC000
3FFFFFF000
00FFFFF800
03FFFFFE00
07F800FF00
0FC0001F80
1F80000FC0
3F000007C0
3E000003E0
7C000001F0
78000001F0
78000000F0
F8000000F8
F000000078
F000000078
F000000078
F000000078
F000000078
F000700078
F000700078
F000700078
F000700078
F000700078
F000700078
F000700078
F000700078
F000700078
F000700078
F000700078
F000700078
F000700078
F000700078
F000700078
F000700078
F000700078
F000700078
F000000078
F000000078
F000000078
F000000078
F000000078
F000000078
F000000078
F000000078
F000000078
F000000078
F000000078
F000000078
F000000078
F000000078
F0007FFFF8
F0007FFFF8
F000000078
F000000078
F000000078
F000000078
F000000078
F800000078
F800000078
F800000078
FC00000078
FE00000078
FF00000078
FF80000078
FFC0000078
FFF8000078
FFFFFFFFF8
FFFFFFFFF8
FFFFFFFFF8
FFFFFFFFF8
FFFFFFFFF8
FFFFFFFFF8
7FFFFFFFF8
7FFFFFFFF8
7FFFFFFFF8
3FFFFFFFF8
3FFFFFFFF8
1FFFFFFFF8
0FFFFFFFF8
07FFFFFFF8
03FFFFFFF8
01FFFFFFF8
007FFFFFF8
000FFFFFF8
ENDCHAR
STARTCHAR 00CA
ENCODING 202
SWIDTH 458 0
DWIDTH 33 0
BBX 60 107 -10 -18
BITMAP
000000FFE0000000
000001FFF0000000
000003FFF8000000
000007FFFC000000
00000FC07E000000
00001F803F000000
00003F001F800000
00007E000FC00000
0000FC0007E00000
0001F80003F00000
0003F00001F80000
0007E000007C0000
000FC000003E0000
001F8000001F0000
003F0000000F8000
007E00000007C000
00FC00000003E000
01F800000001F000
03F000000000F800
07E0000400007C00
0FC0000E00003E00
1FFFFFFFFFFFFF00
3FFFFFFFFFFFFFC0
7FFFFFFFFFFFFFE0
FFFFFFFFFFFFFFF0
00003FFFFE000000
0000FFFFFF800000
0001FE003FC00000
0003F00007E00000
0007E00003F00000
000FC00001F00000
000F800000F80000
001F0000007C0000
001E0000007C0000
001E0000003C0000
003E0000003E0000
003C0000001E0000
003C0000001E0000
003C0000001E0000
003C0000001E0000
003C0000001E0000
003C001C001E0000
003C001C001E0000
003C001C001E0000
003C001C001E0000
003C001C001E0000
003C001C001E0000
003C001C001E0000
003C001C001E0000
003C001C001E0000
003C001C001E0000
003C001C001E0000
003C001C001E0000
003C001C001E0000
003C001C001E0000
003C001C001E0000
003C001C001E0000
003C001C001E0000
003C001C001E0000
003C0000001E0000
003C0000001E0000
003C0000001E0000
003C0000001E0000
003C0000001E0000
003C0000001E0000
003C0000001E0000
003C0000001E0000
003C0000001E0000
003C0000001E0000
003C0000001E0000
003C0000001E0000
003C0000001E0000
003C0000001E0000
003C001FFFFE0000
003C001FFFFE0000
003C0000001E0000
003C0000001E0000
003C0000001E0000
003C0000001E0000
003C0000001E0000
003E0000001E0000
003E0000001E0000
003E0000001E0000
003F0000001E0000
003F8000001E0000
003FC000001E0000
003FE000001E0000
003FF000001E0000
003FFE00001E0000
003FFFFFFFFE0000
003FFFFFFFFE0000
003FFFFFFFFE0000
003FFFFFFFFE0000
003FFFFFFFFE0000
003FFFFFFFFE0000
001FFFFFFFFE0000
001FFFFFFFFE0000
001FFFFFFFFE0000
000FFFFFFFFE0000
000FFFFFFFFE0000
0007FFFFFFFE0000
0003FFFFFFFE0000
0001FFFFFFFE0000
0000FFFFFFFE0000
00007FFFFFFE0000
00001FFFFFFE0000
000003FFFFFE0000
ENDCHAR
STARTCHAR 00CB
ENCODING 203
SWIDTH 458 0
DWIDTH 33 0
BBX 42 105 0 -18
BITMAP
0FFFFFFFFFC0
0FFFFFFFFFC0
0FFFFFFFFFC0
0FFFFFFFFFC0
0F00078003C0
0F00078003C0
0F00078003C0
0F00078003C0
0F00078003C0
0F00078003C0
0F00078003C0
0F00078003C0
0F00078003C0
0F00078003C0
0F00078003C0
0F00078003C0
0F00078003C0
0F00078003C0
0FFFFFFFFFC0
0FFFFFFFFFC0
0FFFFFFFFFC0
0FFFFFFFFFC0
007FFFF00000
00FFFFF80000
03FFFFFE0000
07F800FF0000
0FC0001F8000
1F80000FC000
3F000007C000
3E000003E000
7C000001F000
78000001F000
78000000F000
F8000000F800
F00000007800
F00000007800
F00000007800
F00000007800
F00000007800
F00070007800
F00070007800
F00070007800
F00070007800
F00070007800
F00070007800
F00070007800
F00070007800
F00070007800
F00070007800
F00070007800
F00070007800
F00070007800
F00070007800
F00070007800
F00070007800
F00070007800
F00070007800
F00000007800
F00000007800
F00000007800
F00000007800
F00000007800
F00000007800
F00000007800
F00000007800
F00000007800
F00000007800
F00000007800
F00000007800
F00000007800
F00000007800
F0007FFFF800
F0007FFFF800
F00000007800
F00000007800
F00000007800
F00000007800
F00000007800
F80000007800
F80000007800
F80000007800
FC0000007800
FE0000007800
FF0000007800
FF8000007800
FFC000007800
FFF800007800
FFFFFFFFF800
FFFFFFFFF800
FFFFFFFFF800
FFFFFFFFF800
FFFFFFFFF800
FFFFFFFFF800
7FFFFFFFF800
7FFFFFFFF800
7FFFFFFFF800
3FFFFFFFF800
3FFFFFFFF800
1FFFFFFFF800
0FFFFFFFF800
07FFFFFFF800
03FFFFFFF800
01FFFFFFF800
007FFFFFF800
000FFFFFF800
ENDCHAR
STARTCHAR 00CC
ENCODING 204
SWIDTH 263 0
DWIDTH 19 0
BBX 38 109 -12 -18
BITMAP
FFFFFE0000
7FFFFF0000
7FFFFF8000
3FFFFF8000
380007C000
1C0003C000
1C0003E000
0E0001E000
0F0001F000
070000F000
0380007800
0380007800
01C0003C00
01C0003C00
00E0001E00
00E0001E00
0070000F00
0070000F00
0038000780
003C0007C0
001C0003C0
001E0001E0
000E0001E0
000F0000F0
0007FFFFF0
0004000038
0004000038
000200003C
0003FFFFC0
0003C003C0
0003C003C0
0003C003C0
0003C003C0
0003C003C0
0003C003C0
0003C003C0
0003C003C0
0003C003C0
0003C003C0
0003C003C0
0003C003C0
0003C003C0
0003C003C0
0003C003C0
0003C003C0
0003C003C0
0003C003C0
0003C003C0
0003C003C0
0003C003C0
0003C003C0
0003C003C0
0003C003C0
0003C003C0
0003C003C0
0003C003C0
0003C003C0
0003C003C0
0003C003C0
0003C003C0
0003C003C0
0003C003C0
0003C003C0
0003C003C0
0003C003C0
0003C003C0
0003C003C0
0003C003C0
0003C003C0
0003C003C0
0003C003C0
0003C003C0
0003C003C0
0003C003C0
0003C003C0
0003C003C0
0003C003C0
0003C003C0
0003C003C0
0003C003C0
0003C003C0
0003C003C0
0003C003C0
0003C003C0
0003C003C0
0003C003C0
0003C003C0
0003C003C0
0003C003C0
0003C003C0
0003C003C0
0003FFFFC0
0003FFFFC0
0003FFFFC0
0003FFFFC0
0003FFFFC0
0003FFFFC0
0003FFFFC0
0003FFFFC0
0003FFFFC0
0003FFFFC0
0003FFFFC0
0003FFFFC0
0003FFFFC0
0003FFFFC0
0003FFFFC0
0003FFFFC0
0003FFFFC0
0003FFFFC0
ENDCHAR
STARTCHAR 00CD
ENCODING 205
SWIDTH 236 0
DWIDTH 17 0
BBX 38 109 -5 -18
BITMAP
0001FFFFFC
0003FFFFF8
0007FFFFF8
0007FFFFF0
000F8001F0
000F0003E0
001F0003C0
001E0007C0
003E000780
003C000F80
007C000F00
00F8001F00
00F8001E00
01F0003E00
01E0007C00
03E0007C00
03C000F800
07C000F000
078001F000
0F8001E000
0F0003E000
1F0003C000
3E0007C000
3FFFFF8000
7FFFFF8000
7FFFFFC000
FFFFFFC000
07FFFFC000
07FFFFC000
078003C000
078003C000
078003C000
078003C000
078003C000
078003C000
078003C000
078003C000
078003C000
078003C000
078003C000
078003C000
078003C000
078003C000
078003C000
078003C000
078003C000
078003C000
078003C000
078003C000
078003C000
078003C000
078003C000
078003C000
078003C000
078003C000
078003C000
078003C000
078003C000
078003C000
078003C000
078003C000
078003C000
078003C000
078003C000
078003C000
078003C000
078003C000
078003C000
078003C000
078003C000
078003C000
078003C000
078003C000
078003C000
078003C000
078003C000
078003C000
078003C000
078003C000
078003C000
078003C000
078003C000
078003C000
078003C000
078003C000
078003C000
078003C000
078003C000
078003C000
078003C000
078003C000
07FFFFC000
07FFFFC000
07FFFFC000
07FFFFC000
07FFFFC000
07FFFFC000
07FFFFC000
07FFFFC000
07FFFFC000
07FFFFC000
07FFFFC000
07FFFFC000
07FFFFC000
07FFFFC000
07FFFFC000
07FFFFC000
07FFFFC000
07FFFFC000
ENDCHAR
STARTCHAR 00CE
ENCODING 206
SWIDTH 236 0
DWIDTH 17 0
BBX 60 107 -19 -18
BITMAP
000000FFE0000000
000001FFF0000000
000003FFF8000000
000007FFFC000000
00000FC07E000000
00001F803F000000
00003F001F800000
00007E000FC00000
0000FC0007E00000
0001F80003F00000
0003F00001F80000
0007E000007C0000
000FC000003E0000
001F8000001F0000
003F0000000F8000
007E00000007C000
00FC00000003E000
01F800000001F000
03F000000000F800
07E0000400007C00
0FC0000E00003E00
1FFFFFFFFFFFFF00
3FFFFFFFFFFFFFC0
7FFFFFFFFFFFFFE0
FFFFFFFFFFFFFFF0
00001FFFFF000000
00001FFFFF000000
00001E000F000000
00001E000F000000
00001E000F000000
00001E000F000000
00001E000F000000
00001E000F000000
00001E000F000000
00001E000F000000
00001E000F000000
00001E000F000000
00001E000F000000
00001E000F000000
00001E000F000000
00001E000F000000
00001E000F000000
00001E000F000000
00001E000F000000
00001E000F000000
00001E000F000000
00001E000F000000
00001E000F000000
00001E000F000000
00001E000F000000
00001E000F000000
00001E000F000000
00001E000F000000
00001E000F000000
00001E000F000000
00001E000F000000
00001E000F000000
00001E000F000000
00001E000F000000
00001E000F000000
00001E000F000000
00001E000F000000
00001E000F000000
00001E000F000000
00001E000F000000
00001E000F000000
00001E000F000000
00001E000F000000
00001E000F000000
00001E000F000000
00001E000F000000
00001E000F000000
00001E000F000000
00001E000F000000
00001E000F000000
00001E000F000000
00001E000F000000
00001E000F000000
00001E000F000000
00001E000F000000
00001E000F000000
00001E000F000000
00001E000F000000
00001E000F000000
00001E000F000000
00001E000F000000
00001E000F000000
00001E000F000000
00001E000F000000
00001FFFFF000000
00001FFFFF000000
00001FFFFF000000
00001FFFFF000000
00001FFFFF000000
00001FFFFF000000
00001FFFFF000000
00001FFFFF000000
00001FFFFF000000
00001FFFFF000000
00001FFFFF000000
00001FFFFF000000
00001FFFFF000000
00001FFFFF000000
00001FFFFF000000
00001FFFFF000000
00001FFFFF000000
00001FFFFF000000
ENDCHAR
STARTCHAR 00CF
ENCODING 207
SWIDTH 236 0
DWIDTH 17 0
BBX 38 105 -9 -18
BITMAP
FFFFFFFFFC
FFFFFFFFFC
FFFFFFFFFC
FFFFFFFFFC
F00078003C
F00078003C
F00078003C
F00078003C
F00078003C
F00078003C
F00078003C
F00078003C
F00078003C
F00078003C
F00078003C
F00078003C
F00078003C
F00078003C
FFFFFFFFFC
FFFFFFFFFC
FFFFFFFFFC
FFFFFFFFFC
007FFFFC00
007FFFFC00
007FFFFC00
0078003C00
0078003C00
0078003C00
0078003C00
0078003C00
0078003C00
0078003C00
0078003C00
0078003C00
0078003C00
0078003C00
0078003C00
0078003C00
0078003C00
0078003C00
0078003C00
0078003C00
0078003C00
0078003C00
0078003C00
0078003C00
0078003C00
0078003C00
0078003C00
0078003C00
0078003C00
0078003C00
0078003C00
0078003C00
0078003C00
0078003C00
0078003C00
0078003C00
0078003C00
0078003C00
0078003C00
0078003C00
0078003C00
0078003C00
0078003C00
0078003C00
0078003C00
0078003C00
0078003C00
0078003C00
0078003C00
0078003C00
0078003C00
0078003C00
0078003C00
0078003C00
0078003C00
0078003C00
0078003C00
0078003C00
0078003C00
0078003C00
0078003C00
0078003C00
0078003C00
0078003C00
0078003C00
007FFFFC00
007FFFFC00
007FFFFC00
007FFFFC00
007FFFFC00
007FFFFC00
007FFFFC00
007FFFFC00
007FFFFC00
007FFFFC00
007FFFFC00
007FFFFC00
007FFFFC00
007FFFFC00
007FFFFC00
007FFFFC00
007FFFFC00
007FFFFC00
ENDCHAR
STARTCHAR 00D0
ENCODING 208
SWIDTH 263 0
DWIDTH 19 0
BBX 54 54 3 7
BITMAP
00FFFFFFFFFC00
03FFFFFFFFFF00
0FFFFFFFFFFFC0
1FF03FFFF00FE0
3FC00FFFC003F0
3F0003FF8001F0
7E0001FE000078
7C0000FC000038
FC0000FC00003C
F800007800001C
F800007800001C
F000003000000C
F000003000000C
F000003000000C
F000003000000C
F000003000000C
F000003000000C
F000003000000C
F800007800001C
F800007800001C
FC0000FC00003C
FC0000FC00003C
FE0001FE00007C
FF0003FF0001FC
FF800FFFC003FC
FFF03FFFF00FFC
FFFFFFFFFFFFFC
FFFFFFFFFFFFFC
FFF03FFFF00FFC
FFC00FFFC003FC
FF0003FF8001FC
FE0001FE00007C
FC0000FC00007C
FC0000FC00003C
F800007800001C
F800007800001C
F000003000000C
F000003000000C
F000003000000C
F000003000000C
F000003000000C
F000003000000C
F000003000000C
F800007800001C
F800007800001C
FC0000FC00003C
7C0000FC000038
7E0001FE000078
3F0003FF0001F0
3F800FFFC003F0
1FF03FFFF00FE0
0FFFFFFFFFFFC0
03FFFFFFFFFF00
00FFFFFFFFFC00
ENDCHAR
STARTCHAR 00D1
ENCODING 209
SWIDTH 458 0
DWIDTH 33 0
BBX 37 109 0 -18
BITMAP
0600000000
07C00FE000
07F07FFC00
0FFFFFFF00
0FFFFFFF80
0F7FF03FC0
0E0FC00FE0
1E030003E0
1E000001F0
1E000000F0
1E000000F0
1E000000F8
1E00000078
1E00000078
1E00000078
1E00000078
1F00000078
0F00000078
0F00000078
0F80000078
07C001C0F0
07E003F0F0
03FC0FFEF0
01FFFFFFF0
00FFFF7FE0
003FFF8FE0
007FFFF3E0
00FFFFF840
03FFFFFE00
07F800FF00
0FC0001F80
1F80000FC0
3F000007C0
3E000003E0
7C000001F0
78000001F0
78000000F0
F8000000F8
F000000078
F000000078
F000000078
F000000078
F000600078
F000600078
F000600078
F000600078
F000600078
F000600078
F000600078
F000600078
F000600078
F000600078
F000600078
F000600078
F000600078
F000600078
F000600078
F000600078
F000600078
F000600078
F000600078
F000600078
F000600078
F000600078
F000600078
F000600078
F000600078
F000600078
F000600078
F000600078
F000600078
F000600078
F000600078
F000600078
F000600078
F000600078
F000600078
F000600078
F000600078
F000600078
F000600078
F000600078
F000600078
F000600078
F000600078
F000600078
F000600078
F000600078
F000600078
F000600078
F000600078
FFFFFFFFF8
FFFFFFFFF8
FFFFFFFFF8
FFFFFFFFF8
FFFFFFFFF8
FFFFFFFFF8
FFFFFFFFF8
FFFFFFFFF8
FFFFFFFFF8
FFFFFFFFF8
FFFFFFFFF8
FFFFFFFFF8
FFFFFFFFF8
FFFFFFFFF8
FFFFFFFFF8
FFFFFFFFF8
FFFFFFFFF8
FFFFFFFFF8
ENDCHAR
STARTCHAR 00D2
ENCODING 210
SWIDTH 458 0
DWIDTH 33 0
BBX 40 109 -3 -18
BITMAP
FFFFFF0000
7FFFFF0000
3FFFFF8000
3FFFFF8000
1C0007C000
1C0003C000
0E0001E000
0E0001F000
070000F000
070000F800
0380007800
0180007C00
01C0003C00
00C0003E00
00E0001E00
0070001F00
0070000F00
0038000780
00380007C0
001C0003C0
001C0003E0
000E0001E0
00060001F0
00070000F0
0003FFFFF8
0002000FF8
000E0001FC
001FFFFF80
007FFFFFC0
00FF001FE0
01FC0003F0
03F00001F8
03E00000FC
07C000007C
078000003E
0F8000001E
0F0000001F
0F0000000F
1F0000000F
1E0000000F
1E0000000F
1E0000000F
1E000E000F
1E000E000F
1E000E000F
1E000E000F
1E000E000F
1E000E000F
1E000E000F
1E000E000F
1E000E000F
1E000E000F
1E000E000F
1E000E000F
1E000E000F
1E000E000F
1E000E000F
1E000E000F
1E000E000F
1E000E000F
1E000E000F
1E000E000F
1E000E000F
1E000E000F
1E000E000F
1E000E000F
1E000E000F
1E000E000F
1E000E000F
1E000E000F
1E000E000F
1E000E000F
1E000E000F
1E000E000F
1E000E000F
1E000E000F
1E000E000F
1E0000000F
1E0000000F
1E0000000F
1E0000000F
1E0000000F
1F0000000F
1F0000001F
1F8000001F
1F8000003F
1FC000007F
1FE00000FF
1FF00001FF
1FFC0003FF
1FFF001FFF
1FFFFFFFFF
1FFFFFFFFF
1FFFFFFFFF
1FFFFFFFFF
1FFFFFFFFF
0FFFFFFFFF
0FFFFFFFFF
0FFFFFFFFE
07FFFFFFFE
07FFFFFFFC
03FFFFFFFC
03FFFFFFF8
01FFFFFFF0
00FFFFFFE0
007FFFFFC0
001FFFFF80
000FFFFE00
0001FFF000
ENDCHAR
STARTCHAR 00D3
ENCODING 211
SWIDTH 458 0
DWIDTH 33 0
BBX 40 109 0 -18
BITMAP
00007FFFFF
0000FFFFFE
0001FFFFFE
0001FFFFFC
0003E0007C
0003C000F8
0007C000F0
00078001F0
000F8001E0
000F0003E0
001F0003C0
003E0007C0
003E000780
007C000F80
0078001F00
00F8001F00
00F0003E00
01F0003C00
01E0007C00
03E0007800
03C000F800
07C000F000
0F8001F000
0FFFFFE000
1FFFFFE000
1FFFFFC000
3FFFFFF000
00FFFFF800
03FFFFFE00
07F800FF00
0FC0001F80
1F80000FC0
3F000007C0
3E000003E0
7C000001F0
78000001F0
78000000F0
F8000000F8
F000000078
F000000078
F000000078
F000000078
F000000078
F000700078
F000700078
F000700078
F000700078
F000700078
F000700078
F000700078
F000700078
F000700078
F000700078
F000700078
F000700078
F000700078
F000700078
F000700078
F000700078
F000700078
F000700078
F000700078
F000700078
F000700078
F000700078
F000700078
F000700078
F000700078
F000700078
F000700078
F000700078
F000700078
F000700078
F000700078
F000700078
F000700078
F000700078
F000000078
F000000078
F000000078
F000000078
F000000078
F8000000F8
F8000000F8
F8000000F8
FC000001F8
FE000003F8
FF000007F8
FF80000FF8
FFC0001FF8
FFF800FFF8
FFFFFFFFF8
FFFFFFFFF8
FFFFFFFFF8
FFFFFFFFF8
FFFFFFFFF8
FFFFFFFFF8
7FFFFFFFF0
7FFFFFFFF0
7FFFFFFFF0
3FFFFFFFE0
3FFFFFFFE0
1FFFFFFFC0
0FFFFFFF80
07FFFFFF00
03FFFFFE00
01FFFFFC00
007FFFF000
000FFF8000
ENDCHAR
STARTCHAR 00D4
ENCODING 212
SWIDTH 458 0
DWIDTH 33 0
BBX 60 107 -10 -18
BITMAP
000000FFE0000000
000001FFF0000000
000003FFF8000000
000007FFFC000000
00000FC07E000000
00001F803F000000
00003F001F800000
00007E000FC00000
0000FC0007E00000
0001F80003F00000
0003F00001F80000
0007E000007C0000
000FC000003E0000
001F8000001F0000
003F0000000F8000
007E00000007C000
00FC00000003E000
01F800000001F000
03F000000000F800
07E0000400007C00
0FC0000E00003E00
1FFFFFFFFFFFFF00
3FFFFFFFFFFFFFC0
7FFFFFFFFFFFFFE0
FFFFFFFFFFFFFFF0
00003FFFFE000000
0000FFFFFF800000
0001FE003FC00000
0003F00007E00000
0007E00003F00000
000FC00001F00000
000F800000F80000
001F0000007C0000
001E0000007C0000
001E0000003C0000
003E0000003E0000
003C0000001E0000
003C0000001E0000
003C0000001E0000
003C0000001E0000
003C0000001E0000
003C001C001E0000
003C001C001E0000
003C001C001E0000
003C001C001E0000
003C001C001E0000
003C001C001E0000
003C001C001E0000
003C001C001E0000
003C001C001E0000
003C001C001E0000
003C001C001E0000
003C001C001E0000
003C001C001E0000
003C001C001E0000
003C001C001E0000
003C001C001E0000
003C001C001E0000
003C001C001E0000
003C001C001E0000
003C001C001E0000
003C001C001E0000
003C001C001E0000
003C001C001E0000
003C001C001E0000
003C001C001E0000
003C001C001E0000
003C001C001E0000
003C001C001E0000
003C001C001E0000
003C001C001E0000
003C001C001E0000
003C001C001E0000
003C001C001E0000
003C001C001E0000
003C0000001E0000
003C0000001E0000
003C0000001E0000
003C0000001E0000
003C0000001E0000
003E0000003E0000
003E0000003E0000
003E0000003E0000
003F0000007E0000
003F800000FE0000
003FC00001FE0000
003FE00003FE0000
003FF00007FE0000
003FFE003FFE0000
003FFFFFFFFE0000
003FFFFFFFFE0000
003FFFFFFFFE0000
003FFFFFFFFE0000
003FFFFFFFFE0000
003FFFFFFFFE0000
001FFFFFFFFC0000
001FFFFFFFFC0000
001FFFFFFFFC0000
000FFFFFFFF80000
000FFFFFFFF80000
0007FFFFFFF00000
0003FFFFFFE00000
0001FFFFFFC00000
0000FFFFFF800000
00007FFFFF000000
00001FFFFC000000
000003FFE0000000
ENDCHAR
STARTCHAR 00D5
ENCODING 213
SWIDTH 458 0
DWIDTH 33 0
BBX 37 109 0 -18
BITMAP
0600000000
07C00FE000
07F07FFC00
0FFFFFFF00
0FFFFFFF80
0F7FF03FC0
0E0FC00FE0
1E030003E0
1E000001F0
1E000000F0
1E000000F0
1E000000F8
1E00000078
1E00000078
1E00000078
1E00000078
1F00000078
0F00000078
0F00000078
0F80000078
07C001C0F0
07E003F0F0
03FC0FFEF0
01FFFFFFF0
00FFFF7FE0
003FFF8FE0
007FFFF3E0
00FFFFF840
03FFFFFE00
07F800FF00
0FC0001F80
1F80000FC0
3F000007C0
3E000003E0
7C000001F0
78000001F0
78000000F0
F8000000F8
F000000078
F000000078
F000000078
F000000078
F000000078
F000700078
F000700078
F000700078
F000700078
F000700078
F000700078
F000700078
F000700078
F000700078
F000700078
F000700078
F000700078
F000700078
F000700078
F000700078
F000700078
F000700078
F000700078
F000700078
F000700078
F000700078
F000700078
F000700078
F000700078
F000700078
F000700078
F000700078
F000700078
F000700078
F000700078
F000700078
F000700078
F000700078
F000700078
F000000078
F000000078
F000000078
F000000078
F000000078
F8000000F8
F8000000F8
F8000000F8
FC000001F8
FE000003F8
FF000007F8
FF80000FF8
FFC0001FF8
FFF800FFF8
FFFFFFFFF8
FFFFFFFFF8
FFFFFFFFF8
FFFFFFFFF8
FFFFFFFFF8
FFFFFFFFF8
7FFFFFFFF0
7FFFFFFFF0
7FFFFFFFF0
3FFFFFFFE0
3FFFFFFFE0
1FFFFFFFC0
0FFFFFFF80
07FFFFFF00
03FFFFFE00
01FFFFFC00
007FFFF000
000FFF8000
ENDCHAR
STARTCHAR 00D6
ENCODING 214
SWIDTH 458 0
DWIDTH 33 0
BBX 38 105 -1 -18
BITMAP
FFFFFFFFFC
FFFFFFFFFC
FFFFFFFFFC
FFFFFFFFFC
F00078003C
F00078003C
F00078003C
F00078003C
F00078003C
F00078003C
F00078003C
F00078003C
F00078003C
F00078003C
F00078003C
F00078003C
F00078003C
F00078003C
FFFFFFFFFC
FFFFFFFFFC
FFFFFFFFFC
FFFFFFFFFC
003FFFF800
007FFFFC00
01FFFFFF00
03FC007F80
07E0000FC0
0FC00007E0
1F800003E0
1F000001F0
3E000000F8
3C000000F8
3C00000078
7C0000007C
780000003C
780000003C
780000003C
780000003C
780000003C
780038003C
780038003C
780038003C
780038003C
780038003C
780038003C
780038003C
780038003C
780038003C
780038003C
780038003C
780038003C
780038003C
780038003C
780038003C
780038003C
780038003C
780038003C
780038003C
780038003C
780038003C
780038003C
780038003C
780038003C
780038003C
780038003C
780038003C
780038003C
780038003C
780038003C
780038003C
780038003C
780038003C
780038003C
780000003C
780000003C
780000003C
780000003C
780000003C
7C0000007C
7C0000007C
7C0000007C
7E000000FC
7F000001FC
7F800003FC
7FC00007FC
7FE0000FFC
7FFC007FFC
7FFFFFFFFC
7FFFFFFFFC
7FFFFFFFFC
7FFFFFFFFC
7FFFFFFFFC
7FFFFFFFFC
3FFFFFFFF8
3FFFFFFFF8
3FFFFFFFF8
1FFFFFFFF0
1FFFFFFFF0
0FFFFFFFE0
07FFFFFFC0
03FFFFFF80
01FFFFFF00
00FFFFFE00
003FFFF800
0007FFC000
ENDCHAR
STARTCHAR 00D8
ENCODING 216
SWIDTH 486 0
DWIDTH 35 0
BBX 39 89 0 -18
BITMAP
000FFFE000
007FFFFC00
01FFFFFE00
03FFFFFF80
07F8003FC0
0FC0000FE0
1F800003F0
3F000001F0
3E000000F8
7C00000078
780000007C
780000003C
F80000003C
F00000001E
F00000001E
F00000001E
F00000001E
F00000001E
F00060001E
F00040001E
F00040001E
F00000001E
F00000001E
F00000001E
F00000001E
F00000001E
F00000001E
F00000001E
F00000001E
F00000001E
F00000001E
F00000001E
F00000001E
F00000001E
F00000001E
F00000001E
F00000001E
F00000001E
F00000001E
F00000001E
F00000001E
F00000001E
F00000001E
F00000001E
F00000001E
F00000001E
F00000001E
F00000001E
F00000001E
F00000001E
F00000001E
F00000001E
F00000001E
F00004001E
F00004001E
F00004001E
F0000C001E
F00000001E
F00000001E
F00000001E
F00000001E
F00000001E
F80000003E
F80000003E
F80000007E
FC0000007E
FE000000FE
FF000001FE
FF800003FE
FFC0000FFE
FFF8003FFE
FFFFFFFFFE
FFFFFFFFFE
FFFFFFFFFE
FFFFFFFFFE
FFFFFFFFFE
FFFFFFFFFE
7FFFFFFFFC
7FFFFFFFFC
7FFFFFFFF8
3FFFFFFFF8
3FFFFFFFF0
1FFFFFFFF0
0FFFFFFFE0
07FFFFFFC0
03FFFFFF80
01FFFFFE00
007FFFFC00
000FFFE000
ENDCHAR
STARTCHAR 00D9
ENCODING 217
SWIDTH 458 0
DWIDTH 33 0
BBX 41 109 -4 -18
BITMAP
FFFFFE000000
7FFFFF000000
7FFFFF000000
3FFFFF800000
380007800000
1C0003C00000
1C0003C00000
0E0001E00000
0E0001E00000
070000F00000
070000F80000
038000780000
0380007C0000
01C0003C0000
01E0003E0000
00E0001E0000
00F0000F0000
0070000F0000
003800078000
003800078000
001C0003C000
001C0003C000
000E0001E000
000E0001E000
0007FFFFF000
0FF800000F80
0FFC00000780
0FFC00000380
0FFFFFFFFF80
0F0003000780
0F0003000780
0F0003000780
0F0003000780
0F0003000780
0F0003000780
0F0003000780
0F0003000780
0F0003000780
0F0003000780
0F0003000780
0F0003000780
0F0003000780
0F0003000780
0F0003000780
0F0003000780
0F0003000780
0F0003000780
0F0003000780
0F0003000780
0F0003000780
0F0003000780
0F0003000780
0F0003000780
0F0003000780
0F0003000780
0F0003000780
0F0003000780
0F0003000780
0F0003000780
0F0003000780
0F0003000780
0F0003000780
0F0003000780
0F0003000780
0F0003000780
0F0003000780
0F0003000780
0F0003000780
0F0003000780
0F0003000780
0F0003000780
0F0003000780
0F0003000780
0F0003000780
0F0003000780
0F0003000780
0F0003000780
0F0000000780
0F0000000780
0F0000000780
0F0000000780
0F0000000F80
0F0000000F80
0F8000000F80
0F8000001F80
0FC000001F80
0FE000003F80
0FF000007F80
0FF80000FF80
0FFC0003FF80
0FFF000FFF80
0FFFFFFFFF80
0FFFFFFFFF80
0FFFFFFFFF80
0FFFFFFFFF80
0FFFFFFFFF80
0FFFFFFFFF00
0FFFFFFFFF00
07FFFFFFFF00
07FFFFFFFE00
03FFFFFFFE00
03FFFFFFFC00
01FFFFFFFC00
00FFFFFFF800
007FFFFFF000
003FFFFFE000
001FFFFF8000
0007FFFF0000
0000FFF80000
ENDCHAR
STARTCHAR 00DA
ENCODING 218
SWIDTH 458 0
DWIDTH 33 0
BBX 40 109 0 -18
BITMAP
00007FFFFF
0000FFFFFE
0001FFFFFE
0001FFFFFC
0003E0007C
0003C000F8
0007C000F0
00078001F0
000F8001E0
000F0003E0
001F0003C0
003E0007C0
003E000780
007C000F80
0078001F00
00F8001F00
00F0003E00
01F0003C00
01E0007C00
03E0007800
03C000F800
07C000F000
0F8001F000
0FFFFFE000
1FFFFFE000
FFFFFFFFF8
FFFFFFFFF8
FFFFFFFFF8
FFFFFFFFF8
F000600078
F000600078
F000600078
F000600078
F000600078
F000600078
F000600078
F000600078
F000600078
F000600078
F000600078
F000600078
F000600078
F000600078
F000600078
F000600078
F000600078
F000600078
F000600078
F000600078
F000600078
F000600078
F000600078
F000600078
F000600078
F000600078
F000600078
F000600078
F000600078
F000600078
F000600078
F000600078
F000600078
F000600078
F000600078
F000600078
F000600078
F000600078
F000600078
F000600078
F000600078
F000600078
F000600078
F000600078
F000600078
F000600078
F000600078
F000600078
F000000078
F000000078
F000000078
F000000078
F000000078
F8000000F8
F8000000F8
F8000000F8
FC000001F8
FE000003F8
FF000007F8
FF80000FF8
FFC0001FF8
FFF800FFF8
FFFFFFFFF8
FFFFFFFFF8
FFFFFFFFF8
FFFFFFFFF8
FFFFFFFFF8
FFFFFFFFF8
7FFFFFFFF0
7FFFFFFFF0
7FFFFFFFF0
3FFFFFFFE0
3FFFFFFFE0
1FFFFFFFC0
0FFFFFFF80
07FFFFFF00
03FFFFFE00
01FFFFFC00
007FFFF000
000FFF8000
ENDCHAR
STARTCHAR 00DB
ENCODING 219
SWIDTH 458 0
DWIDTH 33 0
BBX 60 107 -10 -18
BITMAP
000000FFE0000000
000001FFF0000000
000003FFF8000000
000007FFFC000000
00000FC07E000000
00001F803F000000
00003F001F800000
00007E000FC00000
0000FC0007E00000
0001F80003F00000
0003F00001F80000
0007E000007C0000
000FC000003E0000
001F8000001F0000
003F0000000F8000
007E00000007C000
00FC00000003E000
01F800000001F000
03F000000000F800
07E0000400007C00
0FC0000E00003E00
1FFFFFFFFFFFFF00
3FFFFFFFFFFFFFC0
7FFFFFFFFFFFFFE0
FFFFFFFFFFFFFFF0
003FFFFFFFFE0000
003FFFFFFFFE0000
003C0018001E0000
003C0018001E0000
003C0018001E0000
003C0018001E0000
003C0018001E0000
003C0018001E0000
003C0018001E0000
003C0018001E0000
003C0018001E0000
003C0018001E0000
003C0018001E0000
003C0018001E0000
003C0018001E0000
003C0018001E0000
003C0018001E0000
003C0018001E0000
003C0018001E0000
003C0018001E0000
003C0018001E0000
003C0018001E0000
003C0018001E0000
003C0018001E0000
003C0018001E0000
003C0018001E0000
003C0018001E0000
003C0018001E0000
003C0018001E0000
003C0018001E0000
003C0018001E0000
003C0018001E0000
003C0018001E0000
003C0018001E0000
003C0018001E0000
003C0018001E0000
003C0018001E0000
003C0018001E0000
003C0018001E0000
003C0018001E0000
003C0018001E0000
003C0018001E0000
003C0018001E0000
003C0018001E0000
003C0018001E0000
003C0018001E0000
003C0018001E0000
003C0018001E0000
003C0018001E0000
003C0018001E0000
003C0000001E0000
003C0000001E0000
003C0000001E0000
003C0000001E0000
003C0000001E0000
003E0000003E0000
003E0000003E0000
003E0000003E0000
003F0000007E0000
003F800000FE0000
003FC00001FE0000
003FE00003FE0000
003FF00007FE0000
003FFE003FFE0000
003FFFFFFFFE0000
003FFFFFFFFE0000
003FFFFFFFFE0000
003FFFFFFFFE0000
003FFFFFFFFE0000
003FFFFFFFFE0000
001FFFFFFFFC0000
001FFFFFFFFC0000
001FFFFFFFFC0000
000FFFFFFFF80000
000FFFFFFFF80000
0007FFFFFFF00000
0003FFFFFFE00000
0001FFFFFFC00000
0000FFFFFF800000
00007FFFFF000000
00001FFFFC000000
000003FFE0000000
ENDCHAR
STARTCHAR 00DC
ENCODING 220
SWIDTH 458 0
DWIDTH 33 0
BBX 38 105 -1 -18
BITMAP
FFFFFFFFFC
FFFFFFFFFC
FFFFFFFFFC
FFFFFFFFFC
F00078003C
F00078003C
F00078003C
F00078003C
F00078003C
F00078003C
F00078003C
F00078003C
F00078003C
F00078003C
F00078003C
F00078003C
F00078003C
F00078003C
FFFFFFFFFC
FFFFFFFFFC
FFFFFFFFFC
FFFFFFFFFC
7FFFFFFFFC
7FFFFFFFFC
7FFFFFFFFC
780030003C
780030003C
780030003C
780030003C
780030003C
780030003C
780030003C
780030003C
780030003C
780030003C
780030003C
780030003C
780030003C
780030003C
780030003C
780030003C
780030003C
780030003C
780030003C
780030003C
780030003C
780030003C
780030003C
780030003C
780030003C
780030003C
780030003C
780030003C
780030003C
780030003C
780030003C
780030003C
780030003C
780030003C
780030003C
780030003C
780030003C
780030003C
780030003C
780030003C
780030003C
780030003C
780030003C
780030003C
780030003C
780030003C
780030003C
780030003C
780000003C
780000003C
780000003C
780000003C
780000003C
7C0000007C
7C0000007C
7C0000007C
7E000000FC
7F000001FC
7F800003FC
7FC00007FC
7FE0000FFC
7FFC007FFC
7FFFFFFFFC
7FFFFFFFFC
7FFFFFFFFC
7FFFFFFFFC
7FFFFFFFFC
7FFFFFFFFC
3FFFFFFFF8
3FFFFFFFF8
3FFFFFFFF8
1FFFFFFFF0
1FFFFFFFF0
0FFFFFFFE0
07FFFFFFC0
03FFFFFF80
01FFFFFF00
00FFFFFE00
003FFFF800
0007FFC000
ENDCHAR
STARTCHAR 00DD
ENCODING 221
SWIDTH 513 0
DWIDTH 37 0
BBX 44 109 -1 -18
BITMAP
00003FFFFF80
00007FFFFF00
0000FFFFFF00
0000FFFFFE00
0001F0003E00
0001E0007C00
0003E0007800
0003C000F800
0007C000F000
00078001F000
000F8001E000
001F0003E000
001F0003C000
003E0007C000
003C000F8000
007C000F8000
0078001F0000
00F8001E0000
00F0003E0000
01F0003C0000
01E0007C0000
03E000780000
07C000F80000
07FFFFF00000
0FFFFFF00000
FFFFFFFFFFF0
7FFFFFFFFFF0
7FFFFFFFFFE0
7FFFFFFFFFE0
3C000F8003E0
3C000F0003C0
3C000F0003C0
1E00060007C0
1E0006000780
1F0006000780
0F0000000F00
0F0000000F00
0F8000001F00
078000001E00
078000001E00
07C000003E00
03C000003C00
03C000003C00
03E000007C00
01E000007800
01E000007800
01F00000F800
00F00000F000
00F00000F000
00F80001F000
00780001E000
00780001E000
003C0003C000
003C0003C000
003C0007C000
001E00078000
001E00078000
001F000F8000
000F000F0000
000F000F0000
000F000F0000
000F000F0000
000F000F0000
000F000F0000
000F000F0000
000F000F0000
000F000F0000
000F000F0000
000F000F0000
000F000F0000
000F000F0000
000F000F0000
000F000F0000
000F000F0000
000F000F0000
000F000F0000
000F000F0000
000F000F0000
000F000F0000
000F000F0000
000F000F0000
000F000F0000
000F000F0000
000F000F0000
000F000F0000
000F000F0000
000F000F0000
000F000F0000
000F000F0000
000F000F0000
000F000F0000
000FFFFF0000
000FFFFF0000
000FFFFF0000
000FFFFF0000
000FFFFF0000
000FFFFF0000
000FFFFF0000
000FFFFF0000
000FFFFF0000
000FFFFF0000
000FFFFF0000
000FFFFF0000
000FFFFF0000
000FFFFF0000
000FFFFF0000
000FFFFF0000
000FFFFF0000
000FFFFF0000
ENDCHAR
STARTCHAR 00DF
ENCODING 223
SWIDTH 486 0
DWIDTH 35 0
BBX 39 96 0 -25
BITMAP
000FFFE000
007FFFFC00
01FFFFFE00
03FFFFFF80
07F8003FC0
0FC0000FE0
1F800003F0
3F000001F0
3E000000F8
7C00000078
780000007C
780000003C
F80000003C
F00000001E
F00000001E
F00000001E
F00000001E
F00000001E
F00078001E
F00078001E
F00078001E
F00078001E
F00078001E
F00078001E
F00078001E
F00078001E
F00078001E
F00078001E
F00078001E
F00078001E
F00078001E
F00060001E
F00060001E
F00060001E
F00060001E
F00060001E
F00060003C
F00060003C
F00060003C
F00060001E
F00060001E
F00060001E
F00060001E
F00060001E
F00078001E
F00078001E
F00078001E
F00078001E
F00078001E
F00078001E
F00078001E
F00078001E
F00078001E
F00078001E
F00078001E
F00078001E
F00078001E
F00060001E
F00060001E
F00060001E
F00060001E
F00060001E
F00060003E
F00060003E
F00060007E
F00060007E
F0006000FE
F0006001FE
F0006003FE
F000600FFE
F000603FFE
F0007FFFFE
F0007FFFFE
F0007FFFFE
F0007FFFFE
F0007FFFFE
F0007FFFFE
F0007FFFFC
FFFFFFFFFC
FFFFFFFFF8
FFFFFFFFF8
FFFFFFFFF0
FFFFFFFFF0
FFFFFFFFE0
FFFFFFFFC0
FFFFFFFF80
FFFFFFFE00
FFFFFFFC00
FFFFFFE000
FFFFF80000
FFFFF80000
FFFFF80000
FFFFF80000
FFFFF80000
FFFFF80000
FFFFF80000
ENDCHAR
STARTCHAR 00E0
ENCODING 224
SWIDTH 458 0
DWIDTH 33 0
BBX 38 109 -1 -18
BITMAP
FFFFFE0000
FFFFFF0000
7FFFFF0000
7FFFFF8000
3800078000
1C0007C000
1C0003C000
0E0001E000
0E0001E000
070000F000
070000F000
0380007800
0380007800
01C0003C00
01C0003E00
00E0001E00
00F0001F00
0070000F00
0078000780
0038000780
003C0003C0
001C0003C0
000E0001E0
000E0001E0
0007FFFFF0
7FF8007FF0
7FFC000FF8
7FFC0003F8
7FFFFFFE00
7800007F80
7800001FC0
78000007C0
78000003E0
78000001F0
78000001F0
78000000F8
7800000078
7800000078
7800000078
780000007C
780000003C
780000003C
7FFFF8003C
7FFFF8003C
7FFC00003C
7FE000003C
07C000003C
0F8000003C
1F0000003C
1E0000003C
3C0000003C
3C0000003C
780000003C
780000003C
780000003C
780000003C
780000003C
780000003C
780038003C
780038003C
780038003C
780038003C
780038003C
780038003C
780038003C
780038003C
780038003C
780038003C
780038003C
780038003C
780038003C
780038003C
780038003C
780038003C
780038003C
780038003C
780038003C
780000003C
780000003C
780000003C
780000003C
780000003C
780000003C
7C0000003C
7C0000003C
7E0000003C
7F0000003C
7F0000003C
7FC000003C
7FE000003C
7FF800003C
7FFFFFFFFC
7FFFFFFFFC
7FFFFFFFFC
7FFFFFFFFC
7FFFFFFFFC
7FFFFFFFFC
7FFFFFFFFC
3FFFFFFFFC
3FFFFFFFFC
3FFFFFFFFC
1FFFFFFFFC
0FFFFFFFFC
07FFFFFFFC
03FFFFFFFC
01FFFFFFFC
00FFFFFFFC
003FFFFFFC
0007FFFFFC
ENDCHAR
STARTCHAR 00E1
ENCODING 225
SWIDTH 458 0
DWIDTH 33 0
BBX 40 109 0 -18
BITMAP
00007FFFFF
0000FFFFFE
0001FFFFFE
0001FFFFFC
0003E0007C
0003C000F8
0007C000F0
00078001F0
000F8001E0
000F0003E0
001F0003C0
003E0007C0
003E000780
007C000F80
0078001F00
00F8001F00
00F0003E00
01F0003C00
01E0007C00
03E0007800
03C000F800
07C000F000
0F8001F000
0FFFFFE000
1FFFFFE000
FFFFFFC000
FFFFFFF000
FFFFFFF800
FFFFFFFE00
F00000FF00
F000001F80
F000000FC0
F0000007C0
F0000003E0
F0000001F0
F0000001F0
F0000000F0
F0000000F8
F000000078
F000000078
F000000078
F000000078
FFFFF00078
FFFFF00078
FFF8000078
FFE0000078
0F80000078
1F00000078
1E00000078
3C00000078
7C00000078
7800000078
7800000078
F000000078
F000000078
F000000078
F000000078
F000000078
F000700078
F000700078
F000700078
F000700078
F000700078
F000700078
F000700078
F000700078
F000700078
F000700078
F000700078
F000700078
F000700078
F000700078
F000700078
F000700078
F000700078
F000700078
F000700078
F000000078
F000000078
F000000078
F000000078
F000000078
F800000078
F800000078
FC00000078
FC00000078
FE00000078
FF00000078
FF80000078
FFC0000078
FFF8000078
FFFFFFFFF8
FFFFFFFFF8
FFFFFFFFF8
FFFFFFFFF8
FFFFFFFFF8
FFFFFFFFF8
7FFFFFFFF8
7FFFFFFFF8
7FFFFFFFF8
3FFFFFFFF8
3FFFFFFFF8
1FFFFFFFF8
0FFFFFFFF8
07FFFFFFF8
03FFFFFFF8
01FFFFFFF8
007FFFFFF8
000FFFFFF8
ENDCHAR
STARTCHAR 00E2
ENCODING 226
SWIDTH 458 0
DWIDTH 33 0
BBX 60 107 -10 -18
BITMAP
000000FFE0000000
000001FFF0000000
000003FFF8000000
000007FFFC000000
00000FC07E000000
00001F803F000000
00003F001F800000
00007E000FC00000
0000FC0007E00000
0001F80003F00000
0003F00001F80000
0007E000007C0000
000FC000003E0000
001F8000001F0000
003F0000000F8000
007E00000007C000
00FC00000003E000
01F800000001F000
03F000000000F800
07E0000400007C00
0FC0000E00003E00
1FFFFFFFFFFFFF00
3FFFFFFFFFFFFFC0
7FFFFFFFFFFFFFE0
FFFFFFFFFFFFFFF0
003FFFFFFE000000
003FFFFFFF800000
003C00003FC00000
003C000007E00000
003C000003F00000
003C000001F00000
003C000000F80000
003C0000007C0000
003C0000007C0000
003C0000003C0000
003C0000003E0000
003C0000001E0000
003C0000001E0000
003C0000001E0000
003C0000001E0000
003FFFFC001E0000
003FFFFC001E0000
003FFE00001E0000
003FF800001E0000
0003E000001E0000
0007C000001E0000
00078000001E0000
000F0000001E0000
001F0000001E0000
001E0000001E0000
001E0000001E0000
003C0000001E0000
003C0000001E0000
003C0000001E0000
003C0000001E0000
003C0000001E0000
003C001C001E0000
003C001C001E0000
003C001C001E0000
003C001C001E0000
003C001C001E0000
003C001C001E0000
003C001C001E0000
003C001C001E0000
003C001C001E0000
003C001C001E0000
003C001C001E0000
003C001C001E0000
003C001C001E0000
003C001C001E0000
003C001C001E0000
003C001C001E0000
003C001C001E0000
003C001C001E0000
003C001C001E0000
003C0000001E0000
003C0000001E0000
003C0000001E0000
003C0000001E0000
003C0000001E0000
003E0000001E0000
003E0000001E0000
003F0000001E0000
003F0000001E0000
003F8000001E0000
003FC000001E0000
003FE000001E0000
003FF000001E0000
003FFE00001E0000
003FFFFFFFFE0000
003FFFFFFFFE0000
003FFFFFFFFE0000
003FFFFFFFFE0000
003FFFFFFFFE0000
003FFFFFFFFE0000
001FFFFFFFFE0000
001FFFFFFFFE0000
001FFFFFFFFE0000
000FFFFFFFFE0000
000FFFFFFFFE0000
0007FFFFFFFE0000
0003FFFFFFFE0000
0001FFFFFFFE0000
0000FFFFFFFE0000
00007FFFFFFE0000
00001FFFFFFE0000
000003FFFFFE0000
ENDCHAR
STARTCHAR 00E3
ENCODING 227
SWIDTH 458 0
DWIDTH 33 0
BBX 37 109 0 -18
BITMAP
1800000000
1F003F8000
1FC1FFF000
3FFFFFFC00
3FFFFFFE00
3DFFC0FF00
383F003F80
780C000F80
78000007C0
78000003C0
78000003C0
78000003E0
78000001E0
78000001E0
78000001E0
78000001E0
7C000001E0
3C000001E0
3C000001E0
3E000001E0
1F000703C0
1F800FC3C0
0FF03FFBC0
07FFFFFFC0
03FFFDFF80
FFFFFFBF80
FFFFFFFF80
FFFFFFF900
FFFFFFFE00
F00000FF00
F000001F80
F000000FC0
F0000007C0
F0000003E0
F0000001F0
F0000001F0
F0000000F0
F0000000F8
F000000078
F000000078
F000000078
F000000078
FFFFF00078
FFFFF00078
FFF8000078
FFE0000078
0F80000078
1F00000078
1E00000078
3C00000078
7C00000078
7800000078
7800000078
F000000078
F000000078
F000000078
F000000078
F000000078
F000700078
F000700078
F000700078
F000700078
F000700078
F000700078
F000700078
F000700078
F000700078
F000700078
F000700078
F000700078
F000700078
F000700078
F000700078
F000700078
F000700078
F000700078
F000700078
F000000078
F000000078
F000000078
F000000078
F000000078
F800000078
F800000078
FC00000078
FC00000078
FE00000078
FF00000078
FF80000078
FFC0000078
FFF8000078
FFFFFFFFF8
FFFFFFFFF8
FFFFFFFFF8
FFFFFFFFF8
FFFFFFFFF8
FFFFFFFFF8
7FFFFFFFF8
7FFFFFFFF8
7FFFFFFFF8
3FFFFFFFF8
3FFFFFFFF8
1FFFFFFFF8
0FFFFFFFF8
07FFFFFFF8
03FFFFFFF8
01FFFFFFF8
007FFFFFF8
000FFFFFF8
ENDCHAR
STARTCHAR 00E4
ENCODING 228
SWIDTH 458 0
DWIDTH 33 0
BBX 38 105 -1 -18
BITMAP
FFFFFFFFFC
FFFFFFFFFC
FFFFFFFFFC
FFFFFFFFFC
F00078003C
F00078003C
F00078003C
F00078003C
F00078003C
F00078003C
F00078003C
F00078003C
F00078003C
F00078003C
F00078003C
F00078003C
F00078003C
F00078003C
FFFFFFFFFC
FFFFFFFFFC
FFFFFFFFFC
FFFFFFFFFC
7FFFFFF800
7FFFFFFC00
7FFFFFFF00
7800007F80
7800000FC0
78000007E0
78000003E0
78000001F0
78000000F8
78000000F8
7800000078
780000007C
780000003C
780000003C
780000003C
780000003C
7FFFF8003C
7FFFF8003C
7FFC00003C
7FF000003C
07C000003C
0F8000003C
0F0000003C
1E0000003C
3E0000003C
3C0000003C
3C0000003C
780000003C
780000003C
780000003C
780000003C
780000003C
780038003C
780038003C
780038003C
780038003C
780038003C
780038003C
780038003C
780038003C
780038003C
780038003C
780038003C
780038003C
780038003C
780038003C
780038003C
780038003C
780038003C
780038003C
780038003C
780000003C
780000003C
780000003C
780000003C
780000003C
7C0000003C
7C0000003C
7E0000003C
7E0000003C
7F0000003C
7F8000003C
7FC000003C
7FE000003C
7FFC00003C
7FFFFFFFFC
7FFFFFFFFC
7FFFFFFFFC
7FFFFFFFFC
7FFFFFFFFC
7FFFFFFFFC
3FFFFFFFFC
3FFFFFFFFC
3FFFFFFFFC
1FFFFFFFFC
1FFFFFFFFC
0FFFFFFFFC
07FFFFFFFC
03FFFFFFFC
01FFFFFFFC
00FFFFFFFC
003FFFFFFC
0007FFFFFC
ENDCHAR
STARTCHAR 00E5
ENCODING 229
SWIDTH 458 0
DWIDTH 33 0
BBX 37 109 0 -18
BITMAP
0001FFC000
000FFFF800
001FFFFC00
003FFFFE00
007F007F00
00FC001F80
00F80007C0
01F00007C0
01E00003C0
03E00001E0
03C00001E0
03C01C01E0
03C03C01E0
03C03C01E0
03C01C01E0
03C00001E0
03C00001E0
03E00001E0
01E00003C0
01F00003C0
00F00007C0
00FC000F80
007F003F00
003FFFFE00
001FFFFC00
FFFFFFF800
FFFFFFF000
FFFFFFF800
FFFFFFFE00
F00000FF00
F000001F80
F000000FC0
F0000007C0
F0000003E0
F0000001F0
F0000001F0
F0000000F0
F0000000F8
F000000078
F000000078
F000000078
F000000078
FFFFF00078
FFFFF00078
FFF8000078
FFE0000078
0F80000078
1F00000078
1E00000078
3C00000078
7C00000078
7800000078
7800000078
F000000078
F000000078
F000000078
F000000078
F000000078
F000700078
F000700078
F000700078
F000700078
F000700078
F000700078
F000700078
F000700078
F000700078
F000700078
F000700078
F000700078
F000700078
F000700078
F000700078
F000700078
F000700078
F000700078
F000700078
F000000078
F000000078
F000000078
F000000078
F000000078
F800000078
F800000078
FC00000078
FC00000078
FE00000078
FF00000078
FF80000078
FFC0000078
FFF8000078
FFFFFFFFF8
FFFFFFFFF8
FFFFFFFFF8
FFFFFFFFF8
FFFFFFFFF8
FFFFFFFFF8
7FFFFFFFF8
7FFFFFFFF8
7FFFFFFFF8
3FFFFFFFF8
3FFFFFFFF8
1FFFFFFFF8
0FFFFFFFF8
07FFFFFFF8
03FFFFFFF8
01FFFFFFF8
007FFFFFF8
000FFFFFF8
ENDCHAR
STARTCHAR 00E6
ENCODING 230
SWIDTH 736 0
DWIDTH 53 0
BBX 57 89 0 -18
BITMAP
000FFFC1FFF80000
007FFFF7FFFF0000
00FFFFFFFFFF8000
03FFFFFFFFFFE000
07F8003E000FF000
0FE000080003F800
1F8000000000FC00
1F00000000007C00
3E00000000003E00
3C00000000001E00
7C00000000001F00
7800000000000F00
F800000000000F00
F000000000000780
F000000000000780
F000000000000780
F000000000000780
F000000000000780
F00078000F000780
F00078000F000780
F00078000F000780
F00078000F000780
F00078000F000780
F00078000F000780
F00078000F000780
F00078000F000780
FFFFF8000F000780
FFFFF8000F000780
FFFFF8000F000780
FFFFF8000F000780
00FFF8000F000780
03F0000000000780
07C0000000000780
0F80000000000780
1F00000000000780
1E00000000000780
3C00000000000780
7800000000000780
7800000000000780
7800000000000780
F000000000000780
F000000000000780
F000000000000780
F000000000000780
F000000000000780
F00078000FFFFF80
F00078000FFFFF80
F00078000FFFFF80
F00078000FFFFF80
F00078000FFFFF80
F00078000F000780
F00078000F000780
F00078000F000780
F00078000F000780
F00078000F000780
F00078000F000780
F00078000F000780
F000000000000780
F000000000000780
F000000000000780
F000000000000780
F000000000000780
F800000000000F80
F800000000000F80
F800000000001F80
FC00000000001F80
FE00000000003F80
FF00000000007F80
FF8000000000FF80
FFC000000003FF80
FFF8001C000FFF80
FFFFFFFFFFFFFF80
FFFFFFFFFFFFFF80
FFFFFFFFFFFFFF80
FFFFFFFFFFFFFF80
FFFFFFFFFFFFFF80
FFFFFFFFFFFFFF80
7FFFFFFFFFFFFF00
7FFFFFFFFFFFFF00
7FFFFFFFFFFFFE00
3FFFFFFFFFFFFE00
3FFFFFFFFFFFFC00
1FFFFFFFFFFFFC00
0FFFFFFFFFFFF800
07FFFFFFFFFFF000
03FFFFFFFFFFE000
01FFFFFFFFFF8000
007FFFFFFFFF0000
000FFFE3FFF80000
ENDCHAR
STARTCHAR 00E7
ENCODING 231
SWIDTH 458 0
DWIDTH 33 0
BBX 37 105 0 -39
BITMAP
000FFF8000
007FFFF000
00FFFFF800
03FFFFFE00
07F800FF00
0FC0001F80
1F80000FC0
3F000007C0
3E000003E0
7C000001F0
7C000001F0
78000000F0
F8000000F8
F000000078
F000000078
F000000078
F000000078
F000600078
F000600078
F000600078
F000600078
F000600078
F000600078
F000600078
F000600078
F000600078
F000600078
F000600078
F000600078
F000600078
F000600078
F000600078
F000600078
F000600078
F000600078
F000600078
F0007FFFF8
F0007FFFF8
F0007FFFF8
F000600078
F000600078
F000600078
F000600078
F000600078
F000600078
F000600078
F000600078
F000600078
F000600078
F000600078
F000600078
F000600078
F000000078
F000000078
F000000078
F000000078
F000000078
78000000F8
78000000F8
78000000F8
3C000001F8
3E000003F8
1E000007F8
0F80000FF8
0FC0001FF8
07F0003FF8
01F8003FF8
00F8003FF8
0078003FF8
0078003FF8
3FF8003FF8
3FF8003FF8
3FF8003FF0
3FF8003FF0
3C00003FF0
3C00003FE0
3C00003FE0
3C00003FC0
3C00007F80
3C00007F00
3C00007E00
3C0000FC00
3C0001FC00
3C0003FC00
3C0007FC00
3C000FFC00
3C007FFC00
3FFFFFFC00
3FFFFFFC00
3FFFFFFC00
3FFFFFFC00
3FFFFFFC00
3FFFFFFC00
3FFFFFF800
3FFFFFF800
3FFFFFF800
3FFFFFF000
3FFFFFE000
3FFFFFE000
3FFFFFC000
3FFFFF8000
3FFFFF0000
3FFFFC0000
3FFFF80000
3FFFC00000
ENDCHAR
STARTCHAR 00E8
ENCODING 232
SWIDTH 458 0
DWIDTH 33 0
BBX 38 109 -1 -18
BITMAP
FFFFFE0000
FFFFFF0000
7FFFFF0000
3FFFFF8000
3800078000
1C0007C000
1C0003C000
0E0001E000
0E0001F000
070000F000
070000F800
0380007800
0380007C00
01C0003C00
00C0003E00
00E0001E00
0070001F00
0070000F00
0038000780
00380007C0
001C0003C0
001C0003E0
000E0001E0
00060001F0
0007FFFFF0
0004007FF8
003C000FF8
00FFFFFC00
01FFFFFE00
03F8007F80
07E0001FC0
0FC00007C0
1F000003E0
3E000001F0
3E000001F0
3C000000F8
7C00000078
7800000078
7800000078
780000007C
780000003C
780000003C
780038003C
780038003C
780038003C
780038003C
780038003C
780038003C
780038003C
780038003C
780038003C
780038003C
780038003C
780038003C
780038003C
780038003C
780038003C
780038003C
780038003C
780038003C
780038003C
780000003C
780000003C
780000003C
780000003C
780000003C
780000003C
780000003C
780000003C
780000003C
780000003C
780000003C
780000003C
780000003C
780000003C
78003FFFFC
78003FFFFC
780000003C
780000003C
780000003C
780000003C
780000003C
780000003C
7C0000003C
7C0000003C
7E0000003C
7E0000003C
7F0000003C
7F8000003C
7FE000003C
7FF800003C
7FFFFFFFFC
7FFFFFFFFC
7FFFFFFFFC
7FFFFFFFFC
7FFFFFFFFC
7FFFFFFFFC
7FFFFFFFFC
3FFFFFFFFC
3FFFFFFFFC
3FFFFFFFFC
1FFFFFFFFC
0FFFFFFFFC
07FFFFFFFC
03FFFFFFFC
01FFFFFFFC
00FFFFFFFC
003FFFFFFC
0007FFFFFC
ENDCHAR
STARTCHAR 00E9
ENCODING 233
SWIDTH 458 0
DWIDTH 33 0
BBX 40 109 0 -18
BITMAP
00007FFFFF
0000FFFFFE
0001FFFFFE
0001FFFFFC
0003E0007C
0003C000F8
0007C000F0
00078001F0
000F8001E0
000F0003E0
001F0003C0
003E0007C0
003E000780
007C000F80
0078001F00
00F8001F00
00F0003E00
01F0003C00
01E0007C00
03E0007800
03C000F800
07C000F000
0F8001F000
0FFFFFE000
1FFFFFE000
1FFFFFC000
3FFFFFF000
00FFFFF800
03FFFFFE00
07F800FF00
0FC0001F80
1F80000FC0
3F000007C0
3E000003E0
7C000001F0
78000001F0
78000000F0
F8000000F8
F000000078
F000000078
F000000078
F000000078
F000000078
F000700078
F000700078
F000700078
F000700078
F000700078
F000700078
F000700078
F000700078
F000700078
F000700078
F000700078
F000700078
F000700078
F000700078
F000700078
F000700078
F000700078
F000700078
F000000078
F000000078
F000000078
F000000078
F000000078
F000000078
F000000078
F000000078
F000000078
F000000078
F000000078
F000000078
F000000078
F000000078
F0007FFFF8
F0007FFFF8
F000000078
F000000078
F000000078
F000000078
F000000078
F800000078
F800000078
F800000078
FC00000078
FE00000078
FF00000078
FF80000078
FFC0000078
FFF8000078
FFFFFFFFF8
FFFFFFFFF8
FFFFFFFFF8
FFFFFFFFF8
FFFFFFFFF8
FFFFFFFFF8
7FFFFFFFF8
7FFFFFFFF8
7FFFFFFFF8
3FFFFFFFF8
3FFFFFFFF8
1FFFFFFFF8
0FFFFFFFF8
07FFFFFFF8
03FFFFFFF8
01FFFFFFF8
007FFFFFF8
000FFFFFF8
ENDCHAR
STARTCHAR 00EA
ENCODING 234
SWIDTH 458 0
DWIDTH 33 0
BBX 60 107 -10 -18
BITMAP
000000FFE0000000
000001FFF0000000
000003FFF8000000
000007FFFC000000
00000FC07E000000
00001F803F000000
00003F001F800000
00007E000FC00000
0000FC0007E00000
0001F80003F00000
0003F00001F80000
0007E000007C0000
000FC000003E0000
001F8000001F0000
003F0000000F8000
007E00000007C000
00FC00000003E000
01F800000001F000
03F000000000F800
07E0000400007C00
0FC0000E00003E00
1FFFFFFFFFFFFF00
3FFFFFFFFFFFFFC0
7FFFFFFFFFFFFFE0
FFFFFFFFFFFFFFF0
00003FFFFE000000
0000FFFFFF800000
0001FE003FC00000
0003F00007E00000
0007E00003F00000
000FC00001F00000
000F800000F80000
001F0000007C0000
001E0000007C0000
001E0000003C0000
003E0000003E0000
003C0000001E0000
003C0000001E0000
003C0000001E0000
003C0000001E0000
003C0000001E0000
003C001C001E0000
003C001C001E0000
003C001C001E0000
003C001C001E0000
003C001C001E0000
003C001C001E0000
003C001C001E0000
003C001C001E0000
003C001C001E0000
003C001C001E0000
003C001C001E0000
003C001C001E0000
003C001C001E0000
003C001C001E0000
003C001C001E0000
003C001C001E0000
003C001C001E0000
003C001C001E0000
003C0000001E0000
003C0000001E0000
003C0000001E0000
003C0000001E0000
003C0000001E0000
003C0000001E0000
003C0000001E0000
003C0000001E0000
003C0000001E0000
003C0000001E0000
003C0000001E0000
003C0000001E0000
003C0000001E0000
003C0000001E0000
003C001FFFFE0000
003C001FFFFE0000
003C0000001E0000
003C0000001E0000
003C0000001E0000
003C0000001E0000
003C0000001E0000
003E0000001E0000
003E0000001E0000
003E0000001E0000
003F0000001E0000
003F8000001E0000
003FC000001E0000
003FE000001E0000
003FF000001E0000
003FFE00001E0000
003FFFFFFFFE0000
003FFFFFFFFE0000
003FFFFFFFFE0000
003FFFFFFFFE0000
003FFFFFFFFE0000
003FFFFFFFFE0000
001FFFFFFFFE0000
001FFFFFFFFE0000
001FFFFFFFFE0000
000FFFFFFFFE0000
000FFFFFFFFE0000
0007FFFFFFFE0000
0003FFFFFFFE0000
0001FFFFFFFE0000
0000FFFFFFFE0000
00007FFFFFFE0000
00001FFFFFFE0000
000003FFFFFE0000
ENDCHAR
STARTCHAR 00EB
ENCODING 235
SWIDTH 458 0
DWIDTH 33 0
BBX 38 105 -1 -18
BITMAP
FFFFFFFFFC
FFFFFFFFFC
FFFFFFFFFC
FFFFFFFFFC
F00078003C
F00078003C
F00078003C
F00078003C
F00078003C
F00078003C
F00078003C
F00078003C
F00078003C
F00078003C
F00078003C
F00078003C
F00078003C
F00078003C
FFFFFFFFFC
FFFFFFFFFC
FFFFFFFFFC
FFFFFFFFFC
003FFFF800
007FFFFC00
01FFFFFF00
03FC007F80
07E0000FC0
0FC00007E0
1F800003E0
1F000001F0
3E000000F8
3C000000F8
3C00000078
7C0000007C
780000003C
780000003C
780000003C
780000003C
780000003C
780038003C
780038003C
780038003C
780038003C
780038003C
780038003C
780038003C
780038003C
780038003C
780038003C
780038003C
780038003C
780038003C
780038003C
780038003C
780038003C
780038003C
780038003C
780000003C
780000003C
780000003C
780000003C
780000003C
780000003C
780000003C
780000003C
780000003C
780000003C
780000003C
780000003C
780000003C
780000003C
78003FFFFC
78003FFFFC
780000003C
780000003C
780000003C
780000003C
780000003C
7C0000003C
7C0000003C
7C0000003C
7E0000003C
7F0000003C
7F8000003C
7FC000003C
7FE000003C
7FFC00003C
7FFFFFFFFC
7FFFFFFFFC
7FFFFFFFFC
7FFFFFFFFC
7FFFFFFFFC
7FFFFFFFFC
3FFFFFFFFC
3FFFFFFFFC
3FFFFFFFFC
1FFFFFFFFC
1FFFFFFFFC
0FFFFFFFFC
07FFFFFFFC
03FFFFFFFC
01FFFFFFFC
00FFFFFFFC
003FFFFFFC
0007FFFFFC
ENDCHAR
STARTCHAR 00EC
ENCODING 236
SWIDTH 263 0
DWIDTH 19 0
BBX 38 102 -12 -19
BITMAP
FFFFFE0000
7FFFFF0000
7FFFFF8000
3800078000
3C0003C000
1C0003C000
0E0001E000
0F0001E000
070000F000
0780007000
0380007800
03C0003C00
01C0003C00
01E0001E00
00E0001E00
0070000F00
0070000F00
0038000780
003C000780
001C0003C0
001E0001C0
000E0001E0
000F0000F0
0007FFFFF0
0004000038
0004000038
000200003C
0003FFFFC0
0003C003C0
0003C003C0
0003C003C0
0003C003C0
0003C003C0
0003C003C0
0003C003C0
0003C003C0
0003C003C0
0003C003C0
0003C003C0
0003C003C0
0003C003C0
0003C003C0
0003C003C0
0003C003C0
0003C003C0
0003C003C0
0003C003C0
0003C003C0
0003C003C0
0003C003C0
0003C003C0
0003C003C0
0003C003C0
0003C003C0
0003C003C0
0003C003C0
0003C003C0
0003C003C0
0003C003C0
0003C003C0
0003C003C0
0003C003C0
0003C003C0
0003C003C0
0003C003C0
0003C003C0
0003C003C0
0003C003C0
0003C003C0
0003C003C0
0003C003C0
0003C003C0
0003C003C0
0003C003C0
0003C003C0
0003C003C0
0003C003C0
0003C003C0
0003C003C0
0003C003C0
0003C003C0
0003C003C0
0003C003C0
0003FFFFC0
0003FFFFC0
0003FFFFC0
0003FFFFC0
0003FFFFC0
0003FFFFC0
0003FFFFC0
0003FFFFC0
0003FFFFC0
0003FFFFC0
0003FFFFC0
0003FFFFC0
0003FFFFC0
0003FFFFC0
0003FFFFC0
0003FFFFC0
0003FFFFC0
0003FFFFC0
0003FFFFC0
ENDCHAR
STARTCHAR 00ED
ENCODING 237
SWIDTH 236 0
DWIDTH 17 0
BBX 38 102 -4 -19
BITMAP
0001FFFFFC
0003FFFFF8
0007FFFFF8
0007FFFFF0
000F8001F0
000F0003E0
001F0003C0
001E0007C0
003E000780
003C000F80
007C000F00
00F8001F00
00F8001E00
01F0003E00
01E0007C00
03E0007C00
03C000F800
07C000F000
078001F000
0F8001E000
0F0003E000
1F0003C000
3E0007C000
3FFFFF8000
7FFFFF8000
7FFFFF8000
FFFFFF8000
0FFFFF8000
0F00078000
0F00078000
0F00078000
0F00078000
0F00078000
0F00078000
0F00078000
0F00078000
0F00078000
0F00078000
0F00078000
0F00078000
0F00078000
0F00078000
0F00078000
0F00078000
0F00078000
0F00078000
0F00078000
0F00078000
0F00078000
0F00078000
0F00078000
0F00078000
0F00078000
0F00078000
0F00078000
0F00078000
0F00078000
0F00078000
0F00078000
0F00078000
0F00078000
0F00078000
0F00078000
0F00078000
0F00078000
0F00078000
0F00078000
0F00078000
0F00078000
0F00078000
0F00078000
0F00078000
0F00078000
0F00078000
0F00078000
0F00078000
0F00078000
0F00078000
0F00078000
0F00078000
0F00078000
0F00078000
0F00078000
0FFFFF8000
0FFFFF8000
0FFFFF8000
0FFFFF8000
0FFFFF8000
0FFFFF8000
0FFFFF8000
0FFFFF8000
0FFFFF8000
0FFFFF8000
0FFFFF8000
0FFFFF8000
0FFFFF8000
0FFFFF8000
0FFFFF8000
0FFFFF8000
0FFFFF8000
0FFFFF8000
0FFFFF8000
ENDCHAR
STARTCHAR 00EE
ENCODING 238
SWIDTH 236 0
DWIDTH 17 0
BBX 60 101 -19 -19
BITMAP
000000FFE0000000
000001FFF0000000
000003FFF8000000
000007FFFC000000
00000FC07E000000
00001F803F000000
00003F001F800000
00007E000FC00000
0000FC0007E00000
0001F80003F00000
0003F00001F80000
0007E000007C0000
000FC000003E0000
001F8000001F0000
003F0000000F8000
007E00000007C000
00FC00000003E000
01F800000001F000
03F000000000F800
07E0000400007C00
0FC0000E00003E00
1FFFFFFFFFFFFF00
3FFFFFFFFFFFFFC0
7FFFFFFFFFFFFFE0
FFFFFFFFFFFFFFF0
00001FFFFF000000
00001FFFFF000000
00001E000F000000
00001E000F000000
00001E000F000000
00001E000F000000
00001E000F000000
00001E000F000000
00001E000F000000
00001E000F000000
00001E000F000000
00001E000F000000
00001E000F000000
00001E000F000000
00001E000F000000
00001E000F000000
00001E000F000000
00001E000F000000
00001E000F000000
00001E000F000000
00001E000F000000
00001E000F000000
00001E000F000000
00001E000F000000
00001E000F000000
00001E000F000000
00001E000F000000
00001E000F000000
00001E000F000000
00001E000F000000
00001E000F000000
00001E000F000000
00001E000F000000
00001E000F000000
00001E000F000000
00001E000F000000
00001E000F000000
00001E000F000000
00001E000F000000
00001E000F000000
00001E000F000000
00001E000F000000
00001E000F000000
00001E000F000000
00001E000F000000
00001E000F000000
00001E000F000000
00001E000F000000
00001E000F000000
00001E000F000000
00001E000F000000
00001E000F000000
00001E000F000000
00001E000F000000
00001E000F000000
00001E000F000000
00001E000F000000
00001FFFFF000000
00001FFFFF000000
00001FFFFF000000
00001FFFFF000000
00001FFFFF000000
00001FFFFF000000
00001FFFFF000000
00001FFFFF000000
00001FFFFF000000
00001FFFFF000000
00001FFFFF000000
00001FFFFF000000
00001FFFFF000000
00001FFFFF000000
00001FFFFF000000
00001FFFFF000000
00001FFFFF000000
00001FFFFF000000
00001FFFFF000000
ENDCHAR
STARTCHAR 00EF
ENCODING 239
SWIDTH 236 0
DWIDTH 17 0
BBX 38 98 -9 -19
BITMAP
FFFFFFFFFC
FFFFFFFFFC
FFFFFFFFFC
FFFFFFFFFC
F00078003C
F00078003C
F00078003C
F00078003C
F00078003C
F00078003C
F00078003C
F00078003C
F00078003C
F00078003C
F00078003C
F00078003C
F00078003C
F00078003C
FFFFFFFFFC
FFFFFFFFFC
FFFFFFFFFC
FFFFFFFFFC
007FFFFC00
007FFFFC00
0078003C00
0078003C00
0078003C00
0078003C00
0078003C00
0078003C00
0078003C00
0078003C00
0078003C00
0078003C00
0078003C00
0078003C00
0078003C00
0078003C00
0078003C00
0078003C00
0078003C00
0078003C00
0078003C00
0078003C00
0078003C00
0078003C00
0078003C00
0078003C00
0078003C00
0078003C00
0078003C00
0078003C00
0078003C00
0078003C00
0078003C00
0078003C00
0078003C00
0078003C00
0078003C00
0078003C00
0078003C00
0078003C00
0078003C00
0078003C00
0078003C00
0078003C00
0078003C00
0078003C00
0078003C00
0078003C00
0078003C00
0078003C00
0078003C00
0078003C00
0078003C00
0078003C00
0078003C00
0078003C00
0078003C00
007FFFFC00
007FFFFC00
007FFFFC00
007FFFFC00
007FFFFC00
007FFFFC00
007FFFFC00
007FFFFC00
007FFFFC00
007FFFFC00
007FFFFC00
007FFFFC00
007FFFFC00
007FFFFC00
007FFFFC00
007FFFFC00
007FFFFC00
007FFFFC00
007FFFFC00
ENDCHAR
STARTCHAR 00F0
ENCODING 240
SWIDTH 263 0
DWIDTH 19 0
BBX 54 54 3 7
BITMAP
00FFFFFFFFFC00
03FFFFFFFFFF00
0FFFFFFFFFFFC0
1FF03FFFF00FE0
3FC00FFFC003F0
3F0003FF8001F0
7E0001FE000078
7C0000FC000038
FC0000FC00003C
F800007800001C
F800007800001C
F000003000000C
F000003000000C
F000003000000C
F000003000000C
F000003000000C
F000003000000C
F000003000000C
F800007800001C
F800007800001C
FC0000FC00003C
FC0000FC00003C
FE0001FE00007C
FF0003FF0001FC
FF800FFFC003FC
FFF03FFFF00FFC
FFFFFFFFFFFFFC
FFFFFFFFFFFFFC
FFF03FFFF00FFC
FFC00FFFC003FC
FF0003FF8001FC
FE0001FE00007C
FC0000FC00007C
FC0000FC00003C
F800007800001C
F800007800001C
F000003000000C
F000003000000C
F000003000000C
F000003000000C
F000003000000C
F000003000000C
F000003000000C
F800007800001C
F800007800001C
FC0000FC00003C
7C0000FC000038
7E0001FE000078
3F0003FF0001F0
3F800FFFC003F0
1FF03FFFF00FE0
0FFFFFFFFFFFC0
03FFFFFFFFFF00
00FFFFFFFFFC00
ENDCHAR
STARTCHAR 00F1
ENCODING 241
SWIDTH 458 0
DWIDTH 33 0
BBX 37 109 0 -18
BITMAP
1800000000
1F003F8000
1FC1FFF000
3FFFFFFC00
3FFFFFFE00
3DFFC0FF00
383F003F80
780C000F80
78000007C0
78000003C0
78000003C0
78000003E0
78000001E0
78000001E0
78000001E0
78000001E0
7C000001E0
3C000001E0
3C000001E0
3E000001E0
1F000703C0
1F800FC3C0
0FF03FFBC0
07FFFFFFC0
03FFFDFF80
00FFFFBF80
007FFFFF80
00FFFFF900
03FFFFFE00
07F800FF00
0FC0001F80
1F80000FC0
3F000007C0
3E000003E0
7C000001F0
78000001F0
78000000F0
F8000000F8
F000000078
F000000078
F000000078
F000000078
F000600078
F000600078
F000600078
F000600078
F000600078
F000600078
F000600078
F000600078
F000600078
F000600078
F000600078
F000600078
F000600078
F000600078
F000600078
F000600078
F000600078
F000600078
F000600078
F000600078
F000600078
F000600078
F000600078
F000600078
F000600078
F000600078
F000600078
F000600078
F000600078
F000600078
F000600078
F000600078
F000600078
F000600078
F000600078
F000600078
F000600078
F000600078
F000600078
F000600078
F000600078
F000600078
F000600078
F000600078
F000600078
F000600078
F000600078
F000600078
F000600078
FFFFFFFFF8
FFFFFFFFF8
FFFFFFFFF8
FFFFFFFFF8
FFFFFFFFF8
FFFFFFFFF8
FFFFFFFFF8
FFFFFFFFF8
FFFFFFFFF8
FFFFFFFFF8
FFFFFFFFF8
FFFFFFFFF8
FFFFFFFFF8
FFFFFFFFF8
FFFFFFFFF8
FFFFFFFFF8
FFFFFFFFF8
FFFFFFFFF8
ENDCHAR
STARTCHAR 00F2
ENCODING 242
SWIDTH 458 0
DWIDTH 33 0
BBX 38 109 -1 -18
BITMAP
FFFFFE0000
FFFFFF0000
7FFFFF0000
3FFFFF8000
3800078000
1C0007C000
1C0003C000
0E0001E000
0E0001F000
070000F000
070000F800
0380007800
0380007C00
01C0003C00
00C0003E00
00E0001E00
0070001F00
0070000F00
0038000780
00380007C0
001C0003C0
001C0003E0
000E0001E0
00060001F0
0007FFFFF0
0004007FF8
003C000FF8
00FFFFFC00
01FFFFFE00
03F8007F80
07E0001FC0
0FC00007C0
1F000003E0
3E000001F0
3E000001F0
3C000000F8
7C00000078
7800000078
7800000078
780000007C
780000003C
780000003C
780038003C
780038003C
780038003C
780038003C
780038003C
780038003C
780038003C
780038003C
780038003C
780038003C
780038003C
780038003C
780038003C
780038003C
780038003C
780038003C
780038003C
780038003C
780038003C
780038003C
780038003C
780038003C
780038003C
780038003C
780038003C
780038003C
780038003C
780038003C
780038003C
780038003C
780038003C
780038003C
780038003C
780038003C
780038003C
780000003C
780000003C
780000003C
780000007C
780000007C
780000007C
7C0000007C
7C000000FC
7E000000FC
7E000001FC
7F000003FC
7F800007FC
7FE0001FFC
7FF8007FFC
7FFFFFFFFC
7FFFFFFFFC
7FFFFFFFFC
7FFFFFFFFC
7FFFFFFFF8
7FFFFFFFF8
7FFFFFFFF8
3FFFFFFFF8
3FFFFFFFF0
3FFFFFFFF0
1FFFFFFFE0
0FFFFFFFC0
07FFFFFFC0
03FFFFFF80
01FFFFFF00
00FFFFFC00
003FFFF000
0007FF8000
ENDCHAR
STARTCHAR 00F3
ENCODING 243
SWIDTH 458 0
DWIDTH 33 0
BBX 40 109 0 -18
BITMAP
00007FFFFF
0000FFFFFE
0001FFFFFE
0001FFFFFC
0003E0007C
0003C000F8
0007C000F0
00078001F0
000F8001E0
000F0003E0
001F0003C0
003E0007C0
003E000780
007C000F80
0078001F00
00F8001F00
00F0003E00
01F0003C00
01E0007C00
03E0007800
03C000F800
07C000F000
0F8001F000
0FFFFFE000
1FFFFFE000
1FFFFFC000
3FFFFFF000
00FFFFF800
03FFFFFE00
07F800FF00
0FC0001F80
1F80000FC0
3F000007C0
3E000003E0
7C000001F0
78000001F0
78000000F0
F8000000F8
F000000078
F000000078
F000000078
F000000078
F000000078
F000700078
F000700078
F000700078
F000700078
F000700078
F000700078
F000700078
F000700078
F000700078
F000700078
F000700078
F000700078
F000700078
F000700078
F000700078
F000700078
F000700078
F000700078
F000700078
F000700078
F000700078
F000700078
F000700078
F000700078
F000700078
F000700078
F000700078
F000700078
F000700078
F000700078
F000700078
F000700078
F000700078
F000700078
F000000078
F000000078
F000000078
F000000078
F000000078
F8000000F8
F8000000F8
F8000000F8
FC000001F8
FE000003F8
FF000007F8
FF80000FF8
FFC0001FF8
FFF800FFF8
FFFFFFFFF8
FFFFFFFFF8
FFFFFFFFF8
FFFFFFFFF8
FFFFFFFFF8
FFFFFFFFF8
7FFFFFFFF0
7FFFFFFFF0
7FFFFFFFF0
3FFFFFFFE0
3FFFFFFFE0
1FFFFFFFC0
0FFFFFFF80
07FFFFFF00
03FFFFFE00
01FFFFFC00
007FFFF000
000FFF8000
ENDCHAR
STARTCHAR 00F4
ENCODING 244
SWIDTH 458 0
DWIDTH 33 0
BBX 60 107 -10 -18
BITMAP
000000FFE0000000
000001FFF0000000
000003FFF8000000
000007FFFC000000
00000FC07E000000
00001F803F000000
00003F001F800000
00007E000FC00000
0000FC0007E00000
0001F80003F00000
0003F00001F80000
0007E000007C0000
000FC000003E0000
001F8000001F0000
003F0000000F8000
007E00000007C000
00FC00000003E000
01F800000001F000
03F000000000F800
07E0000400007C00
0FC0000E00003E00
1FFFFFFFFFFFFF00
3FFFFFFFFFFFFFC0
7FFFFFFFFFFFFFE0
FFFFFFFFFFFFFFF0
00003FFFFE000000
0000FFFFFF800000
0001FE003FC00000
0003F00007E00000
0007E00003F00000
000FC00001F00000
000F800000F80000
001F0000007C0000
001E0000007C0000
001E0000003C0000
003E0000003E0000
003C0000001E0000
003C0000001E0000
003C0000001E0000
003C0000001E0000
003C0000001E0000
003C001C001E0000
003C001C001E0000
003C001C001E0000
003C001C001E0000
003C001C001E0000
003C001C001E0000
003C001C001E0000
003C001C001E0000
003C001C001E0000
003C001C001E0000
003C001C001E0000
003C001C001E0000
003C001C001E0000
003C001C001E0000
003C001C001E0000
003C001C001E0000
003C001C001E0000
003C001C001E0000
003C001C001E0000
003C001C001E0000
003C001C001E0000
003C001C001E0000
003C001C001E0000
003C001C001E0000
003C001C001E0000
003C001C001E0000
003C001C001E0000
003C001C001E0000
003C001C001E0000
003C001C001E0000
003C001C001E0000
003C001C001E0000
003C001C001E0000
003C001C001E0000
003C0000001E0000
003C0000001E0000
003C0000001E0000
003C0000001E0000
003C0000001E0000
003E0000003E0000
003E0000003E0000
003E0000003E0000
003F0000007E0000
003F800000FE0000
003FC00001FE0000
003FE00003FE0000
003FF00007FE0000
003FFE003FFE0000
003FFFFFFFFE0000
003FFFFFFFFE0000
003FFFFFFFFE0000
003FFFFFFFFE0000
003FFFFFFFFE0000
003FFFFFFFFE0000
001FFFFFFFFC0000
001FFFFFFFFC0000
001FFFFFFFFC0000
000FFFFFFFF80000
000FFFFFFFF80000
0007FFFFFFF00000
0003FFFFFFE00000
0001FFFFFFC00000
0000FFFFFF800000
00007FFFFF000000
00001FFFFC000000
000003FFE0000000
ENDCHAR
STARTCHAR 00F5
ENCODING 245
SWIDTH 458 0
DWIDTH 33 0
BBX 37 109 0 -18
BITMAP
1800000000
1F003F8000
1FC1FFF000
3FFFFFFC00
3FFFFFFE00
3DFFC0FF00
383F003F80
780C000F80
78000007C0
78000003C0
78000003C0
78000003E0
78000001E0
78000001E0
78000001E0
78000001E0
7C000001E0
3C000001E0
3C000001E0
3E000001E0
1F000703C0
1F800FC3C0
0FF03FFBC0
07FFFFFFC0
03FFFDFF80
00FFFFBF80
007FFFFF80
00FFFFF900
03FFFFFE00
07F800FF00
0FC0001F80
1F80000FC0
3F000007C0
3E000003E0
7C000001F0
78000001F0
78000000F0
F8000000F8
F000000078
F000000078
F000000078
F000000078
F000000078
F000700078
F000700078
F000700078
F000700078
F000700078
F000700078
F000700078
F000700078
F000700078
F000700078
F000700078
F000700078
F000700078
F000700078
F000700078
F000700078
F000700078
F000700078
F000700078
F000700078
F000700078
F000700078
F000700078
F000700078
F000700078
F000700078
F000700078
F000700078
F000700078
F000700078
F000700078
F000700078
F000700078
F000700078
F000000078
F000000078
F000000078
F000000078
F000000078
F8000000F8
F8000000F8
F8000000F8
FC000001F8
FE000003F8
FF000007F8
FF80000FF8
FFC0001FF8
FFF800FFF8
FFFFFFFFF8
FFFFFFFFF8
FFFFFFFFF8
FFFFFFFFF8
FFFFFFFFF8
FFFFFFFFF8
7FFFFFFFF0
7FFFFFFFF0
7FFFFFFFF0
3FFFFFFFE0
3FFFFFFFE0
1FFFFFFFC0
0FFFFFFF80
07FFFFFF00
03FFFFFE00
01FFFFFC00
007FFFF000
000FFF8000
ENDCHAR
STARTCHAR 00F6
ENCODING 246
SWIDTH 458 0
DWIDTH 33 0
BBX 38 105 -1 -18
BITMAP
FFFFFFFFFC
FFFFFFFFFC
FFFFFFFFFC
FFFFFFFFFC
F00078003C
F00078003C
F00078003C
F00078003C
F00078003C
F00078003C
F00078003C
F00078003C
F00078003C
F00078003C
F00078003C
F00078003C
F00078003C
F00078003C
FFFFFFFFFC
FFFFFFFFFC
FFFFFFFFFC
FFFFFFFFFC
003FFFF800
007FFFFC00
01FFFFFF00
03FC007F80
07E0000FC0
0FC00007E0
1F800003E0
1F000001F0
3E000000F8
3C000000F8
3C00000078
7C0000007C
780000003C
780000003C
780000003C
780000003C
780000003C
780038003C
780038003C
780038003C
780038003C
780038003C
780038003C
780038003C
780038003C
780038003C
780038003C
780038003C
780038003C
780038003C
780038003C
780038003C
780038003C
780038003C
780038003C
780038003C
780038003C
780038003C
780038003C
780038003C
780038003C
780038003C
780038003C
780038003C
780038003C
780038003C
780038003C
780038003C
780038003C
780038003C
780038003C
780000003C
780000003C
780000003C
780000003C
780000003C
7C0000007C
7C0000007C
7C0000007C
7E000000FC
7F000001FC
7F800003FC
7FC00007FC
7FE0000FFC
7FFC007FFC
7FFFFFFFFC
7FFFFFFFFC
7FFFFFFFFC
7FFFFFFFFC
7FFFFFFFFC
7FFFFFFFFC
3FFFFFFFF8
3FFFFFFFF8
3FFFFFFFF8
1FFFFFFFF0
1FFFFFFFF0
0FFFFFFFE0
07FFFFFFC0
03FFFFFF80
01FFFFFF00
00FFFFFE00
003FFFF800
0007FFC000
ENDCHAR
STARTCHAR 00F7
ENCODING 247
SWIDTH 263 0
DWIDTH 19 0
BBX 54 54 3 7
BITMAP
00FFFFFFFFFC00
03FFFFFFFFFF00
0FFFFFFFFFFFC0
1FF03FFFF00FE0
3FC00FFFC003F0
3F0003FF8001F0
7E0001FE000078
7C0000FC000038
FC0000FC00003C
F800007800001C
F800007800001C
F000003000000C
F000003000000C
F000003000000C
F000003000000C
F000003000000C
F000003000000C
F000003000000C
F800007800001C
F800007800001C
FC0000FC00003C
FC0000FC00003C
FE0001FE00007C
FF0003FF0001FC
FF800FFFC003FC
FFF03FFFF00FFC
FFFFFFFFFFFFFC
FFFFFFFFFFFFFC
FFF03FFFF00FFC
FFC00FFFC003FC
FF0003FF8001FC
FE0001FE00007C
FC0000FC00007C
FC0000FC00003C
F800007800001C
F800007800001C
F000003000000C
F000003000000C
F000003000000C
F000003000000C
F000003000000C
F000003000000C
F000003000000C
F800007800001C
F800007800001C
FC0000FC00003C
7C0000FC000038
7E0001FE000078
3F0003FF0001F0
3F800FFFC003F0
1FF03FFFF00FE0
0FFFFFFFFFFFC0
03FFFFFFFFFF00
00FFFFFFFFFC00
ENDCHAR
STARTCHAR 00F8
ENCODING 248
SWIDTH 486 0
DWIDTH 35 0
BBX 39 89 0 -18
BITMAP
000FFFE000
007FFFFC00
00FFFFFE00
03FFFFFF80
07F8003FC0
0FC0000FE0
1F800003F0
1F000001F0
3E000000F8
7C0000007C
7C0000007C
780000003C
F80000003E
F00000001E
F00000001E
F00000001E
F00000001E
F00000001E
F00060001E
F00040001E
F00040001E
F00000001E
F00000001E
F00000001E
F00000001E
F00000001E
F00000001E
F00000001E
F00000001E
F00000001E
F00000001E
F00000001E
F00000001E
F00000001E
F00000001E
F00000001E
F00000001E
F00000001E
F00000001E
F00000001E
F00000001E
F00000001E
F00000001E
F00000001E
F00000001E
F00000001E
F00000001E
F00000001E
F00000001E
F00000001E
F00000001E
F00000001E
F00000001E
F00004001E
F00004001E
F00004001E
F0000C001E
F00000001E
F00000001E
F00000001E
F00000001E
F00000001E
F80000003E
F80000003E
FC0000007E
FC0000007E
FE000000FE
FF000001FE
FF800003FE
FFC00007FE
FFF8003FFE
FFFFFFFFFE
FFFFFFFFFE
FFFFFFFFFE
FFFFFFFFFE
FFFFFFFFFE
FFFFFFFFFE
7FFFFFFFFC
7FFFFFFFFC
7FFFFFFFFC
3FFFFFFFF8
3FFFFFFFF0
1FFFFFFFF0
0FFFFFFFE0
07FFFFFFC0
03FFFFFF80
00FFFFFE00
007FFFFC00
000FFFE000
ENDCHAR
STARTCHAR 00F9
ENCODING 249
SWIDTH 458 0
DWIDTH 33 0
BBX 38 109 -1 -18
BITMAP
FFFFFE0000
FFFFFF0000
7FFFFF0000
7FFFFF8000
3800078000
1C0007C000
1C0003C000
0E0001E000
0E0001E000
070000F000
070000F000
0380007800
0380007800
01C0003C00
01C0003E00
00E0001E00
00F0001F00
0070000F00
0078000780
0038000780
003C0003C0
001C0003C0
000E0001E0
000E0001E0
0007FFFFF0
7FF800000C
7FFC000004
7FFC000004
7FFFFFFFFC
780018003C
780018003C
780018003C
780018003C
780018003C
780018003C
780018003C
780018003C
780018003C
780018003C
780018003C
780018003C
780018003C
780018003C
780018003C
780018003C
780018003C
780018003C
780018003C
780018003C
780018003C
780018003C
780018003C
780018003C
780018003C
780018003C
780018003C
780018003C
780018003C
780018003C
780018003C
780018003C
780018003C
780018003C
780018003C
780018003C
780018003C
780018003C
780018003C
780018003C
780018003C
780018003C
780018003C
780018003C
780018003C
780018003C
780018003C
780018003C
780000003C
780000003C
780000003C
780000007C
780000007C
780000007C
7C0000007C
7C000000FC
7E000000FC
7E000001FC
7F000003FC
7F800007FC
7FE0001FFC
7FF8007FFC
7FFFFFFFFC
7FFFFFFFFC
7FFFFFFFFC
7FFFFFFFFC
7FFFFFFFF8
7FFFFFFFF8
7FFFFFFFF8
3FFFFFFFF8
3FFFFFFFF0
3FFFFFFFF0
1FFFFFFFE0
0FFFFFFFC0
07FFFFFFC0
03FFFFFF80
01FFFFFF00
00FFFFFC00
003FFFF000
0007FF8000
ENDCHAR
STARTCHAR 00FA
ENCODING 250
SWIDTH 458 0
DWIDTH 33 0
BBX 40 109 0 -18
BITMAP
00007FFFFF
0000FFFFFE
0001FFFFFE
0001FFFFFC
0003E0007C
0003C000F8
0007C000F0
00078001F0
000F8001E0
000F0003E0
001F0003C0
003E0007C0
003E000780
007C000F80
0078001F00
00F8001F00
00F0003E00
01F0003C00
01E0007C00
03E0007800
03C000F800
07C000F000
0F8001F000
0FFFFFE000
1FFFFFE000
FFFFFFFFF8
FFFFFFFFF8
FFFFFFFFF8
FFFFFFFFF8
F000600078
F000600078
F000600078
F000600078
F000600078
F000600078
F000600078
F000600078
F000600078
F000600078
F000600078
F000600078
F000600078
F000600078
F000600078
F000600078
F000600078
F000600078
F000600078
F000600078
F000600078
F000600078
F000600078
F000600078
F000600078
F000600078
F000600078
F000600078
F000600078
F000600078
F000600078
F000600078
F000600078
F000600078
F000600078
F000600078
F000600078
F000600078
F000600078
F000600078
F000600078
F000600078
F000600078
F000600078
F000600078
F000600078
F000600078
F000600078
F000000078
F000000078
F000000078
F000000078
F000000078
F8000000F8
F8000000F8
F8000000F8
FC000001F8
FE000003F8
FF000007F8
FF80000FF8
FFC0001FF8
FFF800FFF8
FFFFFFFFF8
FFFFFFFFF8
FFFFFFFFF8
FFFFFFFFF8
FFFFFFFFF8
FFFFFFFFF8
7FFFFFFFF0
7FFFFFFFF0
7FFFFFFFF0
3FFFFFFFE0
3FFFFFFFE0
1FFFFFFFC0
0FFFFFFF80
07FFFFFF00
03FFFFFE00
01FFFFFC00
007FFFF000
000FFF8000
ENDCHAR
STARTCHAR 00FB
ENCODING 251
SWIDTH 458 0
DWIDTH 33 0
BBX 60 107 -10 -18
BITMAP
000000FFE0000000
000001FFF0000000
000003FFF8000000
000007FFFC000000
00000FC07E000000
00001F803F000000
00003F001F800000
00007E000FC00000
0000FC0007E00000
0001F80003F00000
0003F00001F80000
0007E000007C0000
000FC000003E0000
001F8000001F0000
003F0000000F8000
007E00000007C000
00FC00000003E000
01F800000001F000
03F000000000F800
07E0000400007C00
0FC0000E00003E00
1FFFFFFFFFFFFF00
3FFFFFFFFFFFFFC0
7FFFFFFFFFFFFFE0
FFFFFFFFFFFFFFF0
003FFFFFFFFE0000
003FFFFFFFFE0000
003C0018001E0000
003C0018001E0000
003C0018001E0000
003C0018001E0000
003C0018001E0000
003C0018001E0000
003C0018001E0000
003C0018001E0000
003C0018001E0000
003C0018001E0000
003C0018001E0000
003C0018001E0000
003C0018001E0000
003C0018001E0000
003C0018001E0000
003C0018001E0000
003C0018001E0000
003C0018001E0000
003C0018001E0000
003C0018001E0000
003C0018001E0000
003C0018001E0000
003C0018001E0000
003C0018001E0000
003C0018001E0000
003C0018001E0000
003C0018001E0000
003C0018001E0000
003C0018001E0000
003C0018001E0000
003C0018001E0000
003C0018001E0000
003C0018001E0000
003C0018001E0000
003C0018001E0000
003C0018001E0000
003C0018001E0000
003C0018001E0000
003C0018001E0000
003C0018001E0000
003C0018001E0000
003C0018001E0000
003C0018001E0000
003C0018001E0000
003C0018001E0000
003C0018001E0000
003C0018001E0000
003C0018001E0000
003C0000001E0000
003C0000001E0000
003C0000001E0000
003C0000001E0000
003C0000001E0000
003E0000003E0000
003E0000003E0000
003E0000003E0000
003F0000007E0000
003F800000FE0000
003FC00001FE0000
003FE00003FE0000
003FF00007FE0000
003FFE003FFE0000
003FFFFFFFFE0000
003FFFFFFFFE0000
003FFFFFFFFE0000
003FFFFFFFFE0000
003FFFFFFFFE0000
003FFFFFFFFE0000
001FFFFFFFFC0000
001FFFFFFFFC0000
001FFFFFFFFC0000
000FFFFFFFF80000
000FFFFFFFF80000
0007FFFFFFF00000
0003FFFFFFE00000
0001FFFFFFC00000
0000FFFFFF800000
00007FFFFF000000
00001FFFFC000000
000003FFE0000000
ENDCHAR
STARTCHAR 00FC
ENCODING 252
SWIDTH 458 0
DWIDTH 33 0
BBX 38 105 -1 -18
BITMAP
FFFFFFFFFC
FFFFFFFFFC
FFFFFFFFFC
FFFFFFFFFC
F00078003C
F00078003C
F00078003C
F00078003C
F00078003C
F00078003C
F00078003C
F00078003C
F00078003C
F00078003C
F00078003C
F00078003C
F00078003C
F00078003C
FFFFFFFFFC
FFFFFFFFFC
FFFFFFFFFC
FFFFFFFFFC
7FFFFFFFFC
7FFFFFFFFC
7FFFFFFFFC
780030003C
780030003C
780030003C
780030003C
780030003C
780030003C
780030003C
780030003C
780030003C
780030003C
780030003C
780030003C
780030003C
780030003C
780030003C
780030003C
780030003C
780030003C
780030003C
780030003C
780030003C
780030003C
780030003C
780030003C
780030003C
780030003C
780030003C
780030003C
780030003C
780030003C
780030003C
780030003C
780030003C
780030003C
780030003C
780030003C
780030003C
780030003C
780030003C
780030003C
780030003C
780030003C
780030003C
780030003C
780030003C
780030003C
780030003C
780030003C
780000003C
780000003C
780000003C
780000003C
780000003C
7C0000007C
7C0000007C
7C0000007C
7E000000FC
7F000001FC
7F800003FC
7FC00007FC
7FE0000FFC
7FFC007FFC
7FFFFFFFFC
7FFFFFFFFC
7FFFFFFFFC
7FFFFFFFFC
7FFFFFFFFC
7FFFFFFFFC
3FFFFFFFF8
3FFFFFFFF8
3FFFFFFFF8
1FFFFFFFF0
1FFFFFFFF0
0FFFFFFFE0
07FFFFFFC0
03FFFFFF80
01FFFFFF00
00FFFFFE00
003FFFF800
0007FFC000
ENDCHAR
STARTCHAR 00FD
ENCODING 253
SWIDTH 458 0
DWIDTH 33 0
BBX 40 109 0 -18
BITMAP
00007FFFFF
0000FFFFFE
0001FFFFFE
0001FFFFFC
0003E0007C
0003C000F8
0007C000F0
00078001F0
000F8001E0
000F0003E0
001F0003C0
003E0007C0
003E000780
007C000F80
0078001F00
00F8001F00
00F0003E00
01F0003C00
01E0007C00
03E0007800
03C000F800
07C000F000
0F8001F000
0FFFFFE000
1FFFFFE000
FFFFFFFFF8
FFFFFFFFF8
FFFFFFFFF8
FFFFFFFFF8
F000600078
F000600078
F000600078
F000600078
F000600078
F000600078
F000600078
F000600078
F000600078
F000600078
F000600078
F000600078
F000600078
F000600078
F000600078
F000600078
F000600078
F000600078
F000600078
F000600078
F000600078
F000600078
F000600078
F000600078
F000600078
F000600078
F000600078
F000600078
F000600078
F000600078
F000600078
F000600078
F000000078
F000000078
F000000078
F000000078
F000000078
7800000078
7800000078
7800000078
3C00000078
1E00000078
1F00000078
0F80000078
FFC0000078
FFF0000078
FFFFE00078
FFFFE00078
F000000078
F000000078
F000000078
F000000078
F000000078
F0000000F8
F0000000F8
F0000000F8
F0000001F8
F0000003F8
F0000007F8
F000000FF8
F000001FF8
F00000FFF8
FFFFFFFFF8
FFFFFFFFF8
FFFFFFFFF8
FFFFFFFFF8
FFFFFFFFF8
FFFFFFFFF8
FFFFFFFFF0
FFFFFFFFF0
FFFFFFFFF0
FFFFFFFFE0
FFFFFFFFE0
FFFFFFFFC0
FFFFFFFF80
FFFFFFFF00
FFFFFFFE00
FFFFFFFC00
FFFFFFF000
FFFFFF8000
ENDCHAR
STARTCHAR 00FF
ENCODING 255
SWIDTH 458 0
DWIDTH 33 0
BBX 38 105 -1 -18
BITMAP
FFFFFFFFFC
FFFFFFFFFC
FFFFFFFFFC
FFFFFFFFFC
F00078003C
F00078003C
F00078003C
F00078003C
F00078003C
F00078003C
F00078003C
F00078003C
F00078003C
F00078003C
F00078003C
F00078003C
F00078003C
F00078003C
FFFFFFFFFC
FFFFFFFFFC
FFFFFFFFFC
FFFFFFFFFC
7FFFFFFFFC
7FFFFFFFFC
7FFFFFFFFC
780030003C
780030003C
780030003C
780030003C
780030003C
780030003C
780030003C
780030003C
780030003C
780030003C
780030003C
780030003C
780030003C
780030003C
780030003C
780030003C
780030003C
780030003C
780030003C
780030003C
780030003C
780030003C
780030003C
780030003C
780030003C
780030003C
780030003C
780030003C
780030003C
780030003C
780030003C
780030003C
780000003C
780000003C
780000003C
780000003C
780000003C
3C0000003C
3C0000003C
3C0000003C
1E0000003C
0F0000003C
0F8000003C
07C000003C
7FE000003C
7FF800003C
7FFFF0003C
7FFFF0003C
780000003C
780000003C
780000003C
780000003C
780000003C
780000007C
780000007C
780000007C
78000000FC
78000001FC
78000003FC
78000007FC
7800000FFC
7800007FFC
7FFFFFFFFC
7FFFFFFFFC
7FFFFFFFFC
7FFFFFFFFC
7FFFFFFFFC
7FFFFFFFFC
7FFFFFFFF8
7FFFFFFFF8
7FFFFFFFF8
7FFFFFFFF0
7FFFFFFFF0
7FFFFFFFE0
7FFFFFFFC0
7FFFFFFF80
7FFFFFFF00
7FFFFFFE00
7FFFFFF800
7FFFFFC000
ENDCHAR
STARTCHAR 0131
ENCODING 305
SWIDTH 236 0
DWIDTH 17 0
BBX 21 78 0 -19
BITMAP
FFFFF8
FFFFF8
FFFFF8
FFFFF8
F00078
F00078
F00078
F00078
F00078
F00078
F00078
F00078
F00078
F00078
F00078
F00078
F00078
F00078
F00078
F00078
F00078
F00078
F00078
F00078
F00078
F00078
F00078
F00078
F00078
F00078
F00078
F00078
F00078
F00078
F00078
F00078
F00078
F00078
F00078
F00078
F00078
F00078
F00078
F00078
F00078
F00078
F00078
F00078
F00078
F00078
F00078
F00078
F00078
F00078
F00078
F00078
F00078
F00078
F00078
FFFFF8
FFFFF8
FFFFF8
FFFFF8
FFFFF8
FFFFF8
FFFFF8
FFFFF8
FFFFF8
FFFFF8
FFFFF8
FFFFF8
FFFFF8
FFFFF8
FFFFF8
FFFFF8
FFFFF8
FFFFF8
FFFFF8
ENDCHAR
STARTCHAR 0141
ENCODING 321
SWIDTH 263 0
DWIDTH 19 0
BBX 54 54 3 7
BITMAP
00FFFFFFFFFC00
03FFFFFFFFFF00
0FFFFFFFFFFFC0
1FF03FFFF00FE0
3FC00FFFC003F0
3F0003FF8001F0
7E0001FE000078
7C0000FC000038
FC0000FC00003C
F800007800001C
F800007800001C
F000003000000C
F000003000000C
F000003000000C
F000003000000C
F000003000000C
F000003000000C
F000003000000C
F800007800001C
F800007800001C
FC0000FC00003C
FC0000FC00003C
FE0001FE00007C
FF0003FF0001FC
FF800FFFC003FC
FFF03FFFF00FFC
FFFFFFFFFFFFFC
FFFFFFFFFFFFFC
FFF03FFFF00FFC
FFC00FFFC003FC
FF0003FF8001FC
FE0001FE00007C
FC0000FC00007C
FC0000FC00003C
F800007800001C
F800007800001C
F000003000000C
F000003000000C
F000003000000C
F000003000000C
F000003000000C
F000003000000C
F000003000000C
F800007800001C
F800007800001C
FC0000FC00003C
7C0000FC000038
7E0001FE000078
3F0003FF0001F0
3F800FFFC003F0
1FF03FFFF00FE0
0FFFFFFFFFFFC0
03FFFFFFFFFF00
00FFFFFFFFFC00
ENDCHAR
STARTCHAR 0142
ENCODING 322
SWIDTH 263 0
DWIDTH 19 0
BBX 54 54 3 7
BITMAP
00FFFFFFFFFC00
03FFFFFFFFFF00
0FFFFFFFFFFFC0
1FF03FFFF00FE0
3FC00FFFC003F0
3F0003FF8001F0
7E0001FE000078
7C0000FC000038
FC0000FC00003C
F800007800001C
F800007800001C
F000003000000C
F000003000000C
F000003000000C
F000003000000C
F000003000000C
F000003000000C
F000003000000C
F800007800001C
F800007800001C
FC0000FC00003C
FC0000FC00003C
FE0001FE00007C
FF0003FF0001FC
FF800FFFC003FC
FFF03FFFF00FFC
FFFFFFFFFFFFFC
FFFFFFFFFFFFFC
FFF03FFFF00FFC
FFC00FFFC003FC
FF0003FF8001FC
FE0001FE00007C
FC0000FC00007C
FC0000FC00003C
F800007800001C
F800007800001C
F000003000000C
F000003000000C
F000003000000C
F000003000000C
F000003000000C
F000003000000C
F000003000000C
F800007800001C
F800007800001C
FC0000FC00003C
7C0000FC000038
7E0001FE000078
3F0003FF0001F0
3F800FFFC003F0
1FF03FFFF00FE0
0FFFFFFFFFFFC0
03FFFFFFFFFF00
00FFFFFFFFFC00
ENDCHAR
STARTCHAR 0152
ENCODING 338
SWIDTH 736 0
DWIDTH 53 0
BBX 57 84 0 -18
BITMAP
000FFFE3FFF80000
007FFFFFFFFF0000
01FFFFFFFFFF8000
03FFFFFFFFFFE000
07F8001C000FF000
0FC000000003F800
1F8000000000FC00
3F00000000007C00
3E00000000003E00
7C00000000001E00
7800000000001F00
7800000000000F00
F800000000000F80
F000000000000F80
F000000000000780
F000000000000780
F000000000000780
F000000000000780
F0007C000F000780
F0007C000F000780
F0007C000F000780
F0007C000F000780
F0007C000F000780
F0007C000F000780
F0007C000F000780
F0007C000F000780
F0007C0000000780
F0007C0000000780
F0007C0000000780
F0007C0000000780
F0007C0000000780
F0007C0000000780
F0007C0000000780
F0007C0000000780
F0007C0000000780
F0007C0000000780
F0007C0000000780
F0007C0000000780
F0007C0000000780
F0007C0000000780
F0007C0000000780
F0007C000FFFFF80
F0007C000FFFFF80
F0007C000FFFFF80
F0007C000FFFFF80
F0007C000F000780
F0007C000F000780
F0007C000F000780
F0007C000F000780
F0007C000F000780
F0007C000F000780
F0007C000F000780
F0007C000F000780
F0007C000F000780
F000000000000780
F000000000000780
F000000000000780
F800000000000F80
F800000000000F80
F800000000001F80
FC00000000001F80
FE00000000003F80
FF00000000007F80
FF8000000000FF80
FFC000000003FF80
FFF8001C000FFF80
FFFFFFFFFFFFFF80
FFFFFFFFFFFFFF80
FFFFFFFFFFFFFF80
FFFFFFFFFFFFFF80
FFFFFFFFFFFFFF80
FFFFFFFFFFFFFF80
7FFFFFFFFFFFFF00
7FFFFFFFFFFFFF00
7FFFFFFFFFFFFF00
3FFFFFFFFFFFFE00
3FFFFFFFFFFFFC00
1FFFFFFFFFFFFC00
0FFFFFFFFFFFF800
07FFFFFFFFFFF000
03FFFFFFFFFFE000
01FFFFFFFFFF8000
007FFFFFFFFF0000
000FFFE3FFF80000
ENDCHAR
STARTCHAR 0153
ENCODING 339
SWIDTH 736 0
DWIDTH 53 0
BBX 57 84 0 -18
BITMAP
000FFFE3FFF80000
007FFFFFFFFF0000
00FFFFFFFFFF8000
03FFFFFFFFFFE000
07F8001C000FF000
0FE000000003F800
1F8000000000FC00
3F00000000007C00
3E00000000003E00
7C00000000001F00
7C00000000001F00
7800000000000F00
F800000000000F80
F000000000000780
F000000000000780
F000000000000780
F000000000000780
F000000000000780
F0007C000F000780
F0007C000F000780
F0007C000F000780
F0007C000F000780
F0007C000F000780
F0007C000F000780
F0007C000F000780
F0007C000F000780
F0007C0000000780
F0007C0000000780
F0007C0000000780
F0007C0000000780
F0007C0000000780
F0007C0000000780
F0007C0000000780
F0007C0000000780
F0007C0000000780
F0007C0000000780
F0007C0000000780
F0007C0000000780
F0007C0000000780
F0007C0000000780
F0007C0000000780
F0007C000FFFFF80
F0007C000FFFFF80
F0007C000FFFFF80
F0007C000FFFFF80
F0007C000F000780
F0007C000F000780
F0007C000F000780
F0007C000F000780
F0007C000F000780
F0007C000F000780
F0007C000F000780
F0007C000F000780
F0007C000F000780
F000000000000780
F000000000000780
F000000000000780
F800000000000F80
F800000000000F80
F800000000000F80
FC00000000001F80
FE00000000003F80
FF00000000007F80
FF8000000000FF80
FFC000000001FF80
FFF8001C000FFF80
FFFFFFFFFFFFFF80
FFFFFFFFFFFFFF80
FFFFFFFFFFFFFF80
FFFFFFFFFFFFFF80
FFFFFFFFFFFFFF80
FFFFFFFFFFFFFF80
7FFFFFFFFFFFFF00
7FFFFFFFFFFFFF00
7FFFFFFFFFFFFF00
3FFFFFFFFFFFFE00
3FFFFFFFFFFFFE00
1FFFFFFFFFFFFC00
0FFFFFFFFFFFF800
07FFFFFFFFFFF000
03FFFFFFFFFFE000
01FFFFFFFFFF8000
007FFFFFFFFF0000
000FFFE3FFF80000
ENDCHAR
STARTCHAR 0160
ENCODING 352
SWIDTH 597 0
DWIDTH 43 0
BBX 47 84 0 -18
BITMAP
00000003FFFE
0000001FFFFE
0000007FFFFE
000001FFFFFE
000003FE001E
00000FF0001E
00001FC0001E
00003F00001E
00007E00001E
00007C00001E
0000F800001E
0001F000001E
0001F000001E
0003E000001E
0003E000001E
0003C000001E
0003C000001E
0007C0007FFE
00078001FFFE
00078001FFFE
00078003FFFE
00078003FFFE
00078003FFFE
00078003FFFE
00078003FFFE
00078003FFFE
00078003FFFE
00078003FFFE
00078003FFFE
00078003FFFE
00078003FFFE
00078003FFFE
00078003FFFE
00078003FFFE
00078003FFFE
00078003C000
00078003C000
00078003C000
00078003C000
00078003C000
00078003C000
00078003C000
00078003C000
00078003C000
00078003C000
00078003C000
00078003C000
00078003C000
FFFF8003C000
FFFF0003C000
FFFF0003C000
FFFC0003C000
F0000007C000
F0000007C000
F0000007C000
F000000FC000
F000000FC000
F000001FC000
F000001FC000
F000003FC000
F000007FC000
F00000FFC000
F00001FFC000
F00007FFC000
F0001FFFC000
F000FFFFC000
FFFFFFFFC000
FFFFFFFF8000
FFFFFFFF8000
FFFFFFFF8000
FFFFFFFF0000
FFFFFFFF0000
FFFFFFFE0000
FFFFFFFE0000
FFFFFFFC0000
FFFFFFF80000
FFFFFFF80000
FFFFFFF00000
FFFFFFE00000
FFFFFF800000
FFFFFF000000
FFFFFC000000
FFFFF0000000
FFFF80000000
ENDCHAR
STARTCHAR 0161
ENCODING 353
SWIDTH 597 0
DWIDTH 43 0
BBX 47 84 0 -18
BITMAP
00000003FFFE
0000001FFFFE
0000007FFFFE
000001FFFFFE
000003FE001E
00000FF0001E
00001FC0001E
00003F00001E
00007E00001E
00007C00001E
0000F800001E
0001F000001E
0001F000001E
0003E000001E
0003E000001E
0003C000001E
0003C000001E
0007C0007FFE
00078001FFFE
00078001FFFE
00078003FFFE
00078003FFFE
00078003FFFE
00078003FFFE
00078003FFFE
00078003FFFE
00078003FFFE
00078003FFFE
00078003FFFE
00078003FFFE
00078003FFFE
00078003FFFE
00078003FFFE
00078003FFFE
00078003FFFE
00078003C000
00078003C000
00078003C000
00078003C000
00078003C000
00078003C000
00078003C000
00078003C000
00078003C000
00078003C000
00078003C000
00078003C000
00078003C000
FFFF8003C000
FFFF0003C000
FFFF0003C000
FFFC0003C000
F0000007C000
F0000007C000
F0000007C000
F000000FC000
F000000FC000
F000001FC000
F000001FC000
F000003FC000
F000007FC000
F00000FFC000
F00001FFC000
F00007FFC000
F0001FFFC000
F000FFFFC000
FFFFFFFFC000
FFFFFFFF8000
FFFFFFFF8000
FFFFFFFF8000
FFFFFFFF0000
FFFFFFFF0000
FFFFFFFE0000
FFFFFFFE0000
FFFFFFFC0000
FFFFFFF80000
FFFFFFF80000
FFFFFFF00000
FFFFFFE00000
FFFFFF800000
FFFFFF000000
FFFFFC000000
FFFFF0000000
FFFF80000000
ENDCHAR
ENDFONT
